<mxfile host="app.diagrams.net" agent="Mozilla/5.0 (Windows NT 10.0; Win64; x64) AppleWebKit/537.36 (KHTML, like Gecko) Chrome/126.0.0.0 Safari/537.36" version="24.7.4">
  <diagram id="Ht1M8jgEwFfnCIfOTk4-" name="Page-1">
    <mxGraphModel dx="1687" dy="967" grid="1" gridSize="10" guides="1" tooltips="1" connect="1" arrows="1" fold="1" page="1" pageScale="1" pageWidth="1169" pageHeight="827" math="0" shadow="0">
      <root>
        <mxCell id="0" />
        <mxCell id="1" parent="0" />
        <mxCell id="C6XlPYrIIHPJKQmVjB9T-131" value="&lt;span style=&quot;color: rgba(0, 0, 0, 0); font-family: monospace; font-size: 0px; text-align: start; text-wrap: nowrap;&quot;&gt;%3CmxGraphModel%3E%3Croot%3E%3CmxCell%20id%3D%220%22%2F%3E%3CmxCell%20id%3D%221%22%20parent%3D%220%22%2F%3E%3CmxCell%20id%3D%222%22%20style%3D%22edgeStyle%3Dnone%3Bcurved%3D1%3Brounded%3D0%3BorthogonalLoop%3D1%3BjettySize%3Dauto%3Bhtml%3D1%3BfontSize%3D12%3BstartSize%3D8%3BendSize%3D8%3BstrokeWidth%3D3%3BentryX%3D0%3BentryY%3D0.5%3BentryDx%3D0%3BentryDy%3D0%3BexitX%3D0.922%3BexitY%3D0.55%3BexitDx%3D0%3BexitDy%3D0%3BexitPerimeter%3D0%3B%22%20edge%3D%221%22%20parent%3D%221%22%3E%3CmxGeometry%20relative%3D%221%22%20as%3D%22geometry%22%3E%3CmxPoint%20x%3D%221347.25%22%20y%3D%22297.29%22%20as%3D%22sourcePoint%22%2F%3E%3CmxPoint%20x%3D%221437.25%22%20y%3D%22297.29000000000025%22%20as%3D%22targetPoint%22%2F%3E%3C%2FmxGeometry%3E%3C%2FmxCell%3E%3C%2Froot%3E%3C%2FmxGraphModel%3E&lt;/span&gt;" style="rounded=0;whiteSpace=wrap;html=1;fillColor=#EAEDED;fontSize=22;fontColor=#FFFFFF;strokeColor=none;labelBackgroundColor=none;" vertex="1" parent="1">
          <mxGeometry x="1360" y="750" width="910" height="800" as="geometry" />
        </mxCell>
        <mxCell id="C6XlPYrIIHPJKQmVjB9T-102" value="" style="rhombus;whiteSpace=wrap;html=1;fillColor=#EAEDED;strokeColor=none;" vertex="1" parent="1">
          <mxGeometry x="970.75" y="241.25" width="376.5" height="113.5" as="geometry" />
        </mxCell>
        <mxCell id="C6XlPYrIIHPJKQmVjB9T-96" value="" style="rounded=0;whiteSpace=wrap;html=1;fillColor=#EAEDED;fontSize=22;fontColor=#FFFFFF;strokeColor=none;labelBackgroundColor=none;" vertex="1" parent="1">
          <mxGeometry x="620" y="266" width="268" height="60" as="geometry" />
        </mxCell>
        <mxCell id="C6XlPYrIIHPJKQmVjB9T-28" value="&lt;span style=&quot;color: rgba(0, 0, 0, 0); font-family: monospace; font-size: 0px; text-align: start; text-wrap: nowrap;&quot;&gt;%3CmxGraphModel%3E%3Croot%3E%3CmxCell%20id%3D%220%22%2F%3E%3CmxCell%20id%3D%221%22%20parent%3D%220%22%2F%3E%3CmxCell%20id%3D%222%22%20style%3D%22edgeStyle%3Dnone%3Bcurved%3D1%3Brounded%3D0%3BorthogonalLoop%3D1%3BjettySize%3Dauto%3Bhtml%3D1%3BfontSize%3D12%3BstartSize%3D8%3BendSize%3D8%3BstrokeWidth%3D3%3BentryX%3D0%3BentryY%3D0.5%3BentryDx%3D0%3BentryDy%3D0%3BexitX%3D0.922%3BexitY%3D0.55%3BexitDx%3D0%3BexitDy%3D0%3BexitPerimeter%3D0%3B%22%20edge%3D%221%22%20parent%3D%221%22%3E%3CmxGeometry%20relative%3D%221%22%20as%3D%22geometry%22%3E%3CmxPoint%20x%3D%221347.25%22%20y%3D%22297.29%22%20as%3D%22sourcePoint%22%2F%3E%3CmxPoint%20x%3D%221437.25%22%20y%3D%22297.29000000000025%22%20as%3D%22targetPoint%22%2F%3E%3C%2FmxGeometry%3E%3C%2FmxCell%3E%3C%2Froot%3E%3C%2FmxGraphModel%3E&lt;/span&gt;" style="rounded=0;whiteSpace=wrap;html=1;fillColor=#EAEDED;fontSize=22;fontColor=#FFFFFF;strokeColor=none;labelBackgroundColor=none;" vertex="1" parent="1">
          <mxGeometry x="140" y="400" width="317" height="320" as="geometry" />
        </mxCell>
        <mxCell id="SCVMTBWpLvtzJIhz15lM-1" value="" style="line;strokeWidth=2;html=1;fontSize=14;" parent="1" vertex="1">
          <mxGeometry x="52.5" y="139.5" width="1060" height="10" as="geometry" />
        </mxCell>
        <mxCell id="C6XlPYrIIHPJKQmVjB9T-6" value="" style="shape=image;imageAspect=0;aspect=fixed;verticalLabelPosition=bottom;verticalAlign=top;image=data:image/png,iVBORw0KGgoAAAANSUhEUgAAAS0AAAEVCAYAAAC1yrMuAAAAAXNSR0IArs4c6QAAAARnQU1BAACxjwv8YQUAAAAJcEhZcwAADsMAAA7DAcdvqGQAAOdxSURBVHhe7P0HmCXHld+J8pPXrlYjzVvtalfvW3373qzee9L40YxGGmmk0QzHcmaH5Ay9AQkSJAhDT4IgAJIACO9to+HRaKC9r3bV5b333lxb5pb3vvu88zuZcW/eW7e6qxsNoLtR8fW/MzMyMjIyK+N3z4mMiPzQyTOFcvJMgZzIXS9v35beibLd1y15yna/trSlC+lD4cExiQyNS3xkSgYCig5PSMjft6VLk7t/mfd2S1MSS0za/Qln3LMtbelC+lB4YFRm55dk7ew5OXdOklpcXpHB0UnpiQ5LXyyRUjwhkcSIREdHJDKi66pwYlj6BwJptiS9et+ieoPnFpbkrN7bzBC81x9ELa+uyujkjN6rjOdrS1u6gD60uLTiV6P14ezZsxIbHk+Cq1+B1RtJSEPdoFSXDkll0ZDUliWkqXZMuntHDGgu4/64bvvrG4k0m0mXKTsm47hLyeedyJU923kBVkjjM+9tf3+/TExM+FtbgZAYn5KeyHpw9cdHBS8gM35LV5eoH/wdUUgNpGxpNpKrW5n17EP+s7NhmJieS0IrPDQibZ1Dct91bXLXR7pl510j8tJNE/LMZ2ekOm9CrS61uDRzCtcdGkieEBfAndi2/QugcneHBz03wZfb72k8mUdqOWLHuG3MRZbkQZ5e3u/+w94TGbJzs851JPfpOtuDIyk4TU9Py6233iq/8Au/IL/6q78qx44d8/ekwsrKxj8e10JYW1vz17C01NTyw8LSsn8PU/eWv2Fnf1wa23uS99gU+FHc0pWvkP7wtPdGpLy2ScpqGqW5sy9Zlzejlq6Q1ekuZUlbTyR5bBJaY2P6oHR2SiwWk56eHj9WZGZuQXr9TIBWS/ug3PeVRtn+wz45ti0hBx4ak+e/Oiblp0bNVewfGJHCsmo5evKMFOmSB6++tdsqucFGT1xZ3yLHaYzNK5K8onJp1cI1d/RKQ2uXpWto65bapg7JLSi1gtZrfFtPWPMetfR5xRVSUFIpxRV1elyfVDe0yr6Dx7wL7ezXY9t1X6306Pku5iZtRuRHpTqVXyxv7z0oh3NOSXeE86R+RYD88Ni0fwdFHnroIfnQhz4kf/EXfyH/4l/8C/mX//JfSjwet31UYO57cXGxwW12dtassaWlJZmcnJTBwUFpa2uTmZkZEyESidjfiL/Z4uKijI+PG/RYr66ulkQiYenC4bCEQiGzmMmHPDmGc7zXobm5WQ4ePCinTp1KXgdheWXVrFIHfu4v68dO5smLr7whbd36d7/Mf8MtXZzcM+8ZBJu3lkhbVd8q1Y1t0qT1tKi8Jmu6bOKcHAvwSqvqrZ67cyehRUV56qmn5I477pCuri4/NgNawyPS3DogD3y9Vl75aY9sv61Pdvw0Ls9/Y0BKTyUkNjYqjW09cuJMof0q5hWXy5HjuXL0xBnJLSyTGi388dMFcuDICdl/OEfeeGuPnFYw7Tt0zNIdO5UvR07k6v7jcujYKXlrz357IVCsF9uoIAN2XDgXcfj4adm5e7/kl1TIwaPH7QEHZoWl1bLnwBGLfzeghaLDk1JQWiU33XyrguuAxEam0vZnQuujH/2o/PN//s8NHE8++aQBLD8/3/bNzc1JWVmZrQMn1k+fPi3t7e1SU1MjBQUFts06xwAmIHfmzBmLa2xslNzcXKmqqpKGhgbZs2dPEogct3fvXunr65OSkhLbz3Hl5eWyvLxsad6rAGg/85nPyAsvvJBmdWVCi793WXWD3Hv/g/LDH/1Yck7lWfwWuN4fcd87+mJa5xqs3gERDIvN/D2ATGVdi3T0Rs1iLiy7OGh19se0bp+QM2qoBGGZ5h7yS4+lFQxBaEUUWi1tcfnexwrlvuvr5LnvdcjbD0Tk55/skYKjAxIfH1OTrl8OKJCwdM4UlcnOXfvsxEBo175D8uqOt2WXWij7j+TI/kM5UtvcIXsPHlVonTZ4vbXngIEpRwG2X+Fl0KqoMeurvqVTck7nW7p9eo4XXn7NzgHcXnp1h8bnyEuv7JCnnt2mUKnc9M29GJEfNxBA5haWqsVVYubr+Sytl19+Wf7pP/2n8md/9mfmHv7O7/yOWUeEhYUFycvLM0ghwPLEE09ITk6O/YgcP35c6uvrLY8dO3aYRQUAuru75cSJE7Jv3z557LHHzIIBXhUVFZY3Vtobb7whO3fulEOHDklhYaGUlpbKgQN6f4uK3nNoAWQgC1wvZGkh7u2b+uwQf7n/hlu6OFGPcM9QuwLI/a0upPDAmFlZuIYsYcJm/5akq6htVu+rWyoUfNR/LD32XbBNa3xqNtmmFRkeldaOAbntcwVywx/kyv1fq5OffLpB7vp4i5Tkxu2NIierrGs28OCqYV1Bacy7fK3obFN4fk2J4wY0tvdKXXOnuZMUsl1vTpO6i1VqWdGGRdqGti6jNbQvqawzt7O6sVUKy6vNfQRe3JhyvUGotTu06Zt7KeIGAlTa6zL3ZUILy+K5556TX/7lX5aPfexj0tLS4u/xwtDQkAFramrKLClcOlw8LN6RkRGz0PgxIR0B62x1ddXiARRuIOukjUajZjUDQ36ESIe1BvjIAwi6fK6EkAktxI8CFYVf6OAv7JbeP1GvnbLtzybS8oNO3a5p6jDgXczxtGvy9+fZYN0d+6HZ+UX/8VkfVlbXJKKVM63yRzWzPiVv16A0tw1IW+egdPYO21tFlyYyNGEVmhMCGqvcmg99c7ztyWQcBWFJo3tU97POcSxJy37O78rAce5Y7zwcM24umjsXej8fdqA1OpGyJly41hvbLyWs6jMWGkiHFuLvvgWsq1+p+n1x7WHIQYqlW0cf6tf/sKZ4PQ+kEL9+07ML1s+oJ/BWxyk0qAUZ8hRCuk13iMx0l0vBAntimxvA8spSr4p7Nrfw3rpfV2vgRWI8MWGWVfrfeEtbyq4PdevD0h0e0odmOE3JeP0FzNz3vsqsLoWDWnZXqkbHZ+TcWWrku6RrLNCROTyIS5jl772lLWXoQ/zKbaSBK1DxkTkZ63hdZpp/INPtd6t+dkVpruteORd5SCT68Luj0L0iQ4f86n7tBKz70YlpGRjJ/nff0pacLtgQf0WGyAMiY98Qmf+pyNxdV55m73x3RN6T39XrV3gFOmhuha3wQQpXNLSol6urZ/VX+KysINZXRdZCD8vayDdlbeZeWZu++4OjmXtkbeI2WQs/JstLa3ovvHtzrcj9jbf03ulq/O27YqG1tLwmk9NL6jIsmkbGFzxNqdHR9YDMD9wsc2Pqjo3+5IOjsZ/K/PD3Zbb7YRkdW5DRyeXk/dnSli5WY5OLWseWZVF/AK+mcEVCa2GJ9o0FmZhakoXFNQPYwuKqTM0sG7TmFFoLCq15hda8VmZPWqGT6+++FrLEnU+kX1DoLIxl378pcbxCa06hNaYAH5tatgdvSx9MTc6syvySyPTcWtb9mRrX+jQ1u5oW5wA2v6AuzHsQGLY2PT4mK0ta8EsMWaEVHNB6OcP8/LyNgyNsdI7VtbN2M6dns3cZmFlUaHWuh9bcyF2yNHGPLI6r9aXri/760uQ9Gn93euUPiGOWJzfYr5BYxLrJsg/LJ337rrTtTM0pVOcSP5aZxJ0Gr2xpDGpZ4pP79Hq2oLUlBKhq6tvkkUefkPyCMtHfeZld0Poxfy5r+onpFRlMTElnT9TgNZ7x7AAujIONAp2YGf7FMDTGvW40fpXmG5QtxPt7ZM9TD8q2O78rr99/lzSXF/t7Ng50pM6cGSUNWgCFAbcMrN1soHd1cCzZRoExckeOHLFhJ4cPH95wGMns/IrdRNgWCvXLW2+9ZYNtGYLCuUDeYs+DPrTuVjDdLRORb8tQ140y3HerJELfUQjdI8M9N8pI+PsSbb1B4j3flAUgphUfoAEBgLagoIl1fEN6W28yQGGtedaQvz56p4wN3O5ZOL4A4Fj029LT+31Z1jzIZzz6fRno+5aVxfJWmLr07J8a+J7+ob8tfa1fleHoj2RJ0zmLi/0GJdX0wI9kRsvnjnWiLLPDP5apodtlIfGDLWh9wAV05vTH+5VXd8if/umfyo/vuEtKy+ukvLJBKqobbX8wPV4L6St1349uv1NigxNmpaWn2dhQABqvvvqqDXhnLOubb74pJ0+e9Pemh0mF5sTceoNkYmRYtv/0+/LA1z4rj9z8JXnwxs/LY9/6qvQ2N/gpsgeGfzFeNhiS0KK39ttvv23j1VpbW2VgYMDfkz1gNTFjQEdHhw1LYbjIRgHY7N+/38bDPf/88/L4449nTY/xhQuICLW1NTaAm3FzgI4xd4TV/odlPn6zWh53S6LvFqkv/Zj0N35RQg1fkGjn9QqNO6W58CPSVHe9tFf+rdSWf0H6W2+RodC3JNz2FWmr/oKEu26RrsYbdP9npKHiizIa+550131Ruju+KUM9t+j69dJX8xkpLf64RHq/I2Ox2yTc+RUF43ekr+XL0tT1PVlSqIVbviLdTV+T/vavS0zV1fA1O89k9FsyHvu+DPZ+U1orPiNlFZ+TqqJPSHf7TdLb9g0JNV8vPc03yFD/rdLT8FmJdd4kTfl/I9H+22R68PvSU/8ZiXbfKmOR70h/y43S0/gFvY5PqrX2A5nveWQLWh9gAaXJmRXJUwvrrrt+Jrf/+C555tntsnf/Edm996BByoGLdJH4qDz40KPysFplO97cJbffcafs2Lnb0gQBR3NMtgkrsXYYiE99J1D3t2/fnnU42EbQqjqdI6/ed4cU7H9bDr34tOx/7nHZ+8zDcmLHS36K7IHB//AoGJLQYqzaz3/+cxuFD0Wbmpr8PdkD5iKT2pEhVtD5rDNmGWBwL4HjGDibzToDWpMzS0niT0x4JinmKAN/m5qaLZ63hwsDt6gFc5sC5KsSUhD1NnxJJmIKnK7rpLPmc1KQ84fS1vh1CTdfJ/WVX5S2qs9Lc8NXZKj3WwqMr0iLQqmt6UYJ1X1KunW7XsE13P4Vqar5gjTXXycDnTdLW97fSEPHzQqmryvErpNQ+w3SUPoZ6dFztnR9V4F5s7Q2f0NG1Mpqr1P4NX5Dz/8Nqa/5pMRaP61lu15NYPK6QU35L0tI82xsuF4a6r8iXfU3yKDCsVRBFG2/TvrbbpCuuq/I2PBPJdpxvf4CfV7CHV+XusK/kIaSv5WW+i9KX8dXZXH0ti1L6wMuQIN7uP/QMfnWt74jt37z23LzzbdKDrOp5JVIYmwuCSOWtGMR/9gTT0tza4888OCj0t4VWte+Rdps0KKuYmUxJpbA+Nj777/fBu1nho2gVXJkv7z4s9uk+PA+OfbaC3Lk5edkz9MPy4Ftj/spsofe3l6prKz0t7yQ5h5CUmYL2Iy75wKDdS80PxP5kS+T37322ms2eHejMD23bDePy8ayYmYDLK3bb7/d8iAs9T5k0JpXFyuiYGgs04qvlgpuWKL/RpmKq1XU8iWJ9HxLrZSvSn/XzRLvuFH6FAwt5X+jltZ10tf1LYn1f18ttM9JpwKvv+1r0lHxcSmtuk66mhQ2xZ+S9rLrpUutnMHuW6S15svqen5T+tU6Crd/Q1qab5KBrpukQyEXUrDFu29S6HxR2muuN+uqrfJvpKPxy9LX/FVprvqsmrk3qQWmVpqWKRJSq672s9Kp4OrTPCYi6taqRRVqvVFd1a9JV/uNMhq+RUY0rrP2C1JT8kkZ7PumAXpm8HtbltYHXNSP2YWzcvxUnnz/B7fJ9dd/Vb705ev1B7dZTpwuSIMWmpk/K02t3WqR3Sn33f+Q3PfAw2aNTUynnh/cQzycbE3NcOHFF1+0piOMGaZIwvPJxgmANT67PpNwZ6s89s2vypPf+bo8d/u3rF3r2dtularcHD9F9oBhxHmDYV1DPBTd7MBe2sAuZhAw1GQ2gvOF5eU1u4FzC+n5ugb8RY0Ovj3MbPthaQ3wE3cnG9GDadbLy4P2qMXEj6S/79sS6/mmdCiARqI/lpXJnynwvibx0A+8NJq3pQ/k4bV5/cw7n8pr0/LLNu6lCaYPytq0AtuZ5Q2ec6shfktBTaqlxBDX3tCgPP/Cy3LiZL5ZVEFgWTp1Ebt6otLW0S8j4/PS2NIl8aHJddDirX22QFMOsGJKI+ZlY9YQ11STGea1PHMbOF11Baflqe99Qx76xhfl0VuvlxM7X5GlxQV/b/ZAMxXtWsGwDlpXQqAxnj5ZLFfXzpnJitU6v7gqo9O8PXxQFgZvlfnxewxcl1UKCd7wTQ7dIYu8dVRYTCfuWp/u/ZCWbSHxwy1obSkpADWhUBoenZX+yLAMj8ysgxZWFQ3vuJS8NcTyCqYZGfca4d+lTgNpYWpsVLqb6mQ4GvZjLj5ckdCiO8TcQsrfHp/SG6/LhFbUBJ1LW++Qhf5PyDwuYvymy6oFNIDUknNxuh1M876JckWuk9m2n8jI2IKMTC7LiD6QW/pgCysJGHndGJY2SOMpuI6oXzNzK1nbsq7UcEVCywX6bNHpDYsL4TLOLoqsxA7KWv99shZ5UvXEB0uhh2Q5fljm5lcN7NyTLW3pUjS/uGJDp662cEVDaytsha2wFTKDzVy6paBoS8sWv6UrWXzLYHp6RqZnrnJt5hreyXVe7LHv5bnOo5nZWfUu5kwfGp1Sf3hG/eGZlaSIG5lU/5dGOpa6PcabBk1n0vXkPl2OJtNm0/n2vYeya9qMrpDyXrL8v8mmr/fyy3se3H30ljxXDMGamj+rZVvy963XGIPk056/gILXFFgn/cDYvIQjgxKJxiQSievSV3D9kuIGPLn1bHFBXUqcrkddXGQguc4yqFQ6FUs/LrmeLc6t+8swx2Y5JrxRPv65vP1s+8vM9Wxx2Y7J3BdczxanCkdiMjAwZD3z0YcSE/PS3T8oLZ0hae+J6vqAPghLMjG7qg+aJ9YHRmYkMjAu8eEpGR6bS9ufmEqtp7Qik/qAzi55D+r6/dm0omnPad5rtp49jdOKTC+cs/wvlJ6yemmy70/JO//MJvLcvLSyzq/KzAJvb1btNbWdR9fRRucI3t/sWrE0XP+0wiCYzyQDaPWHZaO8L15ePtxv7ov3N0rFB0U8z8PItK77ccCqPzoi+w/mSElFnR6/ZvmsP35FhkZnDWrrr1+fJ72u6QWep3O6zjPlHW/nnFyRaHxE4vFB1dBl1LAvt54tLqiLj4vpesyPY5m57m2njonFUvHu2HQF49z6kEQ5ThWNeetBxbLEBdN5+88v0rwz8QGX9evR6KAMDY2o5TZtXbI+1B0alLqmTnuo4iNTUt3QJtHBcXtAeChmFs9Je3dEtr34irz51h554cVXbTgA6XmISTMwsaoWGA9QSpNaIWPDk9LS0S+Nrd0ykJgWBpJzDA8xsnWtdMgBKDo4YRWO9WB+mQKEPeEhqW/utF9bl4eXr7dOGvJhf6tC2Sq47suWH+KaATNlDuZJPiyd2OY8Lj8PytnzBExd8UXpjC1IOKFWwfSKLK+sSXxsSYYnloXGdAMaYFPN0ri+uCr1fXN2Tydns+dLReVNUFNbr3T1xWVu2buP8ytiPzxN7b1e+fz7jNx95zrdfUpeg12X9zcgbfBcXF84Pmbn4u/e3N634TVPaHnj+jwMTwIt74eltrFdXnr1TTl24oy8+fZe+3RcQsueAp93PVhZDEXheZtaSM+fMtc2dkiXXhtfL6/R5xT4eceuKLSWfWgNqABXNlHprzx5YLkIUZl1GfUVXD+vAMB7rsEMnW9fujxw6bpaekNDCRtORH+xD3WoddUbGbbPNfHtwV37DkufbrsHl4e4sqZZcvNLrUKczC2U7S+9JmcKyuzBJ81gFmhxHA/ZsRN5+utaK1W1LXL42CmprG2Wo8dz5UjOaV1vkfyiSjmdVyJFZTVSUFwpB/SBpldvsW6TT/DBduIBjg5NSFlVgzS0dEtbV1jyiiqkur5VTmj5yKu0st6LLyyz8+QVlsvxUwUazy999grH9fBh2KLSGrsflAuIU0kBO8eWMSi1psksBr6CXFJea0DcKM/5pVU5Wj0pr5wZk9ON03Kyfkpe1fXtp0Zk28kRKWufkeLWGanunpWDlZO2f0/puKU53TClcFu2H4DMfIFMKDaq1ssxOXWmWE5pWfmbVNY2yRtv7raP4haUVNl9LNWycq+47zlaZv7mZ/R+lFc32odx+ZuwXqvXyod1uY/TAWjwN8D6OXG60LuPmjczDPCDFiyTl9b7ETNo6TrPAZA6ePiEfYD1zV175dXX3xI+AhK8Zx60luXIsdMGpsz7yTYewTPbXpQnn37e0rgycuywQisST2gF1gddK2hQ2UCxTup+bKgL7UdqzcQHziP2B9LEMmXW0HpFswnrR5eRQBzrSen+jTX0Pktd+E0oCC/c00GgNT9vo2kMWrh8fFb+xm/cbBV+YnbZHgQeCB46gAO0eHD46OrJM0UGOAe2jaBVx6ft9TiOp8K8+fY+gxXgo4JxzhdffkP27D9sn7mvqGm0SuVVsDNmSTiLLyjOizXB9xVxE4oVHFhH/Erz2fzc/DIFT7VBEhCS34HDx+WV13ZqZS3bEDDkxYcpCrWyYxVgWVBeQMjxlBGgdapls1fLTvkLSxUMev5s5URYTiVtMwajZ08kFF6j8tCBYXk5d1RyaqfkBQXXU0cTBrDanjl5QWH20ukRef7EiKXBAqPyZ+YLtPq14vOjQLne3nNQDh09JRXVTXI6v0TXT0qFAgyXjHsBmFjyBW4+grlL0/PR3INHTsobO3er5dKuQK6XF/QHiesJAolnYcRBS+8v9wawbR5ax/XH6Ljcc+/98vqbu+SV13dq2UezQuvweaDFfX/uhZftY7ydvfENoDWgAlxBpUMsqHXwyqZ1kErBJymFRdZ41YXAFFQSTOdRdhhlV/iSNZRS9J0pYgI+2RXOEhcU7XBAa0bdQ2aH+VCPuodtXSGtnLneL6I+7IOjM/aQUBF5IF7f8baNcXpr93570H98508MXLNL3kObzT0ELOSNJYV7AByx2Lr6BvSBi9myoaXLgMKn9O0T9loJSVujwoLJdCGCom0IC4oK1toZtsqIRWTXo+5FjVYqKiLxWEJ8GLZSLST2bwQYoMWvOeDGgsNSwVUBCigUH9W8w1Ku+dRr2XF7OScfld2onLiHbZF5iahreKZxSso7ZiWvaVraoguS3zytltasVHTOSkt4Xo5UTUqRWl24hg1985LbMG0uZartK6UJvYZ4YsruGX8rINLU2mPWF/caiANf7gGWNN+r7PO/FgSM+dHAEm5u6zMXGwuNawZukYExuxfuXOQfVre5ub3f8vfcw/XAQoBqvXvYIS+/usNACrT4Ank293BU3UN+CCh/JrT4m2Ht0iTQq+I5SbmH6dAy18IHVnD9/FIYZUDK4jLWs8WZ0vZngVUGtIBPJqTMclJgODC5uGwWVHbQeApFVSzdepqG1MUfsqUT2xdUJLVMHhdYDylcUH/EW6bpPHEAK6RQCqs15ZamwHooEpeBwWGbbIEPEltDvAMXb2zCWjGHxmb1IUn9wrMdU3eMSkKa+PCktT+wnwdzZMp/8DKl+8l/TH+lp/Sh41jiyRvoeA/dsr39cXEs6f0ezD+rNC0ya4yl5s05vHJ7eVBhyJt8qASUw2vkzZKf5bli5+WYaU3v8qSM7PMg7r1dJY79nMfdK/LgPkyrH7207InPYy0vr8rKiifWZxeIc537Vm1sF/LivXRss76gaZJ5LQHrwL3mnP49s2vzy+LuLXG27d8TS+uL63T73L3hmmypFo+7nuC9wbLhWO7ruv2BdAl9Hmi7c3G43ZH4mFrpJ6Vcf6SmtWzkk3aciutKjOvzkuVvzz7uP+fmb+P9Xbx95EWbVjiW0EqfzdLKJg8wSQEcX0kQZRVAcstMefEOVsH1NGjpehTpejZdEqiCWgcqT/0m4OOWTm5fME22dJuVwsvB6bxSIKm8tN66UxJevgaHRmwMIpMnfMje9MzoQzt7TkamFSy6Ttzw5EpSxI9qPMvEVPY0G4l0Lq23TD8uuN+Tt50et4EC6bLlkYoPrKely6b1ebJ068n9fpwX7/YBvRVpiy3LgepFOVy7lKYjdSkFtzP3B7fd+qGaJTlWvyTRUe9Hwp3PKb2Mqbhg2VIKltvbb9vJPLy4SxVv8jLjeH6Uh6K/YevKGRTP18Z/o+zx5Bcf96GFpaVQytSGwFLQbA5YmYDavNKgpUsDlpPGeaBKeNJrcOvhoDQ+dB71qyWdkgefvvMJ61uFFb45qYUbUN95NZhVWGHrpdAyBdexrtI14EOLGSY+ZG+N+PXibZLKbWeTvXHKkoZfv8y4d6p3I89L0cWWY3HlnDSE1+ThnGV54tTl02MnluW5M8syOHlWZhezn/takllUGXGIZ5C3pJnxo/qD6iwta8BVOJmC6742glZ2WKEghDK3N1YSVr7SYJUUgApAKwiqDCUBtQ5S6vqnCTAlpFeX2QGU/SOo6xX8iDPr65UJM0+DGyobzPoUSpkKAqxP3cP4UMKgxQwTqWE89knkC4Rzm59naytshXcl6HN67uz653Bp+ay5SZFYXMEEuHytA1ZAA0FtBl6qQScF0waKBaVgygat2KACVpcR204BKwitEPJBlYRVUiOmNFixrdoMmLrPI77i7q0PrVc4XbQxehq8gAZMvQqh7IobnLKJfenQ0odgvqxEZo4dlunDB2SpPX1qUwJzWTGDKBN/HT16VLq6uvw9XphbOpc2rQWTgO2vWZXD9auyp2pVWuPrgUjPVuaLZ0bEmZkZPzYVsCbW/MM4P/P3MLUzCk50fzHz2WcGZpO40ISHvCFz10Y7E7M3UobOzk7r7EYgH2Z+desbhYuZXPHdDJu57osJdPhjdkn+lkyrzZzeNJq6wPcSVi/ydEztlDkvUywWk+PHj8uhQ4dsXrbgvV5Y8qAVBVoOWJlWl68UtNItLTQ6NqGatIZfz2IakuGRMXVPElkBNTg8IkOJ0UAc6RIGpbi6NEOjE7buBKA8jXiw8uXW04AVUD8KQMtZOv3xUQkNjKlVlZAuhYMHHd2PIil1B9TlK3O7KwyoWB+WTgURy0x1a5ouH1iIdbcdGZow667bB5VbeusDJgev9YqberMqZvc2Ca2lznaZeusNmXr7TZk+uFcmd74hK0PpE/U1NDRIXl6ewYKJ7fkiRxA004GKTcCs/8K2BfmHX56RX//xnDRF059YIMT0y3QU44MXPOSZlR2T30GLuah5YOlcxiypfOgCWAEKysV0zFQSIMIsiyxJx5JyMjf91NSU5UU8byAIXE97e7tNNMa816TNnPd6Yj51baRjP+UgLWWn3FQgroFppUkzPDxsacif9LW1tVY+zsU+B13AwbGUkzhe5wJF8h0dHbVrZBkMxJEf8e56HSCY/rasrMzurbtXXDfzbHMeZoCknwv5s00elI88+VE43w8A9xwgca8zAz9iBw4csB80fohIRzlcAEArFwktJnvEFXSBH4lXXnnFrg1t27bNJpV0AWiFrB9QTBWElsrauVAmtIIaMjAVl5RJQWGxAWt8ckoSo+PS3NpmeTpwsRxRuA3rvt5QRLp6+gxcCY0bUeARn9BlVPNsau2QgeFRGdbtxDijSSalTytieVWdlXdwZFJKK2ultrFV901LfHhcokPjElaoebDyOn2jWGJSmjr6pLy2WcqqG6WkqlE6+gekUeOiI9OSk1skZbUtEh6altCgnic+Lv26RF2REQURQNJ8dX//0JT0DWiagYlkGta7Y6Py9v6jUtfWJ+HEtPTGFYiq0PCkLfsHJzRf3VZAhYbI1wNcZ2hIzhRXSnNXSM+t5VdhsbHONdAh2KSASskDVU/IX260rQL4SWhhZc3l50rnv/5fJfzRP5O5kiJZbEr/QgYVMhqN2qyFPPjMCR+cHzpojbjQP3JW/ss987Krcv1siECLqZOBVlVVleTkrJ9yFfA5aHFuBx0CFYhfd2DE2wRUUVFh8VwUlRqAYB2yzTnYJh6RngoNeCgHFYKPc2AtcG3sc4E5r921UbGBmwt1dXUGHuKBAOdgSmnOB5woD7M9FhcX2w2nInNu9jPjK8dxTCKRsHvMjwPblCNYVgc5AucnT9IwPz9lIG8C+WINY4lwLo7nuoAKxwB4ysIxAJS/J+n4OwAzzr1R4D5+8pOfXPeRARe4FmBCOsrD38eFywEt8jx9+rQ8+uij8uCDD9r94hpcMEvL3rb57mEGqJLACoAq6PYNqcXU1qFgfPU1yTlxUoqKS+XhRx6VEydPy09++jN5/Y03DXRALByNa7rXpaCoRPbsOyA/u/teaWnvlLd27TYdOpojzzy3Tdf3yA9v+7HkF5XK/kOH5dEnnpIyBdRzL7wor+14SyKDIzIyOSeHck7KfQ8+KvsP51hn6OO5hVLf0imxYQWEWlXbX31Dntn2spwpqpSHH39aDhw7LW/uPqjpimXHroPyo5/cI9XN3fL4s9ulsKJe9+fK409vl5MFFfL8SzvksWe2S1u/WmaxCWnpHZQHH39Wnn1J89z+mjz53Mvy2lv75e4HHpM9R05JUVWz7Xtrf4789OcPyaET+bLn0Am5/9Gn5OCJPLnz7vvlpTd2yUNPPCP3PPCoNHdHZWhqSSobOuRjf/Mpef3tffLWPr3Wp56TUwVl8vS2FzVur8I1rlYcVtlAmgxeBjPd72s9tGIKrYCltVBXI9P7dsnoIw/IxKsvqsW1Q5b7Ur9gBIDwzDPP2JJAxcSicCEbtNh+7Piy9CSyt5UBIR5yvvKxa9eutPwIQWhhZVGxCVg2VDKsAiozv+xUGCwAKiZfFKJC5+bm2vzy/OoDWM5Hheai+eIQwMIaIY7KDYypCFQMLBgXgtACnoCSAHip/Cz5xQd+lAH3hXMDBz67xPUBC6AARCkTkAZ2pOcPQfxzzz1nxwAFIMM1Yb3wuSZ3TgJA5Xwcw5sUrhnLicB1cn6un+sAWOTPh0S4PsoLGIEbcfw9OReg5txBCGQG7num1RcM3Aegx0dRfvKTn1jZXLgc0OJa3Ges+JvyARZ+bFzwLC2FlgJlPbS8ZbqFhTvoluoCqqXU0NgsO9/eLS++/LI89sQTcu/Pfy6ncs8YiCpr6mRQ02BRkdcbO3Zq2l1SVqE/FAqptq4eefjRx+Tue+5VoL0hp84USHl1nby+821pbuuSRx57Qp5+dpvB6q3d+6xDNW5gYmJWjp08I2+8pfVg3yF59Y235M1d+6VTKznWVWNbr/z0nvvliWdekFff3KOQOiBHTuZLXkm1HD9TIvlldbJj9yG1imbkDd3H9q4Dx2X7a2/LcwoswLNj71Fpj4xK7+CU5JU3yM3f/oF8+es3y32PPCWPPfuSfPe2uxRKz8gjT72gx7wpOXn6nO45Ij+771H5+cNP6r6n5dOf/5JuP6KAvFdefH233HDTt+Tehx6XXC3HPoVdfXu//PCOn0peaY3sPXJSbvnO92X3wRz5xq3flseefl6ttFG1yAbVIhswda1T3NSdVTG1WgPQOqcuFm1ZMzlHZPrAHpkrzJdzq+nWEb/ufH8QWOECUMmDbSK0P2VCC+BU9tBVImNHlkAFpdLQZuTCTABauE1USCo0wt2hEpEeeLHOLzsQomIBs6DYR3nZj0vpAEgcgAKKQMxVetK5QCdKd20cSyV35XCuJPeHCfjJA5E/58X6wn0jf5akI95BiLJzLezjGOLZJh2WGNtcD9fnAmVmH2Wk7Li6HE/gOtkmHkizTV7cX86FG4koA8cDQOIpJ7ChnO8kUE6uA2BxHS5cDmhxzYAWkPNDAIQpuwtBaEUUUkElrSy39EGVtLYG1TX0G9ePq2X18iuvSklZhRxQ66ito0tq6hhRcVTzj5vrR2fHg7qdc+KUrsdk7/5DUlSqFV0BdVStpvKqGunX+MSE/jDn5snp/ELJV8vt8LETUqduINAqKq2S6OCouodTCrcGG4lQWlUvuw8ckcPHc2VgdEZCAwoatbSOqIVz7FSBFJTVyhtvH5CS6mZ5XS2sV3fuk8auqALmkBQojJ7Z/rq6djlSXNMqRdUt8rZaSJ/+/JflnoeekPbwqHQPKLTKNJ2C6dW3D8ot3/2RvKx5PKXHfev7P5Z9OXny3MtvSmd0XJ7a9pp857Y7Jbe0Xra/sUde2blffqrQ+quP/a1sV2i9dSBHDhzPl7L6DoXYLmlVS+7tA8dk96HjckbB9eyLr+t6juxSEd/cE5HOyKB0KKCQg5dJAd2pcEIOXunKgJb/N5fVxLCsTaQaT7MFKlDQTXMBuFwYTecPwYpJWDursPDXCQ5SQbBd7oCl4Nq7XFjNKAcWBWUIQvtqD8AR6y3zb3C5AtlebNZ6m5M/WsFAWR2kgyHZpsXUNDGFVVA+rBy4nHuYhJYv2qoGh2kUH5ShkdEk8LCuyMNrzxrRZULzHfQtL/1R0vgY7V26j/arwQSzoYwmRZeG+PCY9EUHNN2YuoWj6vqN63JMwgqmyKCCcGBMOvpiBqeOvri1BfWpddI/MC49cd0XUvdOl93RMXXzxtXdG5b2/oR06XZHeEShoZU6lJBWVUdkXLrjU1LV0q/A2Su7Dudq/Ki0hcfU4tJjIxPS0DMk+04USovC7JSC6WRxrXTGJ6UlNCIdsUnJKaiUM+WN0jM0a8d1qGt5OLdMntj2qhxVS6xTy9DYHbNzdsbGbNkRSUhz74A0qcvY2q9wor0rqvmFtWy63R4aVLF0insQU2h16LoDV6dCKqiu/g2gtRW2wtUckpbWujatlKVFw3jSynJdFwBWoAsD4BoYVvgkl4BoxABl277YHlSwDdhyLLm0OAUUkEqTwgpQRf1lxOCl0PIFuMKMOhmdVWB5jd3Iawgfl16FV7fCoVvXuxQYXQoR1KHQAiAdah11RtlWKIURoJmU/pFFBc+ctOp2i2lcWhRcLQquzsFZaQZk8WnpUDUr2Nhu6gNcU9Kuauof8eJ12aEg7E0sWL5sA7gWBaenYQVjSm0s1fpCbQrc1v5BE/AygK2TgisphVVQfVHrGrIFra1wTQWDlnXS9FzClIBVSg5YSWj5sDINISwmH14Ay+DllIIWFhWgWi8ghYXlllhVngAWMmAlocWbtjEFFW/mVGpx9flyb+56FFQpWKkUTMAJtSOFkFObqjU8oWKpcAopqFTNvppC4yqWqn5d72eJRn1lbjuN+AquJ5JqVmilNKQQc/JgldKAycErpbiCK2bwYgm4klILlJcs66CF6xd8a5Yt4DrRRrIVtsKVFpylFVZLKxNc0QG0HlomBRTygJUClwctX1mhpQrAKh5cD1hYsYAyoRV2CkDLActBy1zCILBUzrIyUPlLYIWFZaAKKAUrT41OCqaGjdQ3uoFGAkpIY0BNfcMBDUlzUoPSYhpYp1ZT3Je6mqp2UzRdvdH10KKN4I477pDnn3/eGjw3CrwhO99r8a2wFd6vkA6tQZPnEma3stYBS6FksMqA06BaSEkpkDYSFlZK4wqxlHAHneiDFTFNmDvo9XdSqUtofaAGJtQV9NTjqztO/yl150yT5p61R1WRSWnTZSvS9dbwpIJKXTe1tJpDEwopT41qXTXqsiGpcanvn/DFeob60FhAowGNpK2nQ2w4KcDlBLiyC3jFk3LgSsHLU5tCCys6DVqAavfu3fb6fKPAG6eHHnrIuhi8Ww22W2ErXGoAWv3xIYVVLGVhOfmWFtCKZkAraV0N++BKWlUevDxg0YYVVCa0gsBSCysTWgFwRVURk4PWuEELYPXT+D7gtV85aJmVpdCi/QpgtVu71YTCShVRN1CXiDYqg5WqScHlwcqTgUph1BCAVB3qm1CxHJfadRpLqs40GtCIyQNYwgS0GhRWTh68hkxNCqgmBVSmmhVUTi0KJwS4WtW6cvBqY92HVquDFt0JcAvps8MbJN4OZr4Z49U5r8Vfeukl61sFwK6lt2db4eoPC8uuTSsFLVPSyvKXSWgFrSwPWAMJpyyQGvEBxTIpGt7TNWAaN8URwNIl4IqaJkwGLVUIAS1VH1J49aoMWL664pMms7B8OeuqxVezqgkBLFWjqiE0KfUB1Sm0UC1SYAVVo6BKqjcoBdc6jfpSeJkSpvqkFFxJKbhMg6Ym3i6mKW5qNim4fLUqqDzpek9E+mNDKWjxCpkOe/TToR8WSyAVDPS9oZc1nSTZT+dJYLcVtsKVEoLQ8iyroIXlK2BlpVlYiWEFTkKlLqFqaHQ0TcOjYzb+0MR6UuNJMcbQaTCokQmF16TERlUsVVFVJKEanpJQQqVLhtX067JPRSfQHhX9qlBn3BNv79pj06bWqCoyLS26RE263ugUnpZ6VR0KTUttaMpT/5TU+KruQ5PZ1TuRofHAcsxA5ikFr1qFVVB1CiyneoVWvQILNSionBpNcZMHr1gKXEmri+2o9GW6h3RGZNgJcgN/MwMWWEL/uCgTalthK7zfAWj16a9xfzRmnUCDop3Lk1peGf226AYB2HAbPXkWWEoJTwx4dutDI1nE28FMZTS6DwYa3QdQyh3kDSFdG+xNYaDBPdnorrI3g7iE6gLiDlpDu4m2K9qtPHmuYKp9ylxAXa/NsKAyBZBMPaMZGgkoYapJathU2zMU0KDU+ao3DajipoaAGntiAUWlKSgFVbOKZVNPWHpjgyloZfuEP3FBZWvCykyzpS29n5pbOiu9UeZmihq4PCm0VMAqpAorpKyR3kDlyywvhZN1eVDXEAXbtAJtWENqadGZ1JbrpNaWr0EndQeTrqKux/VY9xbRgxl9s2jTGk8HmK8uvz2rg/5YKtqxku1XJs8N9NqtfBdQVdvvqUatJuRZUGpZ9U5JVe+krwmp6nEaTy2xplh2j6ncUkHWrfAKqMY04qlLratuta661bJKSq0rVQNLBVeDSS0rVZNJLauk1MJSULWsU8RcwxaFFu5hElqMG5xVw4kPEFzT0mvkWrd0LUpkbHZNrZhhhRC9zn0X0IcP4BlSt2/Yd/USY2MyMjYuI+PjMjoxoZqUcTQ5KRPqUXialkn1QCZnZmRqZlamZ2dlZnbO05zTvKd5bznrL9G0agrNzsukr/GZORmbnpPRqTkZ8ZWYnJehyTkZnJiXgfF5iakifHh2bEH6RxekT9UzsiBdqo7hRWkfWpRWVcvgkjQPLkrjwKI0xJekTlUbXZaa2JJUR5ekSlURXpLK8LKUo9CyVKjKQkue+lV9S1Lat6jLRX+5IOX9Kpa987o9r8s5U4VpVipNMwo3NK0gROpyKghRrcKwzqRWnsl7+0iXica+EaHjKmruG/bU73WNaO3z+nBZn60++mqp+qLSQZeH/qiE08Ye6q/UoprW80trNkaMuY9Ysj23mK6F5XMaf3Zd/JUurmV1TS90K1yzAfeQB5t2rNgg7VeDajkxNIc5r9LBlQBcKsA1CrjGFVyqMQXYmIPXZApeU9MeuAxePsCmFV5uO7hviviAJmcUWAqrCdW4AWvWh9WsDKOJWQXWrAxMzEl8fE5iY3MKrTkJjc5L/8i89Kp6EgoteqIPzUvb0IK0Di5Iy8CCNKka4wsKrUWpV1jVqgxakUWpUlUatDx4VSioyk2LnvpVAVCVAav+ealQlSusgJQHq1kfVjO6VPVM6/q0AstvFwNWaskBKw9Y6or6MmCpXLeIxl76c3lq7gVaCqxerx+XQavP67uVrb9WWj8tPhDKV3qHJxakkwO6o/YJp8TEon1hh6++IL4WPTA6631AdO5sMp4vBTMv+pUuPoCwtLp+MBsDiBlQzAwOvCG91LGNwH9hJX2cIh1xyZeByJwjOBA7M/A29lyW2WMv91hLuqsw0JtyIToMn68LS3BQ8pUcgtDy3hIyVtBrcM8GrZEktLC0PFg5bQStILActDyx7stg5VlYZmUZtOb1+VNLa3o+aWUl1LpCQwqsIQUW0BowaGFpzUk4E1rDWFoL0jY4nwEtBZaqTmGF0qAVUWipKlQGLLWugtDCwgpCqwxgbQStvhkDF8AKQstcULOyPGjRbpZmZfWqldWr0FJ5lpYPrl6A5UOrN9DZFEurN9U/y8ErDVpWoRU8fDVnx849suOtPfapML5aw/QwfKqJb/vxWSc+gMq372LDU/aFHj6Vz1ek+SrKlS6uky/PBOsnLxSY3oQZCZgah+lPgAuB2UkBGm9X3UBtNysCx3EME/a5QL7zaokGqz95kCcw5DxuFgU68wIwgEE+5MusEZwvOOKAeKbhYckLEtIwcoE0gMblQRmZu4u5sTgn18LAbvazDAZeujCbBWkQsyUwMwXXx4sY3gozfQ3noJzs53rdyxfyoyxscy+4Pt4us01/PzeDBNuUjbJTPvbxMseBm3tHWspAdxtEx2XK5/K+mJBuaeEeZoOWuocqZ2U5aDkLKxuwcBGn9P4YsJBeTya0WA+GmbmFJLxwCw1YBi21tNS6mpxbEjoM8XNEV27Eu3juMH99xqUwxea4JsA97B5WkGlEQhMO6W3pHF2V5vi8QQsry7O01HWcEFGvTjo1bU1sRS2sRWka1edQM2yfVk2JtLFUtbE+6UvXawfOKcAUVFhbukQOWuYSBqBlbqG9ffSgVZt0C73GfoNWnwct60lvwHI959GwBy2ztIYUWp6l1WZWVtyXs7ZUCq9wPNCm5So1H6zge3hPP7dd2rsiCixvTqvcgjL70jJfcD6TXyrbX3pdjp/Kl2e3vWgfX+V7e+7zVEFIXKk6S6utH6hQwelYsECo0AS6dyA3aR/woAPuzp07rfsHHXGZTsdZKdmgxfxUgIhARQcKBKaxYfoW/gBUVpbM5QV0mJGT44AI81yxj3mwmEOKaYEAiptDjPKzJF+6obi5wVzlp5ykCQY3NY0LQMf1u+N8TAzI/GaUgTIx9xf5MiUMAXBu377d4pkjjDIxnc9rr71m6ZjHi3tDXpSFNFwX18v9JI5APPcbyJI3x3CPASX3OzhX1maCQYvpjAfV0lJgJd1DvTeDClW6Mxi0sLQy2rQMWgorNG6w8pRq0/KhZcBKhxbtWJNqib36+hvy0COPyOs7dsjs4pLJtWV54FL3EEtsYVk6ekPy8GNPyH0PPSL3PvCQ3PPAw3LP/Q/L3aqfqX56H3pEHnn2RekampGo/uDuyimQH/zkfrnzvselvH1AusbOShOuIeAaUGDpY/bygXz57s8elR/c+6Tkt41I/fCqbN9fIN/56WPyrZ+gR1WPyLd/ylJ11yOqhy3u9ZwqqYou+5aWg9asCbcw09JKg5bf18t1VKUzqutN74b/pIb8KLD6g0N9fPfQH5fo2rTaGIfot2d10KaVZmn5lZl5o2JDk3LwyAmzoPgWHuKT6vXNXbqsN4srt6DUvtJ8XC0uYIaltdHHT68kmVurYA0wy0ACpKgoVGYqEEAhuAn5sJKABhWJifeogOzD4qEzrrNkNoIWlQ8oYFk4QLKk0pIvlgxgZCI/8meoFOcENux3k/VR4anUxAEjzg3YOAfHuon+HCgAAmXFygkGrB2uketFHAfggBZA5JrprwfMOC+wAUBsE1gCSCYa5FjuGfsBHOXnOrlmyuSuizQ8bLijzpKl3JSVfZyH6yJP5ivj2ijLxYy8SEHL677g+mK5hvgUtPyGeL32FLR8YGFlASxg5QPLgxZtVSlYTau16NbnFU5My/xLv/RL8qEPfci07YXt9hzMzC+atQWwPGjNy5LuOJGbn0x7Pv3Df/yPhaljhtSgOJhbJv/8F/8fFv9/f+Jz0pZYkvaRFXUN9RlWy2nX6Wr5hX/2i7b/rz55nQJoXlr0t+n//vT1aXlupBu+9xNp0N/UitBC0tLyFICWgct3DxVYiDeT5iIGweW6W9hYRoVWv+caGrQMWJ6AVovJg1abKTXrQ1JqbaU1xE/N+e0+WqlHJhd1p/4xJ5dsG+EKUulZRhVq3aFB/aWISUtnSPi0OV8KtrTkcQVrXLW4sr7NyFlXVBQqs3NLnCuDqwLccJeIw51hG2CwzpKQDVqkJ28sHyoj2wRcMCokLhPnAIDMYkq+VGo32oD8qegsARluHPspp3MjiecclIM8ATDbnC8cDq9zs4As8ZwPkT/HIZcWyFJGzoOLh/vHfSKQhmO4FsoD+LD0ADGg5RqIZxsYcn3cW3cvEYH8ARb5cB8Q1wbMyD9oDW4mBKFlbw9NXk/3JLT0Pg/r/Un4VtZIWnuWPucKn3FcQnMLHbD89qwAtHiDOK0wCkLrt37r3ycB8Au/8AuSm18gPG0pKwsXUe+BRuYWFMnf+3t/T/7l//a/y1333Cc/f+hRs7LQT1U/UUvrjnsekEeeUUtrcFr6xpZkUD2f1/bmyD/5n/6pneM7d94ryg7p1keqoCUu/+7XvPP/wZ/+tVSGZqUxcU5q4qvywr58uelH95l19YP7npTf/r3/bun+25/9tXxfLTKsrVt+/IBaWpVmaVX0+9DCNQRYCqoKQOWg1ce6By2vI6rfEJ+E1oTnGiq0PGABLr8hPuAeem8Oh20mCJvCBvcw5FlazLXVFjoPtHCXeLtGg/zMwpp9WYfltG6jWb3LbLNk37w632hB/et5fcbZd7FyeTtlS5PUfHp6trOm8xVMa+n9+OXVzf9qX2oAXFvh/QnZoGWWFq6ha88CWs7SSnMPsbIctALtWUFoGbi8rg4OXmhhadnS/vpv/IaC6O/Kn/zJnxoUfuVXfkW6evtkRZ8J3h4CL7O0FFqnC4otzW/9+9+Waf+Hjp+LzDatMa1j/WOL0j2yID2jSxLXnXc98KQd+w//0T+S53YeETWC5C8+/mmL+6X/7y/Libp+aVFXsTJKA/yiNI6k2rQieu4v3vxDS/vDnz8jfVqPXftW7cBZcwtdm1alg5aewEGrymDlgJWysjLdQ6BlHVxxDxVajcHuDv5UNsy/ZcBSS8tcwyC0glZWNmjpvdl04O3WWbUCzp69RPnHZobgvjSZxZFJgnMbps329i2Z1pbr92PVnE+ZgTyypUOZAeslW7psIm0wXMyxmcoMG5X5nZwzM5zvvgSVec7LFYBWhF7rQMtcw1R71lDwzWEAWAatDbo6eNaWZ3GlN8AHLK65eVlUaJH213791+Xv/J2/IwVFxfKJT37SwPAXf/mXZrktLK8auMzS0luHpcX+X/+N35SB8WmZUWN9TH9gR+dWZUQ1PLsm0YmlZD+t3pFF6/LQO7YqPRNr8pkv32jH/+v/1/8lH//sl239F//nfyFv5JRJhwLI+mnFlgxcHrzo9rBsjfKf/uo3Lf0373hIGhLqDoZ5m7ig8ro7VPYrsICWAgs5S6uqn3asFLBq/M6rzrpKAYt2LKAFrJgCJzUfV7PNu+VNGshMqzbbqoKrjRlNFVxuQkCbxVRh5c1o6s2plTYJ4PDUOYlPeBqYVOlySOP0PltwzxhmP+0jmO0sL0V2rCrYOMw6cdnydXG4DgRcimB8UC7OuR9UENwTF5+5H3cK1yRbXk7sc+09BO4BcdmOcXHOXcSNCsafT6ShLO7Y811nUByTGefycmXmel18ZjqWm7m3mSIN98X9CGz22XD7M13WyxEctLxGeB9a1qY1bMBKNsK7N4cGrExoedYWlpN7cxiElucWpqytTGgBg7qGBuHbi//ul3/Ztr/1ne/KinozM4tqkamlBbRO5xfJ3//7f1/+53/xv8gNX79Jbvrmd+Trt3zL9LWbvik3qI6cKZH49KoPrQXpVmh1Di9K7+RZqQuNye/+F8/NQ//0F/6ZPLBtpwGrNu51LkUGLQOWB66msSC0HvSgFVpU+V0dFFgVBq1Zqda4qn4FV/+M1ITmpCY8Z1ZWsAF+PbRc47snZ2E1MmGguoUpaKXcQoOW357F59A8KbT6UrOYroNWo9qM6hJLx5BIY2RNmqJnpSF8VvoSZw1Y8/pML+kDzQMXfPP2TgIPPG0yPOysny9QmTi3q1RL+pBsFKioY/ogsqTiunYfF/gyMXlRaWh3ydyfLQBVROWm/eZ8d8ABwpV59SK+UOqOtWtQa2Azx6pdlHUeddf+Rpnt77aBdeP2s3Tl3mygjSrtHFms2GwBMHMfHVQvV7gwtAJ9tBRaG3Uq9aCVYWnp3z8JrTld6rW7nu9AC8A5aJWUet975Cs+tG3RdvXCSy/77VsLSWj9j//jP0lCJ5vue+wZUQMrrUd8p4KrdXBOogsiBc0R+T/+z/+3pf3t//RfpXFoVVrUkqqJLSqwFq1HfLCflkFL3cZ10Ap7VpYHLLWsABVWlt/4Tt+vko5R3Z6SBvIOuIVpje9JKwsBKx9Y5hZ6bVm0YxmwcAl9t9ABC0srCC0npltm5tI0aLUNnJPq7kk5VTsiNW1ROVwxJDVdy9I+6H0NB2hNTdM/SR/os0vSUNtovXkJC1MT1qGS6sM4LYbKEEJ9/TIxOi3DkX79hVmQudkJGQw3Sm1jmyxqxcBF4EEHWKwvzSq5i8qlPdD9IBhIRwWZ04eEMNTfL23t3RKPdkp/OCLxSKf0hb1jZ2dnrEIYYBRSy8tLEh2ISFeXnluvZWFh3s5NpSNMjsSluaVZljLq0Lya7YsKjrW1VYMAAnRLevysf2y2QN6WDmvi3Kp0N7XJ0sqaDEXD9uC6EAkPSDia+mwa94EyAY5xrUhydlnL3C+zC0syEB6ShcV08CwszEh7fbvM8jrKDwvTUzKrFYgA+Lz8VmRlUSvZ/ILEx7RSjk1Lf2ur9KkJzpGuvAsL/PHOyvDEnIyqOzU5yuD58zeG8wKBHx4Hu5FYRKrrm2V4fEohMKo/IOkfCXGBewnsLmfYGFrOPcxmaTlgpaDluYcZlpaDlsEqBaxslhbQcn/nZ557zuJ+8Rd/UQqKS6xfloMWMPvf/9W/kp8/+Ig8+uSz8uBjT5nuf/RJuffhJyW3tFZiU8vS66Bllpa6i2ppFbaEZdepMnlp7wn5J//TL8jf+bt/V773s0ekfVKkbnA5BS0Dl1pS2aB1p4OWAkstKQet6si8lCkPbv3Rz2V3bq1s231C/vyjn5a//tSX5O0TFdIQnfeh5QGLubeclZWytBRY6hIGodXsoOW/MXTzxztwZULLuYedCqx10OrUgu/cdVIeeK1ATle1yKsnu6W8ZVE61fJKgxb+4lJCHnnoOSkoLJPc47my9/XX5LT+kZqbaiTvTJ4czMmVxPiYNDXXyvFDe6WxpkCOnjgob+56TfJzHpeX3zquPj5NjKnKQhgJhSVvR6GCqEwKqmr0D1wjJQWl0t7jfX9xZsaDFo2eK1Nj0tLYKHwRpa4kX5pa26Wq8Iy0dPbZwzKnD5cHLa1w587K7PSI7DtdKjWV5fYyIRNazVWn5LVXnpOqmna9rmqpLM+TEv2VPPjUW3pDebN2NgmtOdX48IC0NNXK4b05svvoMamqrZZqvZE1zd0+BMbtuoCFnFuQPQ++JS3NHVJZWCxnqirlVGGh1FY3ylt7T0pxYa40VhfJqaICO3behxYVRxbm5Pie/dKq4C88mCvVxUVy7FCxNFSUSnHxSWnrqJU3ntwnxbkFUpBXKrX11XJoz14pKqqy63LQwmJbmJmQ/LxKqSg9IbWtLXJi30lpau/1Gon98i4u4rKp1V1bpfeqWIprmqXkxFE5k5cjBRV6jfVNUpl3St7auVuKmkNmvY2NedBaUetpaW5amkvypLuvTwqPvCYHcnKkOD9HyquKpbakVM6cypPGllqZW1qVRY55l6BlbVrWCE+bFo3wCq2gexho0wr2hE+5hh60PGB50KK7wwzgSkIrBS5riNd0QWgxYmxe4xmBcdMtt1j8L/8yDfNeZ2SgRdxv/Na/l/E5faY1bk4f3lnVtEJtUqva4Mya9I/RpjWfhFbv+Kp0jS7JX/7Np+Uf/aN/LG+fLJO7Hn7e8voH/+AfypOvHxQ6llari1il4Ko0+fCKLkuzQuszG0Er5FlZNWrGlXSOy+9/+C/knidfkd/5z38g373rQbn78RflwefekProXHJAdhBawMpkbwyBlu8WqjvorCx7Wwi0FFbJt4Y+tGiAT35eDGBZu5b3YYt17mFbZEae3XlG7n3utLx5tEDezOuXitZ0aE2apbUqa4ujUqe+ZKy5XB588CnJPZkrJ4rytDKc1vhOqaktl1PVnTI8EJYzp09JbfEJ6YyEFUaVUn76adl7okRi+ktPCEJrLByWYy8ek86mIjldXiSHjxfI3lcPSnOn19ETaOG+LKj1sqqWVHV5pVbabmlvrJMTOYVSXVYhJ48XCz0a5tV8N2jpg3hudVGa2+qkorlTju09IsNji7K8tGBWmINWT0+TTIz0S111g+w/kCelhTnSUV8pZ3bukS6tBJnQmkwMSUNTtRSWNkpDe4eUFJ6Uk8eOyOmKeuvlDASwDJesUuqv3s5yKcovlO7uTnnptTdk2yuvy6m8Ynlz73EpPnNMDu940SZXJHAOD1qTcnZmXrpr66S4sUWqCurk+O7tcvfdL0lzc4u0VZ9S6DRI/htlsuulF+TVHXvltOZ18NhJBXqzAdBBC6DoX1KqFHSAr7ymXrqa62XPsXyvkkx6Fq9r64v1tElZebkUqI7sOSjP6K//W/pru/fgMentbJa2qlw5U9yhFvOqncNBa0UhW5+XJ5X19dJUVyK5JcXSrXm11xyTV7dtk5de3mlWEJ7qewUtN7FfsrsD0jIDLnMPgZbea6+Plvfm0L09BFjem0NPZm0lYXVhaNE/C0t9ZHxS/ujDH7Z9H/3Yx2V+cVmKyiptm4Z4hvHM6oMzvrAmYwtnZXRerd05tcz1jxNXgnnu4bz0ji1JTN3CH/7sATv2H/8P/4O8duiM9Olj/Ldf+KrF/av/4/+UfUVN1svdDZpOWlxAS3/H06ClhnBFBPdQ3UG1sKpUzSPnpLx3Uv77n/21PPHaAfnRfU/KH/zpX8rXvn27HCpqlPrIrAHLJhP0XUMPVmph+cCyflkOWKZgFwcEtAJ9s6wh3uvqwGfF+IyY90kxhRYN8aGMr/E0hRakNnpWGkMrUtU5IVW96gKG1qRD3UaaKejaMKt/nFn15/klXtKHAzdxQl2AJdph9A82qib37MKyLC9Mq6Wlbhzr+jM+Nzkuq/qUrq4uKSzUbdMMF1b0V1krJhWFtiIq6dnVZYn1h8yFmVUXZ0iBMzvrPUgEzzXUB8WH3JRac4NDCS0DvbvVlNeHcGLS36dpvXaTCVnTfCc1vzkF3UhiTGGm16J5cF7yoh1mZcVrFF7QX9ThoTH9dVyRNY2bV5d1Tq+PykV61/6Gy7m0vGiW56pmuDw/ofDRytrofZ2Zlwqk5RjCysySzM4vKcRWZU6tTLuXWn6mQJmf14owpZDT68Q9JH/OB1Sp3StqrRkUtGLMqLs1Mkobkp53eV7PvySLM8t6v6ZlRn9UuC4sgnl1x7ku7g3HOjiTfkH949npOXUhsS70WjSeH49gedc0/5lZzXtOXc0Z3Eka9umzROO+/nCt0G9txSw4ygns3Dnm9ceFqV8WtNZOT08qzLiXet/0bzI9NWvXSOA63UuHyxWAVnhwxHcP3QR/HrSwsjxLK9Wx1NqzgBaWVgBaXsdSr4+WLbG0uLeuMd6HVRq01DL7lV/9VYNBUUmZPvMetOjmgDXLJ/N/6Zf+L9t/58/ukZLKWrWM/oH8s3/2z+Szn79Ovnj9DfL5L11v+tx1X5HPXne9fOpz18kt3/uR1sNJ6R9fkQEF1rOv7zG3knzueWK79Ojvf+fkOanoHZPf/r3/avG/9tv/UQo7FRoKH4MWbxHtTaIHrU9/5VZLd+udD0jjqBisKmhkj8xJae+EHCxpkbKecflvf/JX8vALb8nu09VyWOM+ed3X5U/+8uPSPLAodaEphZYHrlSfLPexjMyv93iN70lghbylcw89K8t/ewi0fIvL+5CrBzDAlQatjsFzQrtW+6B40vW2gbMyNus9YLS987BN6YOOtTOrD+a0/hGxCnjQeWBpa6ItCRCw35a6TQWdoVLpH3xG/4BULB5g1xDr2p6mNM2CPvzkR3sRbpLlq9vsdxWKpW2TZt5Pk5Q3xg1oUWmpTFRIy1NFeSfVqmA/gf3kNa0PpQMoeVpZKb/mSdlJQ/sUeU75+ZOGayHd1MSwVKlLG4mO2D0CAATyNGtSy0XepHVlJW/cVH4IuHfEOZeVe01arsW7j9w7PVbLzzHEpcro7n9KxLsye3837w3jLGXmb8L9sLSzBjbvx8i7t5SBvy333Ssb99krH2Kfd27vvtgPjt4X8rdzaJoFngvy0HVXVspux+s9IR1LB7DLFTxouTYtbwI/oOX6aKWgFejuEIQWz6UqDVooCS2sLb0mrssHVhBav/wrv+JBSy0tD1pe3yyEBX4k54S1beHGXX/D1xVY/9zSn0//y//6v0lLRMuuv6uH8yusWwPx1934TemeOCutiWUbwtOl8Dpc1ib/z3/9f9r+j3zi8woptYgG1cIOdH1oUQvsU9d77uqtd9xvXSCq1B2sUXfy9geflYdf2i1f+Pq35cMf+bj80Z9/VPbl18vHPvNl+eQXvyZ//Jcfk2//+OfSMrjoz9vl5psHVP4EhLqe+uQY8iytFLTcm0MHrZRraB9y9YHlyQdWWJXpHjLxQVA0XWX7hDkPGQ/p5RCwcoH1bGmCCgYskWxpnIKVgbSIX3WUbX/m8ZkKWgRU0HVp1DIhrK2RV8rl2ez9cmULnued3muuy4UL5RUM2fZvpIs5R6aCf4PLFRy03PCd4BAeA5aD1ui4gSvpHm5kaQUsLG8IT7BNKwWtWfUOSHPg4CF1gV+RcCxmLqDNpwW0ZuZkam5B5rVi5Zw8Lc88v01eeOkVefHV12XbS6/Kcy++Is+i7a/IM6qnX3hFnlQ9/txL8uKbe6UnMSuhySXZe7JI7nn0WXnshR3qno1J5/iqNA3O23xajYNL0qbG+du5VfKzJ16Wu596RU41Dyi0Vn1Ly2vfYvuVoyVyxyPb5O0zdVKt+3AJGfKz60yt5FR3S15zTJ58bb8cKWnV/JeloCkqj7+8W17Zd8omGKwPTymoUh/I8Hq8Ay33mTLPympWaKV3cfC+fp3WP8sBy4eWa4h3VhafxM9qafEHX1SXAq2qOX+tBSoX1g+V5UoMlAur793ou/RBCl6b1ojfAO+AlQ1anouY6u4QgJYuU90dghaWD62kpZUOLrSqLon+5svcwqKm8ycB1KVzEycVXItqgjGMZ37lrMzrb9Scakar3LRqSv/8E/qIji+KjKqxnlANzp2zNi16xPdNrIgaTxJSdYyuSMvQgjQPLSpYFqQB62dALakxkTZ1AZt1WaPbVbEF1aLJGuUjC1I7pLBTC6s2viyV6hZWhtQ1DM9K3cCyxi3YWMaWYU0TX5QadQMbYnPSOrxsEw/WRxRYWFj2CbKUS+gpZWG5L1J7X6EGVAnhi9N8yt+WIa9/VqpDqQIr6RI6YHntWV1qafFZ/DRoMc6L8V6IsWCY8QReZzOmDHMeCyMYMO+D1hKBiocr8W4HyodV4tyf8wVcGAb4cm0suSYCEGNKGNwXXKJgIG+XLhjI61KCcxezBc7NH4LysWSMHwHQurF+LuC+Zf4dgoG/xzuxYJy1dLWGJLTU0joftBy4vL5aPrRUHrTU0lJlQis49jAJLdYVRpnwQgBrHbRUboqaMdXo9JwkpuZkmDm1VDYJoCo27k8CqOofnU92eQBcnYlFaVeatQ0vKrQWk9Bq9KFVR3sTsFHwVCOApdsGLusGsaDwmrd2LAOWwgpgeZoxVYenFVYqPoCh0Kph+mbThFp4KWDVq1XlWVleO1YatHxgIbOuVA5a7UlgqQIN8A5a3jIALV9p0GJ0vQtUVga3EpjJgNH8jNQHXozWB2AMxmX6EgYBAzyWvEViehLWefjJg3UG3DI4l0G9xAEOKj+zFVBBmY2APEhH3swOQOUkDwbzAhYK6ua7onKThuM5jnh3Lgb2ZgbKynEE8nczDJCerwoxkwAzIXAOykiegJtpV9jmXNwT0jHlCoF7QXnJm3NyLDMjuHYx9lMmVzZmZKDcbGcGZkRwFhbQd9O20A7FjA0cz/3jHMyiQABO5Me1ADbypTzMtMDfiut07XYMWuZ4roP7zv3mWNfexPnd35Br4O/NdXEdV1vwoOW5hx60gu6hkwJL4RXsYOr6aHng8uDluYiqILQMXF5P+LSuDxngMmBpHMoGLIPW9HxyuuUUtGa9mUsD0KK7Qy9dHnxri86lHrTUGjJLC2CpsIIGFgxaWEtAy8CFpaWgcgJYFQAr4gErDVoRH1gGLe/rPTZUxwcWbVh1zsJywNKl9cfSdWt0DzlYpbuFAMtcQgOXBy33xhB30GvLcm1YA+uA1Zn59pAH2QV++YEFgalQ+MYhlZUJ5niojxw5YrABWuxnKhLmU6JCATUqCFYC07gAPaY4oSIx4wCViorIsVQ05oSikjIdCYUhPyo4eVAOjqEsQITzsx/oUSaA44AALCkjx2UGjncWC5XUgYM8yQNgM3cUAGCdcwCpp59+2qZdIX/yptzAjUClp8zsYxoZjgNyXAMQ4HNs3CemdOEaKK+DRWagzM5ixcpx0AJg3E/uK8DkeEANhFhyLu4F5ycN5+IaOIa0QArwk5a/EeVj+hfy4nopJ/eUsvIQkAf3hL8Rxzu4X00haGml2rM8BTuXOmvLa4wHWCloOXAFe8N7Fpeb7M+3tnx4edYW8ApAy4dVElgKKYAVtLI8aM2rpeXND5+EFpaWwsqbbhlLS8E1MqfQmk/2iG9n9tLh+SS0PPdQ3TqDlrp/AWBVx+ZNtFk5C6vCgBWElmdhVfnAqg57FhbWlUGLrg0qA5ZJQeVDyzW84w66N4Wu4d1rdPfAtQ5YfgN8qkMpwPKtLNxBvx3LQQulQYuHF0uJX2J+sZ1lAnioDDz0VAISk5YHn31UEOKoODzoVE4qFZWFSuHiqDhUGOBGpQB+bFNBqRyAhW3gRmUHGoCP/VRMjmEJKEhH5Qd8VDIggygP58sMlANwcH3OqnDxXBtlAa5cIzeE/LlWyg2oACv5YoGQhoAFBmyo8ACLfIAzUHPWDveE+0QewI/yUf7MwP3ifnPvnSVJYJvzcSw/Ei5v4rGEgAzlYtI94Mt1AHrKznFYW8CQsrKPdOQNvLgm7h9lAvicg2MoL/ecyfiyAfZKDwatIa9Ni28ZmqXloOX302LpgWs04w2iSu+Z17Y1aZaWWVv6Q4fSXMQ55FlbJgDmLCwTM5YyNzxvD72lN59WysoaBVq4hz6wDFqmeYkpuFKW1pxaWnNqZc1Lt4KrU8HVrsBy0GoyS2teoYUUXOomGrgG5hVcPrAAlwLLwBWZVWjRJ8uTuYNYWCagpcAyaAVcQt/C8qDlWVcNCqlGX9bwrmpWF9DJujX4avVl7Vgo7C3NNaTxPQkrD1gGreQyJt1qZXWp+LRbElq8Ru/rUxdLLZfBgaALc46GDn9dV896FgEzJmQLG8V74ZxWqA5/1gZNu5Z6U7ZR8GZsOKfnTbXjpM/icOH2m7XVFYlFI2qV9ShoQrIcaOwO5hsse7aZIry02c/Hy4uOjna7P9mOtRC4j8HAsZSLe8+SbQuaPvNa3fb09JS6oFiP6/OkK0JHe9uGfwu6fDTpj42XV/B4t84ye1mv9MBcaZEhdQ+HBhVaPrh8aNG5dHjUB5cPrWR/LQXWqN4XD1recnzKa5BPuolYW7NILS4HLWCVRVO6b1IBhyZMCiyNZ4aH4Nd4ElPehy2GVKNzyzKxdE7GF8/K0MyShA1as2ZpAS0sLcDVpTJoDSm0dGmWlq4DrXqTWluqGoVWtUKrxqA1Z9DywAWsZtTCSllXwMqTwgqFFVbIB5aDFsAyaIVHPWjpsjGs1pUuzS1U0ejuyQFryORA5UFLrSxVuy8HrI4AtDojnoCWUyQILXqR8wgjHnW+xGNf5QnItnVnZnyadL9Lk5kH63zxx627ZWa6YHwyzs83uD+5L0Pu2GQeepy7NhQsH+t07QgeG8wrLd5P5451ad2SX3mXHgXzDSp4vB2r6TYsXzAd8vNcXDknSyqXZzDdzPyyzC2upsW54936whJzi6WOtXwzyhs89lJ1ufLJVLYy0lWH7x5iaXnQymJpBawsB6x1lpYuvXatDGg5a8vcQ6cNoKVKh5YHLgOWrmdCa1jX29X9KaiolbzyGumOj0hifk3dQw9aofFF6bM5tdTSSnjWVsfIkt+upeDSZXNiSZqGF23qZdxELK1ag9acWVxNI+fUAmPmB3ULFVpVaVaWWlhRlQKrVlUXgFZdON0tbAh7VpaztIAV0AJYzQqwFpMHraSFlbSsVLpusMLCAlgqz8JKQcveFqq6FVrdDlqRmETV5U9Cy03q906lPxYyPpeaJDBTNmlglvgLiUHYk/Mb5/tORAfaOTW+su27GAWvjfKSb3D/5RDf9ptaAJCesqWhHBe6z5n7+Q4AeQfjLocoK/ci2753ovE5L+9gXJ9WysbwqrVpDeAe+h9cpRHevT302rRSbw4NWBu0aVljfABa7i2iNcajDFAl5VtgDHtDnlvoKWllGbRmzTUcUTeRsYff/9Ed8vt/8N/lU5/9vPzFX/21HC8ol6FZde9VvcMz0j+xLKHJFekZW5LeyTVpGZyRnsmz0q7w6hhfk/rYjDSPLCu8mH55TgE1L3UKq9qBRalQa+rpnUekuDMhDcMrCikGRauiMwoqH1iq2qgCC2hFJg1c9Qos1KBqDI97UnCZeEsItACWiimhAVaribeFDlgqA9awQmkoqU4TwBpUKLnlQFLdEZWCq8cX8EqDlv7AX7YwmzETweUIeFZ8b/HdCMyLf7lzxmIi38sdGJmAVXG5w8rqObNULnegrJdpJqO0MKs/MsH7wPjY2tBZaY4GoGWWVhBaHrg8S8vrp5W0tJLgSsErCS4Fljd4Or1tK2VxpYDlfX1HpXAijVlaCq5xH14etNQVVGiNGLRmk9D6wpeul5/ce7+6ipNy1z33y0f++uPmIu48kCOf/dJX5Zbv3y5VnVHpGJ6V2+99WP72c1+We598QZoHZ+WJV3fJdd/4ltxy288krymi4Fo2YDUOLVufLebY+uHPH5cv3fw9s6zo08XSgOWkwPKg5QELC8uD1rhCy1MSWM7Kcm5h0sJywPKgleyPZcDyoaXbSXCptdWl8uDFG0PP4kIAy+kdQWt6LC71Lb0S7e+T/uigVfbV5UWbI3t1ZdnGtk1fBLTOrjF+cVLi4X7pC0Wkt6tDhsdnFFLq+iwtysLiso0dnF9c0V/TzedLWSamJiUW6pWe3pD093bLwIj3cQfeyjFgmvF7vK2bUitjsxVrenxYunv6pK+nSyKxmHR2dMq0/sxTXtoFOS894pmlEutls2F2akR6+3qlvbNL89c/Ume7jGOinDsrS3ofmPqE+4Dbx9Q6mw2jQ/qHjsWlr7tHYrGolrfLpt85x1Q7C3of9Pop89ziWdnE1F1+WJN4tF8i0bDUN2m+4ZD02EwYtB9qXprvmt0H/bupBZRtrq+NwvLiggwqbLr1PtAO2dXTb88YL2WYDmhFfW6mGeJvFrwPnKOwfUXONC/Y2MMB156V1k8rBS3XuZRe8Q5aTg5cSUtLgeVZW95bxKCb6N4ounVrdEcGLLWuApYWnw5DnmuY+lgr0BpTaH3pq1+Th594xqauqW7ulD/9yF/J67sPyn//8J/IS2/ula9841a59Qc/lgeeekE+8rFPyGv7T8jNP7hD9uaWya//9u/KTT+4U+5+/AU5WdMtLSOrZnUdLGmU79/ziPzo/ifltvuekH/z735VPvqZL6lbqHDCCsO6Mmh5bVkGLFV9RF1CFcBy0GpUt7AJmUsYABbtWBnA8mDlgOW5henAcm7hegsraWkFgNXju4kMzbpoaA2HmuRUWZN0NldLR2dIpkcSUt9QIfnFBVJZUS4Vda3Ws3ezYWlpXMpyK6SzrVsqqsqlra5YunpHZG40JoXlJVJeXizFTHvTE7N5tTcb5qcmpKWlXZqbKqS+vFTqO7oVsjGZn5uQivxDUlBZI1WlBdLa1SdzWt5NQUvTzM+MSXVVndQWVUh5db0U1rfpwzktiWiHTcFSrPlWluRLX3zMXLDNhpnJcelpqZXCmlopLa2WrqYq6ewZkZnxuJwpLpTKynLJLymXrtiojWnbbAj36B9Y/zadfT1SV3BEmhpaZSA+LvFYj+QW5EpldY0UlFbK4CTg9Q+6UDi3Jq0NlXr95XKqqFZ6GsqlrqFHZiampLm1XgoKz0ip3oeymgbr4b35bJcl3Ncpx0/XS2ttvZyobJGOng6Da3ftGTlTWiq1FcX2xnNkZi1tmBl/v9PNy7KvfEbCA5cOrTH9AXXDepJtWhtBywHLAOX2edaVtw68Aq5hGrS8/lkGrSkHrRvksWeet+s5eqZQ/vKjH5cHn3hW/vyvPmrzxe85nicf/eRn5VPXfUV+8tATNpc8bxDrFCgPPPuyfOKLX9F9X5M9ZyqlbZzJAFdkT361fOMHd8mtt98t37/7Yfm3v/ZbNt1MaZe6ibR7KbBMzsqKesBKygdWQ8QHVsSDFe6gtWEFgRXxoNUGtGypwLLOow5UnkvoLVPAQt0GKYUVLqGTwqoLWPnqwdK6FGglIp1y+PhpqS4rkIa2kCxMJNSk47NYnVJXXSanS+tlgru56bAqobawNGnlKS4vl8qi01rQcVkYi0lLX1gS8VY5fUaB2BqxidM2G9b0l3lkYFArV7l1DSiprNILH5TZ6TGJtpdLa3xCKgsP6TV0bR5aGjrrK+T4mRKpKFCQ1NbJqcIys4hGI+1a4dqlUa260rwD0hsbs+l8Nhs6aqvlzMk8KSkrkbzcXAVqoYJvSmGWkPa+LhnW+3voeIHwJZOL+bJ/g+ZXUFwmlTXVUlum90GBODY+q9YMXTbapLu7S/bn5Et4ZGHT9+DsyoIUndIyWt+045pvvpTXdsji3Kw+WCEZjnfodrMcz6+QCbWINgvDldlhOXXioOxVC6KyrFyK+AGoq1dre0kGO8qkXX8IOpsKpbCoUIan1eIKPA9YWsUdq1LYtuhZWtam5TfEZ4DL6xWf6lzqesV70HLWVoallQSXBy/va9MZkApogqXGWwM81pbvIiLcQ1xDRCO8uYdqkn7qc583q+qeBx6U//ZHH5b7H3tKqtt65Q//+E/lwae2yac+/yX54U/uk2de2Sl/+KcfkUe3vSZfvOEWOVBQJT++/3F5ZPsb8hu/8x/lzoeelu4Zkfr4rLqJ3kDqXqXegy/skM9+9Wa9RzFpHl5SWM2k2rAUVgasqAerhjQrS91Bkw8sBZfnDnptWAhIGbBU7eoGmtTScg3vnlXl4JUOLAMV0EpbpmBlwHon0HKBbgtMMZMW9OlkmpaLcYtcsPz0yWPak8zKQ1eDpeWzF+UeJoNfYxiWkzlNNK/8uQbanjZbYddsULM3kynHk29mpaSrwfKql+9mA/nirrojLF9/3QXuA6/0L8Y9PGcXxrRAXD8u4Hry05eLt7qbD3RBSZXO8lVlBpuC6GLcQ54fdSvpokKZ6D6SbbppnhU+Ihy8D1hdtf1npTXmtWlZPy2FVqa15YFLoWXg8tu1fGvLLC61soLQynQRU+BSGbQyQOUvHagctILAwjX03EOvTYs3hyMzi/LGrn1y4y3fVH1Ltr/+lkTH1RJbOCsHTxXI9TfeIrfffb/CImFDenARr/v6zfLUK2+btfXUq7vkyzd/R+568Ckp6xpWKPHF6RmpG6D9ak6qQuPy82delpO1XdI2tuq5hao6s7A8l9C5hQCrQQ0He0u4Dlhe+1V6G5bvFvrAwi0MAsvrh5Xe8J6UAspzBf2lbnvtV04xE8DqDmf00/L/9pclBKf+vVyBOuJN6Xz5w6VA9kKBevqu5KtZ8qr/cocF9b0HGaV7mcLZqUmD0KKW9WLatDYbeNMZhBZ3ekSti5KOFemPB6Bl1laWt4h+Y3y2Bvmge+h1NN3Y4soqBVkQXEFgjfnAMmgBrIlZGZqYkYFxtdz0b8AIVWaDGl88Z9AKjc7I4NyafUZMjSabxbRnZM4+Izag26GZc9I2NCe9U2clpHH9alG1aMJGtbIaFFj1A9Nqcal0vU3dxabhBamLpYDlWVgTJqwsgNVo8tqwHLBQOrASnoUV8V1Bk29hqWh097o2qGVlXRtSwEq+KfSBFVQKVOnA6lFgrYMW/bQulyb1zvPDnW3fpYi3Wjz8fLKf9Wxp3ol4fU7jdLZ9lyJX3nF9iGh/ypZmszqHoREQ/U7pG8s5NmsdbiaMTK/Ii8e8oVuXI8wcOShn572vzrwX0CJwP8p7VtQ1xz1M9dPyrKxAPy1k0PL7avnQSk1TozJYefKAFVCmtZUFWg5cBqwpljM+tGZ8YM2YhhVYaBApuOK+YmMzElFghXUJuPpVvSOz0p2Yke7hGelMzNpbxHZVm6p1aEZahtQdHJyVpsEZaTRNm+rjUx64VA0sY37bVVJqVcUUWCpg1aRq1rgm2rFwBYGVLlt0CaxaAZVJwaTL9qhK1zuiuq3qiCioVJ1pGlQryleUpe8GBtRj8l1BVW9EYaXqjUSlT4EFuJgfLQmtstp2uVwqrVFliX+nIt9s8e9UJe9Cee0evIPy0kaUV9MizzadksfajsgTrcfkSdUTuv5Ifa4cbuQNq19bL0OYXViRHae8QfKXI8wcPfSeQwuQVyShlWqIz2zTWtftIegeJi0tBy5/fi1TytK6kLXlWVoKK4UUoPJgxRIrC2B54AJYQxPTBqyBsWmJK6SYitxBCxm01IzsVVD16LJLwdWloOpQeLUrqNpUQKtVQdVsUnCpZdWIa6iWVoNCC1g5Aa0GJ4WWwcqXA1azAgt50PKB5cughWWVBFYKWqhT11PyoNXlywNWUAFoqXXlgctTr4FLpZYWAmBp0Nq1a7dcLu3erUuUZd8lS/OzfLPte4e6Esu7b9deeXH3TvmDEzfKr+R9Un7zzGdNv5H3Cfm1w7fKz46OyfHGc7K3elWGxuaEaamZYYJZRQtG6qVgtFZeixyV7f0H5cWQp5cj++V0uEcqukVONq/JW+WrslOV27Yqu8vn5VvbutVSOSt7qlYlv33Nlq8Wr1hb0cWGmWOHs0JrdXlF3Z4R2Rk9JS/070+WDW0P7ZWT4S7ZV3lO3ihdlWMNq7K4QTvmBaHF28PztGl54HJvEAPgGptIwgsXMQkuH16eq+jBy0GLdT7G6kDlwWpaAaWanJZRXw5co1hZukwkoYWVNe1DS4E1Oi1RlUEraGlhZfnqwtoyaHlqVYsK0eG0WWHVHAdaamkhBVVSBiofVgFgNSF1Dw1YJqDlgOVBy94ORnEJR5Kg8pTwgOVABbhUDlSmKMBSpQErBS6vod2DVm+aPIvLWV1p0KrrTMjlUm1H9vh3qnct3yxxF1J9lrjM+Mx8NzoGZe6r7xyRqo4hyenulmN9nXKst8tXpxzu6pGirnlpCJ9TnZXpuSV1Gb0JHPnoR9eM+v+zEamcaJHSsUYpG28ylU80SocCoz8h0h4/azBCHYNnpbRzUe7d2WO9yutDZ6V7yFtW9p7VinPxJt1G0KKBfWx2WqrG29LKhkrH66VtPCENIZHqPjqKesOisoXzQksrVia01rVpZbO2nDaCVlK+xRUQgAJUQW0ELSwsgOWg5QFryofWlAHLg9a0hLG01LrC0upT9SSmA9CalnaFVJsD1sCUatqg1aTQatL1JrWymhRUjbo0+dBqjE368qDV7KvFASvqASsFrVEPWlhZZmF5wOoAWLb0oeUDy1lX3QFwbQws38oKOwvLU58CCzmLax20aNO5HOIhpS2HNp1s+y9VDA+irSzbvncqNVRk4XKXVyvU2Gz2fRcjxpQHRXvWvFbYy90YP6UFfv3kZXQPN4DW5Qrnh1biAg3xvovorC0DVwpYTFUTbJAHXJ4C4Eq6jN66A1USYpoGaBmsHLB8eHnQmpaEuoXDqiEfWgArNgq0piQygnxoKbz6db1PgWXQUlh1qTqHpvUHZ1qhNaXQUim0gFczoFKxdOuefFCphdXkhIVlwBo3YLUosBykUu6gJ7Ow9N56bVm4gs7CwgV0wEpB6nyw6lE3sYelDywa3pNtWdEUtJIuou0DWnp+By3/735Zwty78fZQH0gGCb8b4d16y/du5AsA3o23h6PTK/LK8WsFWhu9PUy5ievatjayuBy4nDLA5bmMWawsA5W/VKWA5QloOWANYmWNe4qOTCi0Jg1cUXUNwwqskMFrVi0thdbwlEHLqXNoSt3DKWkbmDR4YXVhbbWqWnS7WUHVrDADXg5oLeomNiu8cAebFFYAqzmmsAJYamG1qlr0HqaABaj8N4VYWUkFLKykHKx4O+jJAxXtVgFo+daUZ2H50DJwefEGKt0OQgsX8V2BFtV05l0Ye0h3nUvqp7WJcDH9tDYbqEDvxthD+iNlVtbLEa49aPHdQw9a2RrknZsY7GiaBi3fRUyzuNKsLg9gBjED13plBZaCKjExZVbWkEJqcGxShnQ7pJUxv6xSymsbpamrX/oGRyU0PG7Qom2rpS8uLaFB6R2elNrOsHQOTlhnWyyujiS4JqSmOya1vUMKJoWVWlBYX0wj06LrVV1xqeiISjmduXED476FlQSWZ2UBqmSDe1Ku/SqlILDSrCu1okxJWPnAwroy+S5hUp6FZcAyK8uDlFldQUW3oJUMW9C69qA1MOg+1qrAMmtrWAaBlspmMPWtLYOWyqClsu4PPrisC4QDlyo4mNoBzA2qXg+sALQUSqYAtIbVwhr2oYXFxQR3J/IKhelYGtq7paqpXYqq6qW6pVPq2nvlREGZlGtcn7qNJQ26r65VTpXVSE1XWF1EBZSCpaCuTXKKq+RMdYucqWmVM1UtkqfLk+UNUtTQaZ8fO1nRKIfyyjRNqzQBpvi4tCq0sK7aFFpYVM4VdNACTElIqfvndWlIWVcpFxBgpdxBIOSghSuYcvtSwEqDkqpPranMbde2hfgc3Ba0NGxB6xqEFv203JTLvhy0sLYcuFLQWg8uD1opcHnQSgeX68uVAtV6AawRX2ZlKaxQJrROFxRLX3zYxmyeKS6XysY2OVNSIeX1LVJa1yJlDa3Sn5iSnPxSOVVaLfk1jVJQ3aTLZsmrapRcVWlLt+w7VSBHCirkSH6ZgqpMihs75URprZwub5T82jZN3yqnKxqkticm7QPj0hZXYMWAFvLcQHP/6M5AmxVtVwatQL8rjQdQBixApRaUW1pbVdKq8tRr8oDluX/p6rN9qYZ3bx1geeqPxk1Yy1vQ0rAFrWsNWgn9RVZomaUV/MCFKtmutX5SQHMTFViem6hSYAWFm5ipdHcxXaO+RhRcIywVcglfw+OehpCCrC82qBZWpySmZ6Wxs0dqWzqktTciDR09UtXcLrkllVLf2Sd9iUkpqW+VytYuqenoU4WkZ2TaoJNX0ySnKmqlpKlTwdQkRfVtcqxI4VVQLmWtPVLc0KHWWKtUq3VWrtsNoQGF1pi6mQqqmKd2ZLBKKJhoaGepFhWAigErlS5ZB1JdWm6TQqkbtw/ptpNZV+dTzAeWAgn1+suUFFqq/tgWtNLCFrSu7Yb4YJuW166V/hbRa5BPfVbMA5f3MVdglTBo0X8rCCxmg0jJcxedG+gv/X0esHwrS7eHkVpZAGtwbMKsrQFdxkdVuh7TJQ3yEQVUdGRS+ofGpDuekFBiQvqGJ6R3aEJ6hsalW5fdgyqWqna1mFpw14Ymdckwm2GpUDjVdEekXdO1KtiIb4urG4h1pbACWO1mZTlgeeowOWj54PJh5WlYulUevLz2KpPBasjkWVfnlwcsTx6w0iGGzMraglZ62ILWtQWtHoNWoCE+E1xpjfEeuFyDfBJeCi63TAHMBxfLgLVlFpdBKwUxrKpMJRRSCAsroWBjOTA6LoMKKXrF0zAfU1jFRgHXlEILcE1IWOGF+ofHFVrIAxeN8r0a3z04Ll0qwNWl6lSXj4b6TtuetPUOjetQqwrRgN+hAlgdCionD1YKqlgKVl263qlwQuYO4gL64DJXUOUBywNVyhVMKVscVlYSULiESVAF4v04D1gDW9AKhi1oXavQGsr6BhFltbYyLC7PXfSA5ayuJLT8ZRBcDlhp0FIwoYSmTVlZCiB1i+IJPa9aX8Mq2rR61UoZVHBhcQEu6/6gllbENGFvE/sVWKhXLa0uBU2Lung9CicsL5bdCing1Tk4ZgJmAKqFOa3UuurU7U4FF+oa0G0FV6daWtbQDrCSVhUuYQBWujR3EGgpdJx6gJUBy7OwPLcvG6RUmqYPdzDpEvqi/cqA5VtWut9A5UScry1o+WELWtcotAaBVtBNTEErCC4PXkFwpeBlwuoCXLpOA70Hr3SApSDmgJWKN2D5GrblpHR090lHT580tXdKV39EcguKpbGtU5o7u6VDt9v7wtLU2Sv1bV1S19optSo++tDQ1SfNPWEpqW2U4ppG3Q5JfWe/VLZ0GcAqmjttDq4uBVa7WkkVGl+rafKr6qWwpsm6TVS392p8pzT1RaWpNyKN6j4eLyiTmrYe+6AGgDJXMAkp37ICTAofJ4MWoNL4IJzcfrfdhxywArBKWVuZwPIUirv1uIQMWrEtaLmwBa1rD1p8jcdBK2htbeQm8nmxbBbX8MhYchob5yoauIBYAF5JAStfQVglxtC4QYv+WtX1jVJQXCrlNXVSWl0rZaY6qWlskYq6RjldWCLVTa2SV1YpZ0rKdVklJbxV1OXxvCIpqKgxcOWX10iuxlUphHLyS3Sbr/nUSkt/XBp7InIsv9SAdLK4UgqqG+REUbkU6rJIgZdTUGLLIt0+llesAOyXngGglYJV0roySyoFpKRllQGs5DZLFcAy8CicUBBYKZdQFYBVvw+rkG07YHnptqDlhy1oXWvQ8r57aNDKBFemxRUEV8DiMnhlWlwBcG0kzxILgkqtK40Ligb5moZGKa2qkbauHqluaJLa5lapVUhV6XpVfZOUVNVKa29IKhuapUpBVtfWoZBSaJVUyEkFWnl9s5TWNklhVZ3kV9RKZVObvWGsae2RisY2g1alWl0nizS9Kre0SvIr6+zzZIAKcOWVV8vJglI9TvdpHvUdfdKjlhYN7B6wUm6gs6qcHJSCgHLyrKqUZZUEFttOBiF/aXBKCQsLYIV8YG1BK0vYgta1Ba3eCGMPU9Dy+mul3ETX2ZQKkOq7pcByUqvLrC1fwT5cQdEtwoOY5zZmwiu5PeppWDWENC4yMKSVctA+PhqKD5piwyOeu6iuYSiu+weGFcB0I1AY6DbgqG9XN7AnpOtD0qiuIlZQS29YatTSos8U81bhRuLiMa1xVXOHupMRaVJVNrVbO1VDZ5+5m+RRpbCjB34rriKWVjzhQUn3pVlPJi8u5e6lq9+UgpRTyMlARJwHIRSMDyuskMHKASsALvSuQIvwbkBr7V2G1uXOmYr6bkALeC+9S9B6KecyTgJ49KCcU2gx6DvLTMzvOACtzPvAPWcSQCytOD3is0HLYBWAlt9nK+UipuRZWikZrAKgOr9S0HIW1pDG21LzGcYCU2ts0N4ejsuAuqEDNMxrPG8U47odU0UVmlGNjwyPSSShcWM0yo9L/9CohDWuf2hEQroM81ZxcNTUOziibl5CetXVszeOfnzf0JgXp8dwfK8CimWfpu/T9MiApYAEUNbPysR2FlApaPuddDtoLQXloBSUuX0mP84BKwitLEqDFn/wyyGzMBbOZd33TsQDyvcUs+17p5qYO2cWTLZ9lyq+yUe+2fa9E2Fd8GHZbPveiRJTK/LGqf6s+y5FUyeOy8rcgs12wQDvbGneifhQa+Z94J5X9vrQMktrUKIKrKi5h0Fw0fk05R6ub9tCmW4iCriJGwDMa7T3lASWQsizsjReQYWlNajrntXlgcugpfLWxyWqVldIyxoFVBrPV7MjCq9+BUu/QiY8rOuDCU3jQSik2yGgBIA0vhcI6TqQAlhAzIMXQBvW+GFvf1yXgIxjWLdj2T+kUNpY/U4Gq4ACIHMW5Hr5cEqTHx8AW5r8dAN6X5LQmpg7q5Xs8mg8S9yVpklVfGJNBiZWZVA1NHn59W7kO+gr2753Iu5DeGQ5675L0eDIggxxb7Psuxzi3q7Pe02vYcU+IRbF0hpw0BrOaNPywGXQ8sGVhFYSXClopcDlAWsdvNw6sPLXPTlYAa8JrXxxKS6vsMrX2dfvu4gDWj6FqAIpqvBp7ugW5kQPq9vY3ttnFg5fo4kquHirmFtUJp2hqPCZ+H49riMUUzdvQF27XnUXe9W9o+Hc66He1h81d5ElgPK24wop3M4haVO3ElC1a3x7X0QtsRF1E8PWhsY5+gGbD6lNActJAXRhcGVRJqicfGAh/j5JaPH1GNPKZdDlyidTlzHfFc1reGpNRtTCmJhZkXHV5NyaalUmZr114i5WkxyrYt3leyFNzOo5s8RfqsgvW/z5xPmn9Nqz7bskbeL+cZ9Rtn2XIvJKTC1rhU8oEBRYCoXoRuAyeKWDax28VJnwCioIqCGFSlaxT0XDfG84IkdyjktNfaPUN7dKRXWtFJdVSHV9g1TU1ktDS7t96q6lq0dCWnbeJBZXVElZdY26hwq0zh45lV8kZbV1kltcao30JZW1UlRR7amyWqqb2hQ6rVKs8XmllVJSXS+nikp1WSdnSsqkqqnFrDS6UpwoKJJijc/V+MLyKuGtJZ9tO5lXqMAMSUjv4zpQKVw2BFVgHQgloaVxaXBKkwcmcyMdnDJh5W/jPqZBC/fISS1tc/NokUGsu7glrfDXggCgg5b3wK/qQ8wwiwWZmj+rD/qEjE0vr6tUrqKhaa3kM/OrVtlnFlZlWtdpGxqeWJZZ3WafkwPZRuL8fBaLczMPF0sPomvJOLd9PqA6YAXzo23N8lgUO9bl7y1T53LxmXk6kSeuvyuLS++dy1t3+brt85WV+4uweklPOxXLiVmu2dvmeJbnK5cTf5PhSYWWWVpqwQArhRZuovcW8QIWVxJeHrDYNnip5eUANqgWkVMKXukwy9Sgwgu3sDsUlrKqantzeDqvQE7nFxqk6P5wMjfP4hta26WzP2TQ4O0iOlNcYtZXh1pBxQqmUwqbwrJKySsp131lul0s5QqcKoWYB6sKOQ2oahoUSJqmpEIKyqstvlCXWFAV9U1y+ORpOXY6T+Mqpba5TY6fybduFnwUuLWn34dWoO0qG6Ay4/y0AMkts8oH0bp2LwcpB6zzQatcb0ZdQ5OauupjK4lHxyalWwverTdvnGlh1beenJ6zyp4NAlebgtDCypheOCuNrd1y8MhJOXWmSPIKy62iOAigSV1v6JuX1siCNIbmpX94UXoHFyU6uiTdA4sSH1uSozWTUtMz5+0bWpS26IJ0xRdsXyYAqZDD4/Ny9HiuFPJV6f4BiQyO6x9qVCue/kKPzUlbV1ithnHpi2oFGp2RgZEZrQR8IGEpLS9Eha9v7rJraO0MaR6j6nZM6R981PJt744olOf1F39YH5QR6dbz9Wu+5D+QmNZ1rai6DF4zYhu41Dd1SEcPX0UZko7emOQVVUidxoX1+OjQuK2XVzfpwzVq52AZG57Mmt/I5KIcO5knJ3ILtbK22/W1doXsHlAu8u/si+v1Tts5w/Gxdflkiv0etPSa/PYsz+JKNcq77g+bgldGnAHMtB5cwbikXDxp1Nqi0rV1d1uZGlpave4OamW1dnVLS2eX7us1NbV1mJVF36361g4pq6m3hu+eaNyssBZ1A8vVQmpSVxILqkZBgxVGl4lKhVGhWmf1bZ3WZaK5u8/StGhdLq9rMLDxVrJOrbp8hRjHNrbruTVtgy6xtEr1fMxlhWWV2R3BQSkNVAFlBVRQmkeasoApDVgq4pzSoFWiZuqu3XulQc3H555/QY4dPylv79oje/cdkMNHjslDDz8qR44dV3vr2rC2Mi0t3EIg9cxz2+WHt92uD/2EQSBYKbCmchum5eGDw/JW8bg8fmRYbnsjLgcqJuX2HQPyat6Y7Cwck5fPjMp3XonJz3YPyt6yCXlVt6u6Zs3iCuYHtAZHZ2XX3kNy/HSBug6nZd/BY1aG/YdypKS8Vo6dyJNDR0/Kc9telkPHTsnxU/maLteOy7RisEhKKmplz/4jUlhSJc+/oMfosRxXVFajMC62fE+cLpQzReVy4PBxA/T+gzkKzSp54cVXLW5seiktbweLfIXU4ZxTdnxuQZns2LlHcvNLFZSd8sabu2X3vkOy98BROw9pABKgzGYlYU01tvVKc3uf7Ny1z9Lv2X9Y8z9tAKccB4+ckPziSoPbydyiC1pbDloRhRbtWUDKrC0HLBVvEoP9tty0NQNDmZBybxiRDy1VsluEAxhWmN94n4KaLxenS7PeDHBjqaUCDVjGdZ97exhXNzCuRkN3KKL3rk/LqVYj0viIlpEl24CHxnmsoYgqrNuIeOJwkZGzlkKD+kPFUvc7d48l21hebJMGONLdwgPSemA5+IR9ufXM+KAckMjDrTuFkQ+k5LYfF8kQ8YPBhvjxiWmDVKnCa+/+gwLEetUc7Q9H5ZSarkcVWO2d3fZJ9mwQuNqUzdJqaOmSowqE/OIKOYOlpRU3+Os+pdAp75iVw5WTktc0La/njymwJmR/+YQ8fnhYXlNonaibkrcVaK/ljVp8S3heCpqnpaRtxlzEYNuVgxYWC5ZPU1uPlFXWKxAUBFoWKmptY7vtL9KKXF7dqJW7wICBxZQJLc/S6lRAVWv5y9QFKdU8ew02ebpdqnnnKPQKdX9FTZNalj1qHXUqeEqkVGHHPiw1rKrxmdR1u3tQUlEnVXUtZgEBObYra1usXMCR8xYoLLFSWafsuNuZ5fTyXDNrqkvzAqSUs6MnohDrNVhzfJsCj3MA3NNaxslNQgtLKzYwkLKuMpQ2A0QQXEFIKSCSfbiQ394VhNY6AS9/PQkurWQseevl1l08cSiu8HGK6bmYnRN4AbGYQgfRJhdlaeuaTj0fYEUDftxfN4g5cKVJgQSUDEbpcnEOOhdSNihFguv6Y5Hal4JRGqQCMhgFlAmqoNZBa3n1nIxNTGnkqPSFojIxpZbB7IJMq2bnl6S3P2yu44pSKxsErjZlWloIt2tU3S4qf1zdJK/yBiqFamhiWdN4wgVsjcxLn7qBTaE5Cel2ReesDIwv6/a8hBOLVomadT0ygvWSyssJqwYXkQo3pABjvaM3apUdVw03CherUys465RxWIGVmQ+ySqvHU+7o0ETStcTaqa5vNVCNa5p2dbeAJOfgnJ19MX3ox83tY5kNMghXzc6v52BJu19PSN2voUk7F+4r+eLO4e6NaP6Z9zCohOYDfCkjrvCwamhM75+eh/vP36I7NCCvvL7TwJhp+WYqCK0o0MLaCrqGQXChNHgNKajS44MW1nqAoQCEMhWAkssn6IJ6+z0ri3hzWdXSAVjpAlYBaVo+WtqiBgQWZLm6kCXqDnb0hRTyfZ6FFcc1x/IaSskHlMl35cydc1LIbAZQmQJYQQUBlKYMUBmEAgrCaSNlhRZWFA3uBPq9aL1OyuJ0P+muBQHfRMDSQriIwbeHLn56fkXmFjzNL6a0uLwqyyt8m29VVtxydVUWlvxtXZKONMTxQVTymNH8yNeraP65bOmd32uApoF/zdrRpuZpjKbx24+jjH7ZgiI/y8OOOZtswGYJHKd13cv/XHLdbZMOKHgu2HLW/L1ze2VimTrGaywnjnwtf7VcScd1ZcsLWT6qYFkQ53Hnou1uIDEl4wq/8+WFyMugZRYJDfEAS6UQyiaDk1pWKLkdFFaXNcx7SsFqvYLpkvIBlU1x3e8Us/P7Yl33A6dkHOBSRVhXyDW0tsnJM3nS2dNrDfvlNTXq7hdLcUWl7Xegol3PWT6ZQDL3z5fFabpsCm9WQMVJfzDSFNznK5KRhm2nYHxwH+v8ICShxVuvD5LGVJHRVYmOrUlsfDWr6LsU1+X2/CW58dUF+daOd66bXl+QR44vSnjE62uU7bzvhuiTFh/f+FqvVFHmwUm1fLX82fana00tWvppJZLQSoJrA3gFAWXwGk7Fp7drpQNsnQJAQkmQ6bq1W/nx3rp3LjufDyXv3FpuW6bincw91P1hta5OnDkjew8eVNe8TnILCqWovEIqdL2grFyiWqlDmsZAotfMMgklB6igiN9AaVBSAcHUtkIkC4yCsFmnQLogpDKVeVxwHy54ElrxgajE4lFhGdVlOOYpElfXIabSpW3767QZWFw0ldZpo30cG9xmf3QgrueLJ9NGWA+m8cWxpLO8M/NxafwyZotff+6wunOzot6RukxnZSyLXHxoZE3aB9akY/Cdi3x6E2pBzKTy/0BIrzdr/GXU+Ow562TqQcvvn6VKuoUKIk/pQEi5iP62DxQPQG4ZUBJWtDv58l1BryE9EG9KQQs5iHmgcvItLkQ5bBuI+cJV1Hx7QmGpquONY4+UVlZLZV29MOMn7mFJVY20dHt9vICbs7isTSsg5y66fS7dRsJaM4stKAWeuYcZ+9z2RumDx2yktOP8OKc0aOVUxSW3Ni45VQPS2KkwiYXVvwcm4TRFYhHdF5G2jjbpD/fLgKYh3fAIHw4YkIEhvYFd7dIX6tXtQd0e0P0xGUroL91AzLZjCkaOYb23v0e6e7vsOOJ6+npsSV7AE3FcXNUf7pPuni4tQ9iOJX/2eecFZhGTt4/zeOe1fPx9HIvC0X6Jjcyqq6jur/q/dDZFtHUxvs/cYXWLV9SVXDt7Ts6d21gunD179oI6d85bunO5827pnWtVXf7pBYXWoNcj3kFrs/ByMoApPFJw8ZQGrg10vrQu3qVxYMpmWaVghjSNH28VX0FCYzyzHmAt8VYR+DDVC+1dQeBsBkrrlQ4Kg4edN7W9bn9G3LslupckofXQoYTcdyAh9+wbkX2lg1rp4wqmVnlz55tSWl4qR48dtUpfVVMlp06fkkNHDsmp3FPS2dUptfW1cuTYESmvLJeauhp5e/fbkleQJ1XVVVJZXSnNrc1SWFwoR3OO2nF9oT6pa6iTjs4O2X9wv+Tm5RoAT546aenIj3MCsO7eblvmHM+R3Xt3y9PPPi0FRQVS31gv+YX50tndKSVlJZb+pZdfki6FWnVttcW1d7bb+SkPZQVyDmzhaMigxVg+F2igp62Llw+19Y0yNjFtYEm1haXWddXaqTiGFxST0/MWH2zs39J7K+4/b3g3gpaTg5ezrIIKWl3OLXSQCSoTSJmKK0iSCsarUrBiv3euYBnMFWTdQcuHrJXf9mFJEu9ZYMwUgcwa0/3ZQMSQIbfMJi+dBwZbAqmAkvG+6Pvm1t0+l85GIWygdcf4Csaf75g0aD2dk5AfvjkiT+cMy+FKvYBIv5zOPS179u6xin/8xHEpLi2W57c9Ly+/8rKcOHXCIPLW228ZME6cPCH7D+yX/IJ82fHmDtm1Z5ecPnNadr610+Jzz+TKG2++IYePHDboufR79+2VM/lnpLSs1OKB3b79++TI0SO2DcAOHjpoOnz0sEGUMpEP5Xn19VflwMEDcvzkcXn22WcNYqQl7127d1nabS9ss/2JUf0DB6AVx9JSq+rU6TyFXb+BaFEjmlraFM51mlev1Cm8OtQULyop0/h2tQwjUq376hubJRSOKSDrFc51mve4aL3JWpm29N7IQSui0Er2gj+P1r9BTFeqD5cvH2JBOG2kILTS93l5uXM4UGVue0qVNQ26DmAmhVWaskMpKNfWZ8oCBgefzDeDG4EkmDaY5kIKHp9tfzYxVVASWg8eTMiTx4bl1TNDamnpjYmH5eDhg/LC9hekuaVZSkpLDBIvvvSiAWH7S9s9OKilBHgMDAo2ALdjpwetN996U158+UUDxxs73rC0WEdABjhx3N79ew1SWFtAECuK44nDunPHA0qsLaw18jh5+qQcOHTArCjKhQAkACXvouIiee755+Spp5+ycgLgTEsrToOWhr/8q7+Sj3384zI6PmXQAkLdvf0K5N3y2us79D5gRdZIRVWNXvcr8tIrr6rllq/Qisr2F19S6/GYjRoAetkq05beG6WgpRbHJqDldCF4Oa2DmFMSZgFlS6fKlu96BcrnKqyup4s4L95Ly/X6abMoCIiscnDaID5bnu+H0qB1sjomeXUxOVEVk6Yur92qo6tDLY06c+dSbU2Dam30mutFHJZNS1uLuXvEhSIhcweJb21vlWPHj8mZvDMGn5bWFnPrsKBwDUmDOE9Hd4c0NDXYuciHNjNcQ/Jl2djcKO1d7bbuykN6yuLk8mIfaUjryonbGGyb64/0qXs4Y9bRnr37zHpaWFpW8JyT7p6QdaitqKxW4B2RsvJKfeBGzMrKOXHK9oUicT1fn8J4p0EOl/Ja6cN2tSodWht3Ls2mFLguDC+UDUgXEscFLanMPC0+UKa0Cst2QJ7VFNivSoJnAwVdvXVy6TaKVwXPdT5l5pEtzaUqDVpTU6MyOTkmU6qJiTEZG9fl5IRMTU/J+MS4iThbnxyXySm+qjtuaVgnHevsZ9sdmxhJSHtHuwGMbcAH2Fz6oCxPPX5iSreRn4ftm/byRMEyJLc5zu3XfW7bpUGUP6VRGZpYlIXAxIKuTQqLCdEvjb26agPJiWMbsU4cgXTu2C29f3LQcv20nPXh2oQ2qzR4qdV0ORVsYLe4tPPp+YNw0m2TrhvI2J9Mo5XYt6yScHHrF1ASAgHLzPbpdlIuDSLdRSgtHz/ucikNWl71+2AFJulbWPLePK2bvoa4oDLjN9re0vsm3vQGocVD/s7BpXKAuQxKg1bgHJnnT4OWr/T9qYocBNJGSqYNHOe2symY5mJ1OfPKFDNqvGNoTUxM2Cv8qzEMT52T0MhZiY5t6ZrQOH9P108r1bkUXQq4ggoCJikfRNmU3r7lDRGyYUKbVPCcmWXhWoLXlby+TcgddyFlOxZ5lt/69O+V0t4etre3S1dXl+Tm5src3JxV6pGRERlVsjU2Ngr7e3p6pLe3Vzo6OiQcDktlZaXtW1pasmNDoZC6mJO2rKqqsvRXcqAz4szCWbO25t8H0d0iW/yWLk24+hNzztLiIaeCpeTaioLtSpeqzPaopAxS65U17XmU9Vxa9uDc9++WNrxvgbj3S2mW1rFjx6S1tVWOHj0qi4uL1mmyvLzcdj7//PPy2muv2fqZM2ckFovJ/v375bHHHpPS0lJZW1uTkpISA9WJEyekuLhYCgsLTVdywD3kYaczqXUk9RvSXfAmRUyNVXRy297Sa89K31Z3Rdc1yrbJEdclM938wrLn1mgc+90y0+3Z0ubk3MMLdXnwKr+vIBQuk7JBK6gLpWF/ElZaxgFfaeVWrbuWi9D5jg3eq2zpMve/l7qge4g1RQJg1tLSIgMDAxbX1NQk9fX1UlNTI319fRbPNpYVaYkDglcLtOYXlqyj6JxCZGnlnDQ2t0phcanNbgFgAJnbTxzAmZ1ftAHRM3O6XF6z/a5BWJll8UOJMTuG6X14K7mkO0hLnvOLy9ZtYnJq1tIzsJq0wXy2dHHivl40tJwcJC6DsoEoqAulsXwCZcsGLLThtWxC5zs2eK82SpeZ5r3Sptu0cP9mZ70+TYTp6SlZWVmRqakpUZNMFhYWbP3sWa3Ntn9adu3aZfC6ksPkvPe9Q+YR+/3/+vtyLOekWVx0azh0+KjkFxTLtm3b5Ux+oZzJK5CS0nLriFpWUWlpyiqqZNeevVJZVSNHj52QyupaefTxJ4ROqXPzy3acN7niHnnxpZektLzS+nwRn6d6+pnn7Nyv73hTCopKJef4SckvLE5WwMxKuaXzKwWtzffTSquMDhjvQNkgdClKK9cVqGz38r1Q2ttDxm2tk9ZoRMXGxSGOSs0rf+JYsq3RyXXSsyQQty7PK0VaTgbZ6nNuPd5vuvlmicYG1cU4K4VFJXLi1Bmb+PBozgmpq29SaBV6PeEbmmXP3v1S19hk0Grr6NL4ejl5+oyBDQgx9xhW0+kz+ZJXUKTAekUheExKyyrlwKEjcvDQYalvbJGXX3lNdr69W06eyrXtrp4+PXepTM3MmTWXrWJuaWNdCrScslXMbFC6kLIB6KKk593IsrqSlO0evhdKgxaVBPGHX9QHADGY2Ks8XhvMkv36p9pqeFDc0q0Ht5HL60oT7U6jCi0ab5e00HPqIlL2haU1692Oe9fS1intnT0SjsZtuA4WEvPoj4xNWsdTJkwkbVwrSZ3CLDYwJE3NbeZC4u4xkSJ5AsPGJnWbQ1HLh1kxAWFNXaPNw9/S1qFpZ+z4hsZmcxG3LK2L1zuBVjatq6wKlQspK4jOJ80XjfEZ/dExiQ8Mrj/vZRSzqnLebPsuRtnu13uhNGh5k9qtGZhchZnTysevPvFUQOJoLO7p82YxZZtKS8W0B2Zm3nQ1VLgUtNTa0vIaiDWOeP1nwmAk3u2bnJ5NWpa2j3R67SxdWpbWqO7nw/0yS9XPR/8l07Hu9pGPO6crx5YuTtxrZnlg2uEYH2vN7CpwiQp2RUjTsFb+DKV1dXDStNlEHgCE6VZ27Nwpp3Jz7duJLn/WJ6anrR0HCDNH1/jUlIxNTtrxvP4fVdiNADxNOzI+bvtGJya8PLSSu7xQND4g/ZFI2jkuVdnu03uhtDatZ559Xp548mlzc6ZmFvQhOGeuCu4NbTSFxWVmJWAx7Nt/UN2ibukPx2w2hHZdxyKh/SbnxEmzQKiY2WBxpYiHPDHtzcPEDJyIOciR2w7G8+ksNxNotjSZ2kyajeTKcU2JD+Rmi7+M4rNjI9OXH1pO2SrvOmhp3IUUPB6oAZtPfupTct8DD8jk7KzFE9fY0iJ79u2T1o4OA1FvKCSHjhyRM1ph+YJ1m8ZXVFdr3SyW2oYGqamv0/p7WsoqK61yDwx75wB2wIz1u376Uzl4+LBM6Xk4tyvHxSrb/XkvlAYtYITLQnsM7g3uEV/kYTaD/QcPyWOPPylHjh6XgsJigxfj8BoaW6zhmPaeozknpVbdnf0HDkpHV6/aC1c4tFRjs7w9pJxbutJFn7bNxAN95pryKheV8r1XmvuXRcE0zDmPtfSZz35WHnjoIZmenbPt4tIy+fwXviDf/Na35Etf/rI0KcCefOop+cZNNxngXnvjdXnltdfkt3/nd+Rnd98tDz70sPzRH/2RfPWrN8jv/ef/rCArkbEJtcgUTKFIVAHXKV09vXbMH//xH8uRYzlmoXmW4IUVLHPwWjej8/Zru0glsr09xD3ByqIhmW8eDo+MGYQAU49u9ymsmMaFL/M0t3ZYG04kxjivYXt79uZbu9QvH77yLS0VXR5wzbbCtRNor3w/oRWs6JuRg9ZnP/c5efjRR2V+cUmtoDm5/Y475HcUSA888KD87u/+rrz0yity+kyePPDgQ/IHf/AHctPNt8ijjz1uAJucnjFofexjH7N2sU995jPy3LYXrJ0UcGFI/M3f/q3pKwq1f/P/+TfyG7/xm1q/+2RkbDxruS6kbNf+XojrS0IrrX2ASq3goj7TXuPqNUughlh38S6uRi2wDoXZ6ip9kQL5XYGi3QhouTedhGH91bkWw8zMjAxpJZ6fn5doNGpL+tbRleVaC7RRRodG9QG/uqD16U9/Wn5+//1J0Nx2++3yFx/5iOTm5cnLCqxjOcflowqlbS9sly9ed53c+I2b5JFHH5Obb7lVFpdXDGZf+OIXDXpfueEGeV7TTUxNW8N7R1e3WW6VVdWyd/8B+cM//CP1nJ7Qfd53HLOV60LKdu3vhdKg5f/Nk4FZhC8kF9z22UCki7tipWWkncpBi4rNaICxsTHrPEtP/4aGBsnPz7+qx1cSioqKZOfOnVJbWyv79u2z0Qs7duyQSCTip7h2wtUIrfHJKblOQfQbv/mbai19XH7605957uHnv2CW0de+9nUpr6iUT336M/Ll66/X5aflBz+8TZ548in55re/baDC6vry9V8x9xKgvfjyKwYtzsEbt6mZWavwP7r9x/Lsc8/b9qUCC2W79vdCadCa6FmTqf41mexTK2mWKr25wPjEqzUEocUQpFdffVWOHDli4ykB2IsvvihvvfWWjcUMzgV/tQXKz3hRYHX48GHZu3evAYxxpNda8KB19biHCHC1dzBteJmcyS+Qyuoaq5ztnV1y4tRpaWppNWuss7vH3jA2NDWba9fT129WFPBhnfTkhbfT2x+y9eA5IrG4HUv6dwIslO3a3wulQStSsCyjravSumNBhutX7QFgTOHy8rK5FKdPn5bOzk576Nl28VQEMsDlYKyiG1xNb3jWu7u7LV2Z/kEGBwfNgmFwNXCorq6WkydPGvgYfB2Pxy0dxzBEiMIR6HFPxcOdcbocwaClLMKK4lycGyuL8ZN79uyxis3wpUn9JVwL+pFXWcDt5V5zf5ubmyWhbgFDrNi+1sLVZmk50baExYUAVDDOtTu5bfZTebGgWNK1gXWXzu1zeTsNDiUszRBfC8rYd7HKdu3vhdKgNdq2JommVYkWrchI05o9AADlqaeeMisEiwPXiYpcUVEhTz/9tLz++utWyZkZgmE+jD2kkgMtKgfjEHGxAA5QAnC7d++2Add1dXUGp4MHD1rlAVKkeeONN6xCMXbx+PHjNlzo1KlTVulw1RiMTRkuR5haVDD768FQUFQudQ2t1kg/v7iW1q53NQb6gNFRmGtgSVhavrqvaaNwtULralO2a38vlAat9l2LMli1IuMdazJUoxV1bdVghIUFTGgXwdJiqhoOwhoBHowzBGrOWqKBF3BhZbkB1LgmWFcMquZkxDF9DYF0gI+8gBpgYgkYSctUN4CKhmTinPUDzN5pmJoYkLWhoyKJI+rnHtOlrrOcOi0yecpbH81J7btaFbwOlsRlXtew3oOVKf/OXL3BoGXfHlRo0Q/pEhXsG5Rt//lk3QjeoS5XPpdLwfIEr3UzSs7SehmUGAt0eRioWJFE44oMVK7I3LDnCmFZhfr7ZXx83IBFY/XqKp98X1Egddu2Gzi9uLhg1hLWE20lY5o5LiQWGMDCsiI/gIV7xz7cPgowOzujIGrW7XkDHQ3fWF8Tet55tdJwNVG/loXGY9zMy2EnTIVPytrAzXqh39FK/N13X2Pfyx7/bovzjmWJd2Jf+Esis53+nbl6gwcttbTeJ2gFK/q1rGzX/l6I3vxJaPl/82TYqN05M/r9cjHS3gReoqbCp2Rt/A71Ae9V/Vx9pgf0qb/P3/bj5nS5eH8qnm3iEXFue/nBVHwyjb+07Xvl3Ow9fnxGOpbvos7O3O2t23nX77f44W/qepd/d6/eALT4EjO9wbNVts3Kcy89Zdu/kQY/IMp27e+FRoLQssHQjD1c0eXaxh1DV9UIyxbv5MYhBuPYJmC/sT+4j/yQN4jZW6dxnGNobyK9t+0d79I7uTys3JaHN7ibM3Iccun08mzp1idCCq2xH+uT/nNZGLldQi3Xy8zgD2RNK/k5X2sKmvHIt2V26IdJwKxN/0xWJu6S6YHvG7gWR39sxy6P3ymruk/0mLWpn9rxZ922LhN9t9gxQIT9lpefDpHuskuBG22/QSai35FzWn5XnjQBrqFrCVoMYeEhz/zm4Lsv3tJtrGH/zZ23nj3N+eUdiy58POcKLjc+hm4RF0qTrmzX/l4oDVpzbZUy39csc+1VspCIG7io/FR4A4c+EKzz1WUHAv2XhArbgIKB1UxwRzxwIDAkqLWt0z67NTu/nJZ+KDEqo2NTlheDtsk/NjBs8InEBm0ANrMokAfbzLAwPDJuy4lpbwI9N5sC6252hbb2Lss7Pjgs7nuG5MF5yDsdWvfKYPc3ZDT0TZlP/EhCrV8xCPU1fcnWG0o+Lk1lfys1hX9t8e01n5Wuus9La+WnDGjAqEPjOL6p/BMy0HWjRNq+asvu+i/IUM9NEu34mqWP6bK38TrprP2crbMcC39LViZ/4sEjEyjvVGoBtld/RuqKPmrno0wGruC5rjlojekDfiVCKyGx+IC97RtUa5A3fAioBJdBuePcfo5lafLTJLdVbptjGCDNejQ+KMwskpmW+uHShsIRa2D3zukAtrGyXft7oTRoTZcdlPlwh8xUHpPZllJZUOCMKEyi8SFdTtigaL6ofPzkaRuuw6Bo5pNiH3NK8YXl1rZ2GzRd19CogJg3iLS2d0g4OmDxfNSUbwZ2dffZUB/6knQw0Lq0QqKxATl1+oyNdywoKpGKyhobpN3a3mkDt4FeXkGhDSEqLi23CfWYr4oyMDkfeTC9THNLmw034luETORXqudlrCTA4gOs5DMztyRqmKVZWlRmrJHJ2HdlXCECnKjkWEasAxfEOhACcgjgAC0gBrRG+m81SBAf7/y6hBV65EM8xwKz4d6b7XxAjDw457l3A1hIodXT8EWDZ3/zlz2LMfNc1xy0rkxLizdfdfUN1p+Krgd9obCNBwRE9MEKR2PW34p1+l/RF8uDyrCl4+PAjc3NUt/YaB9xpf6Qlv5XTjV19ZaWc9Hnq7m1TY9pkX49F/n1K5w4j+uzhQAV9bQv5OVH3g5mGynbtb8XSodW8R6Z66yV6YJdMt9ZrX/8NamoqpXTufkGCSa3A1inFTql5RU2txQDpNkGRExmx3xRDKh+c+dbEtUbww184823FCAKuaFRmxmivIJR6aVy/MQpAxSAIV8gw+fomRivoanFBmnzC8ExAArY1OofnOPyC4qkqKRUihRqDNh+e9dum4eqoLBEmK2C+an4uGpnV6+mKbX0WFuAjQ+v2iwU+oAnoTV/r7l7AAX3EAhNxb9n7h6iogM0oIQbiTu4NHaHbePWkQY4ATj2zQ3flswDKBEHtICVO35BBdSq8//q3bW01H2l7JQPK3I123muOWhdmZYWoKqoqraOpFg1+fojnF9YZD/yBUVFUqzPND3hq2tqbXZcBFxCkZjuK9Pnt0zjKiwPxLCcej22sKjYnn8AVVRcYtACRAyapp5wDGkZu8hx5ZVV1oG1pq5Of9DrrN8X52Qf5QGcnsWV/TpQtmt/L5QGrZnyIzIfapPZmlMy315hfZNq65skV60ZPgcPtIAM1tAJhQwDqJmFk+3nt203yGD1AKSDh46ahQRonn1um63jrg0qSDjmjP6xXnn1NXnzrbct7xOncg1M5O9UXlltI9EB2YmTufpr0SZVNXVangIDF7N9chxpgN6xnBM2tztpOS/WH64lX4gGsgCsWKHFrKFYXObKAi0FDpaWNaov0hB/v9/w7hrfVS4uGG/pdZ39yB1r+wJpg3kG0+j64vhdMq5W1toMcNF4ayi/zJpTcW57ycA5KG9GGsoz/O0taF0GZavgTg5awAIrCdjgtfDjDizwJKoUJsCnRb2W2oZ6m6EBCJWUlUtBcbEBh/QVugQ09Jb3YFap9UPzUgj19PXZ+UhHPjknTth+IIbVRX1A7AOYWF6lZWVqwTV5aVpazFLLLH9Q2a79vVAatObjfTI/0C/z8V5ZnJ21yQBpB6KNiJk0mdHTtQuhrp6QtVEx8RozQsxrGiBBemQN6UoG96EG9rvJBN0HHEg3OT2XXB+fnLF1PjFPWvaRlnyJn5wibaoMpHPnJF/cUQLtW6R35acsQA+QLa148fpPJvpyZC16g0jiZq20t7z3GlHrZkxhkbg1+/73SglV/2fV6urwbuBVHAxaCXUPEwqthD7o77GYuypNWtHcOnNBdff2KjDKpb2rS7p0vaW93Vy2+qYmg1NfOKwQiRpImLCPt5fRuLpy6hZ29vRIT3+/gSakaTq6u23KGtxLQMN+5twiXyYWJC/gjVtIfgCOc3A+9rGkHBxXomXq0iX5kDfHp11HhrJd+3uhNGjhLiVFQ7n+x9LNrJmp5VV6intTu+i/dfvZZ/vJT//z5M0c4dJkSv956/4yuJ1ZFv23bunO6cnbZh8an5iUFS2zl87Lb3J8QNYSpxQc6LQmyvWWmRrPEpepjY69GjShZR89oX/0ab07V3cAWnGF1qBCK1tl20hUiGzxl1uAiwn+WCL6HQEIlmyzHhTHBPcHj8l2vJM7btBPF0zD+tColz9xpO1XULF0+bF+JSoNWsKXdFZXtDb74zw+AMGG8UAxP7g3oRcbgKIacFdtmF/YuPAMwbqaZrjwoEVFvDhovV/CEmI5rBBxcQYVHxzB9cz9SQAF0my07dKm5+P2ezAN7rtSNRqE1kLNMVnqqJDFupOyGmu3B4AEDMsh0EvdBXrAM+iWJd9BpMe7C/Rkpxc8vdYZ8kPgoWcYDkN+GDzNftKx7eJdoNd8MNAbnwG/03qu4ABfesbTS544xHHkRTnpSe/KTeD4bLNRBGd5CGt+jHekfJFIVPMbt2uMad75+QVS39BgeVJ2hiDRO7+yqsqOpSxv7NghbWrqLywu2rUTt7S0nLxPDD5/vwJDnzo6OrUsI3o/J7Q8DL2q1r9bt92b06dz7ZoYhsXDwIgGxHXwgDB64WoJVxe0RqRTXbxIfECi+myxDUQAGduAhCUuIuu4i7h/8aFBi2OdONIzhzzHWnp1F1nSLuV94GMw6TaiIKBIlwmzK1np0Ko+KiuRNllUeK10VxtoiktKbP4l4MPsDFRoBi5TIRkjSDxjE5nChfGCwIuvUQMyhv0wZpAhOwyQ3r59e7JiMIiagdiMReTL1QyuRuSVl5dn5wAKpGNYEOdmBgami2GYD+dmUDXxDLhmYDfn51uLjJEkDwDEuEaGD/FVbAZdZ4LDzfKAc8kQJODCWEfGUpInA7Y579tvv20DuZ944gmbneLQoUPJAd0AgYrP9SJuJvs5L2W79957rUwMf3q/AveKv+PDDz9ss1fwd6GM/C34m7CfcnP/+Hvwt2KAvPta+PtZ9osNKWjxkFMZr1zRz6qhuUWq6+qtYby5rd2mQG7r7JJyfQYbW1qlorpGKmtqrRG6V+tVpT6nxNXps00a3qjXqKpqvTeBfC3Kjq/k83Ydtr+ptVVKKyo0Ta21nXV091gXh9qGRq9BXteHaXjPUsYrTaNqTKSgVXlYVkLNwnK5u0aYP6pFbxozOVDhqYA83MzgwD6AghXEQw9sqPSAB2uHio714yozldZNW8OvN5YVYGObdY5/5ZVXbD4r8mEANaAgL/IAToCIAdxUIjfImjywoLgAYMJ5ODcDq5nkjvQcT7nZlxVavqXFjaCMbpA3eTDQGzADJs5B3lwjVgiA5h6QPy6Us/hIB0ApH2Xl3gH797Pi8zeiLECWe8e1cb0s+VHgR8hdJ4Cn/PzdGJjOcVene3jlQwtQ0ABeoPebxnW6IRDHNzX5eAVv2YEab/5C0Zh06LN5QusKb8kBDm8HLa16AryVzNUfcwDEMbl5fHOz0LY5tr6p2aAG9MgPWBUUl9jbQqCZUBhkK+OVpgxoHZLlzkq1tI4rvJrsAcA1opLihlFhbZ4rtYKWl5cMKFRagIBlxMONRUV6Kj3AoIIQABNAIB0WDJWoUY+l8lMA4EAF4TjyxErp6+u1vDgnlYl0lIFjOBdL3DUGbHOsgyCw4BjgQ74uT6wKLCmO8dxRPjflNcq7QJ6kcWClsgIb9wVt4lnHXSIe18/BiCXlcLNZACog6fJ6P10srF3cZsqCJcncZ85F53ooOyIdP0Tso7yL6uqy/2oKV5ul1dTaZuru61cLqdu3vpqtyw/wIb5VXfvowKC5gnx1h+4SFq9AwjoDSAhA9YbCZlnxRR4+ZgHYyL+9q9usM6wsOrfS3YE8KrVO9mh+nDdbGa80pUHr3NKcnFuYlXOLs1qfvZoMEDKtkyV9kF1g+hoecJbeVDHn7MEn8LBTOVxYWaHSnrP0bpYHgksPIFjnfF5e3j7SkT8heExwJlGXB/sdaFyw43WbPNkXvKagpXU5Aufi3FfzLKdXe7iaoJVNwIN5o/gwaXaQpMe5/ktAjfSZx7Nkm7TxIe+euHTkxVAfjg/meSUrDVpgIimtyO5jo1Rq+/jomvc5edqAWLdt3cebM9JYOvbrknQuPpiWyeiId/my7dKztHVf7phkvJ82eA7Lm/5gfrw7hyevvC6/ZJ66z5Z63OS8d+xWuHbC1QYt7+2dv56M86Di9rn9bp9b4kq6ZbBNyh2fWvdcUZcmmG8wbbbjrzSlu4eJARsojRYXFtO+NM2S7gD2SXk6ZqohQzzrpHNdBUgHHNxxrLOkQ6guAvBILcnDSf8lj7H9/jpDitzx7hzEczxLysW6l19qBonzyX1CbAta11YAWgMKrdTr/CtHvLXLVLB/VWZfq6Dc8aRBvPULx2IWH1E3nzeEro+VO8by89OThvSZ+bHfxSGX1r1VvNI0Oh6AFgOl5/tbZbb2tMx11igAztlwFxr4FpUG/aGY9YAvLCqRickZ66TJl6cbm1qsYbA/HLVe6h1dPTIyPmlDevo0ju8jMoZwemZWmJ0h58Qp4TuJza3tNnC6pa3TZnVgWBBjAomnZ/z45LTmN2/DbygHX7Ie0ocRuPEtRiDJ8fSKH0qMC5/p5zgHzAspE1q0O9Ee5bV3ecG5o1dzwFXFfaZ9Ctfcud4u0FWEFwkElrQN4kaT3rnduPnEEWjbc91SaBOjrYxt2sq4d7SbEUjHMZyflyXkRTp3f0nnPm1GOxqBdfaTnhcclxIMWvp8XGnQAgjAgPYqeqPT+7xFKx9dEYAJy7bOTuvlzhel6flOz3japzgOy5Ge6nRZYB9pm3UfbwQZFsRHMcgD6JCuoYm3iJ3S3ddnQONc5M0bRdbJgzSWl8ZxLGnpHU88PeUdBK8kpUFrunivzHXXy3ThbpnrqNKKvWZj/fhMPiDaf+CwQYFxhHzEdVEfwg6FFgOQGTzNWEC+Ol1UUmYwYcwi4/6OHM2xD7paOgXTGzvetPGGrO/es88GWyfGJmy8IMcxwwPnKy2rtDyPHDtub1ZOnDht56GBknFanZp2/4FDNoyHmSLIv7cvbLDNBqlMZUKLFwV0A6Cxn4Z7tnmDSYM+by6pzJnte1dDABq80OAlCOLtL28NednBOm+FXX86AES3ErY5hreKBF5w8FIDENEdhHtC4AUJ3U/IjxcsQJ8lcOKeASrAxdtfXr7wGTOOB0i8pSQNLy3ojkHe5MOLE/LnWwLBtsnNhisZWtV6z1s7FRrtbVKt9w6AndZ7AEx4q1dYUqL1q92WtXpfGO5zSu8TszoAELo4kJ43jqhG0wAY8gJawIvz1OnzS3yR5lOk9x4Y8f3EZq3sDPthqA6N+gCvvLJS61OhHc86g6spJ3C88qFVesAGTDNweq61TK2rVckrKJIdb75tcHjp5VdttocDB4/Y4Ofa2jqzio6fzDWw5Rw/aRYUU8fUqVW0Z+9+eevt3Zr+sIGLj0cePZZjMANsjFonDfsZ2c5XcCcmp8wyq6yqtYHWb+5826aXYYA2AANw2198WZ56+hk5ePiIPPf8NgNoRXWt/lEKbMYJXMTNWFuZ0KJiUmmp2Hxi67nnnrPuCrypfOaZZ+wN6tXawO76zAFkvqYEEN588027Zt7+OssJSwxQkZ40PBwEuqFwPG9l6VrCW1YCb2LdW1rezrLE+gJmAMpZVaQBVIiuJ6QBmMAM0LGNBcg6sPQ6+EYu6X5fqe4h7UlYTfSTwgLiLSB9qKr03iIgRBxWEl0TePtH3ysg0tnTK6P6bDqQ0eeKPlwGIL1fQI03h1hQtEVxHvp2kRYQAacirWMcX6h/xy59lsmb85IH5wJkjE0kb8pIOQBgtmt5P5UGrdmmIpnrafTm0hroF/3bq8sXk5raBrWqvMHLXeqmMRvD+MSMVXasHSDVDagammV2fkn38VXbMaV+o8UzTQzuH64k82rhxjl3j/m52N8XUuqrVcfEfkwhw0SA7R3dEh9ImAWGBYcL2qqwNNeypV3BdDY5YWB+IdZZr02Nc6nuITeCDqNUIKwsKjhx/PJTaamgV6OlRQAeWI+Agm4pwMoBAmg5ywko0aEUqxKgAGpcQ6wh1unGAtQd5LCq6GKChUReWFHcN/LDinLQwu3DkqJLCOfG/QOCHIPFRR64iORDGSkT57x0aI37D7nXoHwlCGjxlg64eN0XGPDcY/tYss2bPhqbu3r71IVksPSwdVUg3h3POsezD+Fq0g8r9cbQS+d1hWixLhDkxzG4oXR/4HyAEPDRG9/m8orFrQzEE+fllf1a3k8xjU4SWstqoiwvLcvy8qo1iAMF98jgctGG5ILXIO7X9kCwdBodTEtwmyx5e+hCMJ7gjnXHB5Img4vjXIQRhSCj1V1wn72/kDI/iw+QsDQIuCVs49qwTlsPrs7VamkRgmV37VVYNyxpj2I/1wpcgmm5Dw7WdGMJ7uO+IJeGNkCO3yhwPPcUuS4oQNF9IIUlcaRzwLvY4LmHVx60EOAZmZi0ZWJs3Hq/W5wu2WaddMFtl8YdnynSubQoeR49DgC6dZd2VM/PNmI9ud/Px6VFrtxXktKg5f/Nk4FHM5tcyLbvfAqGzG1CtnTnC5Z+gwPOl0/wPJe7n9ZWeP/DlQyt91pXKnjeidKgtdLXICvhFlnpq5ezM17D7HsRaPQNvqVj3b3NSg/nQ5EX3C/4ZsMHDVpXs6W42UCXl0F1D/lQA7NvbunaUhq0FqqOyEqk1WZ5WO6ssAeAdgbaQHg9jRnvXm/TUEobD24GgSUuBq4BbUKuQde5WwT3VohxhrgktF/QvkHDLG0epCUPxr3RpkE+nINBvOynXYl2FfZzHK4EwCM/tvfv329tI7STMLyGNpycnBxr/KWtivxpSyFPjiV8UKDF35D7xP3nfvN3pX2JPzxv7lyb1rUQDFpqaTHVCw3JW3qXBESyxb/LGlMGpaBVtl+Wu6tlvniXrPbWy+ramhw5ctTepPHGCegw+p+GViDAWyTXuAtQGPAMJAAOjbDMFkDDLG+igA0NroCIk9H+4d5IEU9+DMwm7sCBA5YP+wAbkOKtFDBi3c284N5i8cqehnPOxbk5jnOwTXryojwAlYZmKilvurA6phc/GNCiewMN7yzp1kEjO5Anjr9PcLjV1R4MWqNb0LpWlQ4tZnlQ9xBLa6WzUpbUzaqsrLIpYoAOYAAQPPhAg3iggeXFPvr3sB+4AA5gx685v+rEMYMDgOOtEJUEwGAhUWno6wNcXL8fCsQx7AM0AIi3VhyLpcD5sRyAIG+0yIs3XhwH+IAp/YJYAkXKg7XGxZIX51lcWJCZJa/x/1oP3HfuAfeKe8D9Qlhg6FroROvCFrSubaVBy9q01D1c6W+QczNj1oLkvTVblGV156bUdQNeuHZz6moxcNobBC0yppnhQlZUlFsaYEY/H+c+EmhrWl1dET59z1sqPquPy0Y8wME1xH3D9cQqIh/S9qrrwvn5PD+Vy81UACwT6vrFNP3EhDdFzvz8nOUBzKamJpN9fbAoOI5X9JxrZCRhZfogtWlhKeMqY+Vyz7mXTrQFXithC1rXttKg5d6qIR7hs4G+Cam19GBpA+mYg90tmZ+dwH6XxKUMtgcHVt+V4PJfVToxlMiFs1qIrQHT115YXD4ngyO8tuchT+8esKXLoff3vqZBa5Gv1ywsyeLSiuiqDUJ29ZkuUVR+Om4SR+dMftFWdYN9NpBaxTr7ddWC15HTO4bgjrXjVRyPiKcnu9vvBkB7296AbM5tZdB1lpyLeNK6NC7v7NI0mqHb3howffHhcrx9vJi3u5cSDFqjW9C6VjU2MZmCFj3i5+kR31yS7BFPL3amb+Ur03w0lcHJxDFomWlf+NR2OBI3uACR4cSY9PaHbTwgveEdIOjxXlvXYD3hSedARQ94PsHNYOvJqVk7FviQZnxyxnrCcy4+DzY1PWe951l6vevjMjk9a1ac+xQZ+bpzXkiZ0MKlpA0uswvG1R4ADe42bYu4h7QnAg43USKBt6m4z8HAm1juCe40rjqBe8M294k3ybSV8TaW9kfXS57Afs7FcZwD1x0XHdG2yD7S02ZJEwTNCe6NL+fgocTNv5SwZWld20qDVtrYw5ZStWjOSTQWl5Onc+0DrIxD5GvQTOPKF2/5za2uqbeByjaDYmubMItDaVmljR/Mzy/S4wctPWMTG5paLR++Pdgbikpbe6fs3rvfBmAzppFhOocOH5GevrB9LZcvTh89dtyG+zCIGmDytei6+iY5k8fnvtvto64dei6GD3FOjgOYmxk0nQktGqZp8+LtJI39vBig8tGQz0sA2t+uxn5OlBkY8LKEt7HAyHUh4UUI+7h23sYSx7UCIaar5n5wD9w94S0yaRm3yBtY5pvnxQnz5wMk1jkP2zxYwIgXMrwEIA++JQDoOAfgIi3rvNGlLNu2bbOXLRzPeS/lfm9B69pWmnuYNstDe6VZO1hCWDuRaMy+DF1RWW3WDhBhTCDQOn7itGx74SXZtXuv7vO+7BwfUFidyTegMVaRJWMEmcXh1dffkMNHGDhdYPkw9Qyfti8rrzJIsY8xipUKLQZTA7UWBdTo+KRUVtXYTIsAbedbu6SkrEIh1mxT2nCOoqJSs8AAUTZQBZUJLSoWlY5ff96QMuCXCufeWl7NjdVYPEAH8cfGyqJBnhclwIH9vFUFYNwDrDIgDeR40wpc6JZCGl5uYIHRbQIQscTq4p7x9pjjsey4b87iYsnbXiDIjwBAdOekiwvHAjjS8kBibXHeS5nlAWgNqXuY0Dz4Gs2Wri2lWVozFcdkvq/Fn0+r2j7ailsIQCJqcTEtDNYQMzbg7iVGRqW8otqsqFOn8wwwLIFYb1+/fa6ewdb79h80yGClYS3xef3iknLJU0vs0JFjCqQOOZpzwgZMHzx81OKZuiZPz8exXT19Crwhs6x27dkr/Wqlsb+gqFiPO65519pgaaasOX7ipKXHZcwGqqAyoUUlogLy9pLKxDquDRXMDf69Gi0tAi4hMKZ7A64acCBwPVhIWDmAiXXuA/3isMiAGw8I8cCKfm+4g0AG9408uS9AnXyxvjgHx3LvSA+wcCkBHS4o5yZ/8uM48sPCY8l9Jx2WHn+HS7W0DFpjqQnzrihpxWPGhjn9wVhYXjbNLy3JuIIe6zDrMRcQx03o32FaXe1s+zkfyrbvalN6P62RQfFmLx2wBnlmJKXxmgZw2pWsotPwTXuWVnSNtn2uDcrak/y0zFRKemso123SOdmxpPXh4fJ2DenuGLffHee2vfxX7fyskxezTdDOpatpac+nbA3xmZWE7h1UUNypD1q4GGCcLy0W6mbzuhRIZYYrHVrAiU/jP6eu8FNPPy3PPPesPP7EE1LX2CCzDBRX8AAYvkINiNAkoz80bkqt3zG6BgX2ETeuS+bAOq6WLPs4x4z+ULm0DoZum2PI05WJdXdeF3elimtIQou6G5R9Ut5Jn6Wg3Kfng3GbUfAY/Wdy2xtJ/6WtOwXTzNG4vLqmD71ua4Qr3/m01eXh2gxXA7T4QOujjz8uf/7nfy7/6fd+T+6+5x6bzyqiVirzZ/Hpd9L29PdLu1qzzGQKeJj0b4AXGbreg0Ws+TDh38LKikHwU5/5jMGHKWiKy8qEGUsB0m0/+pH84Lbb7DiAxWSBzHrq4EU+zKPFR1+vdHClQYuv8JybVxdoYVqp8O7XZH5Vz22inSjYrkE7DNuX0taRLXxQOpcy1QsuF51yCbyx4w0ibiP7XHDTy7j2LkJmFwWsTzd2k8DfwqV3bybfz/a/K949VAGGVX3+H3nsMbn1m9+0H2Em4vvKV78qN3z96/Lz++83GH3+i1+Ur9xwg/zpn/2ZfP8HP5C/+MhH5Ec//rFN8ve3n/iEfO1rX7N92196SV58+WX5/Be+YLOUfvu735WvaT4333qrTQBImt/+nd+xT4ht275drtfzXP+Vr8jRnBw5k58vn/3c5+TGb3xDHnjoIUmoJXYlgysNWgtVh1PfPez3vle42cDrahpeaYAl8BD39vZYgypvi2jDYJ3g2ktoJ2GddhHaR+ixHexBT2CbeERbCW0sNBbTUEx+7KcSXapb8UGBFm1GvPGjfY42JVxeGrr527j2JNqQeBnh3hgyooF7Szq6J9BQTsM8Yxf5+xFPXoxhpC2KBnbE3yj7LB3vTbgaoIWLhiv44MMPyy0KliUFP8ACLvc/+KD81m/9lrygcPnvf/iHBpUbb7pJvqMgOn7qlPzxn/yJnNDlf/xP/0lO552RQ0eOyF/+1V/JfQ88IF++/nr7IMVLr7wi9953n/z//u2/tWPu+ulP5e577zWL7Td+8zflh2p5Abi/+du/lW0vvCD/4T/8B7P8gBhlQ9nKfSUoHVqVR/wvTB+Sle4ac5+Ki0vsQaZRlS4Abgk4eFPEA8+bIx56ZrxkP6/OaWB184GzzStsXpdzMhp9yYM3c7x94nU3AOM87jgefMbJMZ6Rt07AjfO5igfAyBtwsc4+jrnY8EGBFoDhfjMonXvM34G/HQ3j/D24xy/przV/DxrkefHA/aUhHRDRzQHA8fdgm2moyYe/OW8V+ZuRhr8BPyTvv6U16T/k3sR2V5qYaG92YVEtm4fl5ltulYXlFfm0unZfvO5LclDrC9OIMzU5lhUzl959z70GOCwlAJWjPywf/vCHrZtRfWOTxf1M09zwta/Lfq0LX1AL7eVXX5Pf+vf/3tq5fqLQevjRR+2jr7/2678hz257QV7TOrnjzZ02b/z2F18yMH78b/7GPuDqtXdlL/v7rXRoVR+VlWibWlo5Cq1qWVYz/8QJ71eX19jM4sDDjUXFry1TxvCA89BjKfH2CIuLvjju9Tj7ecipEGzjori3V6wDI155kydvmLAAqFgADNCxD6BhjQFE9iPe7JHOvX4nHSC92PBBgZazrgAX992Bi78t9x5Y8RDwN+INIJYUEGKbHx0GqPM3IC3p+Luyzz08dKUgPce93wFoDSu0aBca0Yf8ShRzQs0ptO5/4EH5+o03Ct9j2LN3n3ziE5+U226/Xe648077eMuH//hPDEx33nmX/Py+++2z+Vhjp07nyu/93n+Wr97wNfmjD/+x3PmTn5jbd51C7+1du+W//P7vy0MKuf+k1tjxk6fkxZdelt/93d+VkrJyuf3Hd9hxX/v6jfLmW2/bW/4vffl62/7oxz5mswBPTs9kLfeVoPEgtICVuYf1p2Qt1mFT09B5kAcVcPCQ8mu7ffsLFsf6hJqRBNwI1gcHB5KvxXElAEqP/vriehDPLzGuBu4jVhKVCbcDIGFZAaE2dQVdel6/k4ZfdODIMQjrjgriKiDnIo+LDR8UaGH50PbEvaTNib8BS35s6I9FWxRL2rdoryIt9zkY2GY/7WK447xRJV+2+XvS9eFKGElwNUALWX+j9g77KAXrgIKv4rz+xg77ks7gcELKK6tkYGhYWhRcdOCODQyaZVWq8PnDP/qwWUqHjhy1NN29ffYJfPLO0fpy4OAhqdDjw5Go7T946LDwOXzyBWx7FZLkR3q6Dr258y1hrviJqem0cl5pSoOWNb7z+fmza/bH50Fk+plg4AHlV9c9uJtpSzpfmuA+17ieLT2Vg/JkBtpOAOFmypEtfFCg9UEK///27uu7ruu+E/jf4Ac/Tdbkebz8MDN+mLx4LS+XjO3ISlbiOllOpsTdjmNZVrFjxXKkJLYUxRIpS7IKVSxZ3SqURXWKvQMg2AASBECwggRRSYJ1z/7sezdweHUliiAl3nL2Wj/sc3Y75Z79xa/t306gdYhpv6I7akiKk4/4ml0Nku9Wlfs6FkVFVj3x2yePHE1K8bGJipUPuB2P84BI94Mrrgh9UWrh+sMiyf3BPqHa8/s6cmw66c1GRseSSMUfDCBpm/zDpo+nutQ+tk3XjdeZAYh69/1e0Hleqwa04i9eJfjA30my7XzaZh6mVYpSM+d8qip+VPypTlfaKo95ZSv9Sh/LairnlfrcNp/LgcdM35l2lbFT/0iV68xeTxupUlehdK9VqtxfpW0t1W5scSEJaGZQreeEeil1POdK7vt87u/t/oE0SmoK0LpAAni7I6crr1ffynQWaHXuPRy2DI+HjpgPT04n50uT3vSzIHnq6PEEQD5va/0sUObc6fONWSqPXZLXO+dN/SZiO7tRcwZVD1TsQl0BkwoZS67NkWOVdsatlFccRV03g5Jx9U/b9lfHyfcp1xdZg+ieiw6lRap1LiWSZlEnm/GJSnRtEoU/kZgo5aVpQ+msHY6U7o7IRB9HlMpAwKJKvC66FryfyX24L/fvPonW2eIqJ2Irk4iLlPCei2jvXNI3c9dEeCRR5rPsZlHduyKqExOVE0G9H/o04qd34R0qI+5rTz9JDaCMwcCx90XFMJfUDqCFO+JQKq9X38p0FmjNX7M13LikK9yycnN4ecee+IHGCReBqa9/IKxb35kWKosLvS/KxGvWbUgLmTu6ukNHZ3cCCWv+kPJDI2Np/aHFz0889fsUCcL5lm3b04arojbYYn9Lz/a0/lAfu1E/GGV0i7Gtd7R28UgVKHfv2Z/AEHga8/DYRDoGbIAJEG7vq+y/eN/9DyYF4+Kly6NMvzZyY/U95GtBywTMrhcslCYTPRuTPn2ZiUmRTVFNcU1MpoBmAGCUmDdvXtLDMVJQSt97773JYgrMcpTVuYqxF5Jc0z16HvcOVB955JFEzllvc4QGYEV3CaTkGbDpDekxWRu9k6w/zKBDoe856SeNCdQ8cwZH/YGQd8tIQ6x3T4gl0nsEaow0xP0cLXcuqR1Aq0jZ+71dAOws0FoysD/ctGJTeCUCFtCajpzPho74H3TTlhSeRpSHtRGsrEFctWZdWLpsZVqwbFdnAGPhs12g/7Do5bTr8wsvvpTAybpA4GbdIoB7Y/GSBFALX3gxrVV86eVXI3AtS2sOH/7dY+lc1AeLpG3majH0y3H8iUkhafpSvSU7+4cPpesvW4FWpXt7+dXX0m7Ydp+2KSwwxI29G9DCDZhUwIuPEs7Bf35gZTKaiCYca5p2Jr/c5AZWIhTgEJSZsIDNBDdhEQ7tUiX3DhgyEOOmgAywyYYTCVgBEh8Fa7H7xgGxFmaLoXcAXICRdwVklCPABtC0tZ9ABkPgZszf/e53CeBxYK6jP4sz6zSuVr9sbHEvc0ntBFr0WLzbH3388aQbA2D12rUSnQVav986GJ7vGQovRHp2267I4p+MFUuSVQIY3P/AQymygogOXd2b01b1gOa5FJlhYejauDltdf/oY0+mhdB8ULSzIzTgWhYBxuLoBx96ODz3/MKwIHJED/32kciJPZ22yRevy/i/f+b51D+HscHh2V5/8+ZtCSxxbhs6N6ZF27bif9G2/C+9GhZHjk0f96GdcZxXdFhv5bZqQcvExSUAK5Pcf3plAIuIZaLRVxFxiHomrjpiE3BznEUg7ZwTuwCDsXApl4LTktw7Tg8YEN3cj3PPAJQzV+N5gZv7Rtmy6H14Js8JTLKoC6i4rXhW5RnA9MuWSsk5Ls4YAIxzMDERqOlPfHVv/hEYA4c2V3F6FrTqf/StQLaGpzSnPO8f3JU83O++974ZxX29Pq1CZ4HWC727w7LB4fBizHsPTcT/sGfC7r0H0tb4e/YNh72RUtSHCELywaG9iQvCYY2MTiSxzXb4uCH9tu8cCLatzyIckU/Av1274+SNHxcg0X5rFBnlYxNHU+gaXJr+trino4qYk44Pj45HsbQjLF+5Jl5vPG2/f2CY6Xg8iqPjCRBtqU/XhstyP/oRXS38PhdotXPCTbVKAloHDo0la1zT0KE6ZW9DLH4sbvctWBCuuvrqcMMNN4Zvf+c74T/90R+Fu35zT5xrx+J8GK3btyHpPJ4dHY7PPwNaQIpFTU6H7DjzBfIij1Asl05XD2rL6aOADpIyPmTrYLF9ETxyebYa5jQxaWF0RRmvWO7auatj5YWhKmPEi9WSmPElaLVemgWtihNnqxHQOhBBi68Vh9Pb5s0PV19zTfjPf/zH4a67fpPcHrhG1OvbCnQWaFV/84ZNAOpip3bx02LpJJYRwbKlkDKcyJpF3FZJrQ5amfhWmRO79+5LXvX3P/BgKmtlwEJngZatwiyWLcaO8oFTlLZqahfQ8iNTvFuKwxoKqCi//fAsnNlK2AqpKUHrPEWkTLzoecE//uSTicNKzqJ12r09zf0dWT9Zr/y86ULEwy984QvhQx/6UPjoRz+alKgS0z1rGKUtpan/zhTV/kNTvAI0SlquAlmBCvS0V+4/O4Vr9nZvtNQuoEWBzo3A78ly6J8T9w2/od+qUX+fuaSKIr7JdFpzJIppwCUKaqtzWJnOAq0PfOADYf78+Qm4OAhKLEmsQcz5PnJuAXyY1DtmElfP14eJH0gx+/NVyqZvY8zVfP1ep3YBLf9IuGEAL/+Q8gJ0/2xQtvK1QkqgNRJBK0oJJbUeHR4rgNZtt90WPvnJT4arrrpqJsibjx04+c8MnPjVIGCFA0NM5s5xVkzmJgR/IJNCW/2YuBsxtdPaQ1xyK4HT26VZ0IqiT52PvqTmprNAyw9e60vEFA7AcFDZV0mZCUBc5JOUl3qo49PDv4YvEMDjn0P8aNTUTqDVLinptCJo2QChpNaj0VrQardUC1qXyvmz0VMzvRegNTwyHj/w0ZJakEbHxkvQyqBFxGVhwykSZ1lO6X9wjRTVuE1cp7K8eLhZEi6YtZBXOv2ixeGex7N6Fs+Ky3aMc8ZB45AZV3wcyqy15EHf6KnCaTUfaLH8oXp1Jc1SCVoF0GLlFHnAUpKbb745LFiwIOnr6OfQ7bffnoIiisJq4ucoDs2QuDRwbQA8d911VwpbTTFv2ZKF3ayKQikLtsh44twaS+sS9QFwcktuGj01K2jlzUgzeNWSNsW8tq5YnuJmFepyWb3yfNwsVIJWAbTo6ExME1cOvOjvTGzniLuHBcdZt9cMCUfoWe6///6ZGO8AmhGFlVd8fZEWrJH0bHLghBtzDMAshGZQqQ0K2Yip2UBrdGwire9dvGRp2i4slzPv7zswnPKe7TtSxNH98RzIDFcBTtQVvlYZeLRHQiZb6uM4j8UJVblj/UZieR4jX7MZqAStAmgRjThdAiQTlrEBN0WkMvGJT8RGxgZionbNkNw7/zmJYYQo6JkQUZcYCKS4qjhnASYOez7vBFB5ZtxaI4RTPldqNp2Whc9d3ZvCqtVrU1jkrT29KbSyfPWatWHz1m1h+cpVqc36js6wJZ6v29CR2qzbsCF0bexO4wCkNevWp5DJYsnv2Nlfabd5SwrfrJ9yIZflG+N4xt+1e08YiUBQe1+NSiVo1Sjiy9T8aQa0IuA2AwmjbB/DdR0daVKKAf/mUhFOtiaw2Rr/mbzy2uth9dp1Ydv27SlfvXZt6Ihcv40q1sRzEUz74j8VG73a9DWDHrBbHEV8Y4t0agsx/ZeuWJGAS1gn4Wzq3Vej0uh4CVolaLVYSqB1mO6GzqbxCWjZLXopnWFvTxQVdyQCSq/HiWk3ajtA98QysbMA147I/doNGqhpK67W7igJbIjgZLNWQLdpy5awPnJi3THf0d+fvOeVa28zDe0cA6169/V+ESCqV/52VIJWCVotl5oNtDLtP3Ag7B+ms6pMzF1RbLdxBWdKvklyOwzJMzmn03Ks34GDB9Nx9mkajufKc72y3M5xLm8mKkGrClp0V1nv0yy6qvNN3BjeTcquHPRX9FvnMjgY91JGZa1NzQpaAMSEzEDieCxyYc5zWTHPbYtl+bj2XNti+2Jds5HnaHvQEoMLUOWF4NweWMucs54x92cfpmZNQEWYZEp4SnfKde4clPDWkYpcytWBZZGFEWBRvOfQyiyI3gGrIyNFtiSyQNot3FjemyVf2llveqmig2SdVr0PvlEpi0gVS+As4GSwyYCTj3FYe/btmynLnFWxXzqujrVraCj0D9qEdXYcefEeLhWV4uF5pqJ4mKMgmJB8l371q1+lSc1XCYhlTqwZk3jsduwGMMDJ+lA/vAXUd9xxx8wO0/zQPC8AUud9ADkuE1wj+KsBc+VcQ4yrzrl+6sXX5wPmGpciVTitifiBm5TNQfynuB6w/g3Efwq923ekTVb7BwZD9+YtSSm/M/4TsXkLtwgWwM6ujQmIbDzTHX/Ljng+FDnjnt7taRPWbT29aTMZUSCWr1iZrI87Yn9jED0p6rk/VHRazUMlaBVACyjxyTLZ+CvhOiSTlGc4F4hmTERf4OKZgG9ezK5MrgynBLAAFPIucEqAiRsIHzZcp7bqhbfBdeHSgJUyoqT1prgsG1jodylSs4IWn6mu+I6B0eI3l4SVq9ckS9+K+E2y9HF3YA3ks7V02fLkrtDR2ZXaAjugZUdqAJUtg4CJS4W67C7R2dWdrI7AUF29+2lkAsIlaBUU8fQ5JjlxyrFlLl4Q8bFZdV1ZR5WTZwJKnpEYaLMJ/lmAR1LnHegHrIocpj55wbzE78t4Ur4OsVKooksV2aMiHjYfaHF3sE2+LfCBELcFwJLdF9DiyNVujPXr1tvCryOst0V+BCftNkZRnbuETV/4aqnX1tjOe3p3pHNAB8RsiNEIoHWoTtk7Uclp1YBWmZo/NSOnhYDLnr37kuc7QOHBzvN9/8GDybs9iY98tSIA5SU/2g3sGprxeOecyqlUe5ZHY2UuzjW0Hxzandprw6m09j4anUrQKkGr5dIMaNHVNBnx2UJjkYOV879C+ZgiWl0ud5zPc1/7H+a6w1GUMm7qG/PacYvXbhYqxcMStFouHTtxJhwcnXUVaAVKVjNg4zgSVwgcRybn2T2CZTGBW/W81chztT1oZZcH4Vfoa+h36HlaKXHbYFCQPCfDQqsmnNbByGnV++CbkUzSVatXJy94lsW9+4iQ+5ODaHaR2NHXl7zqAdigNrGeh/xIwQ2iVagErSpoAStmftY00RxMau4BrGNZ0dzMiY8ZtwaJgpzbQ6s60bYiaC1ZtixZEfN6RGsM5Zvi5O2K/4w2dHakpTkTUTS0NMdyH+sT+XKNExPrjNusVIJWQTzkFMnEz5Qvtj2zPTcBlrRmT56BOwdwBlaesRkiNswlVUDLROVA2RrEKmgN4htvvhmWxX84GcCSG8SKlZX1iT09ifPqTCDWmdooq+zYU3/cZqQStAqgZWILz8LEzws8+yQ10hKVuSbPxu+KmOh5eMafa3lOs6aKTqu1QIvVj8WPZVAoGW4QO/sHwuDQULIeKtu+oy+1w2URFblBON81tDuCFs6z/tjNRiVolYr4lkutCFpAB/GrQvk8l+WcSwCXBnkurzdeM1MJWiVotVxKoNVi4uH50PjkVN3yVqEStNoItEQqzYm4SESk15IXd5i23pJ4nL3eiZMiteov5/murFbXlz3ls5e9nMc8cZtnvb7KciRY5epRTvkayvSZy87XdFqHIqdVdAkoqXVovASt9gAtYGEhOHcOkRisE7S20vpA1lKKeWsu7UhkYbTY8fR5rKiiOlhraEG5nN7vkUceSWP4eLILhd1+rF8UMcIYuQwAMnD4yOSMHO7D/RiL7tCaxXx91+aeYfONuSwFSqA1VoJWq1IJWm0CWhY727wCINxyyy3pHHBwhaCct2D6pptuCg888EACGpEbgNp9992Xdh5yDLS4SqhHIjvYLOPhhx9OAGc8gASYtHcODI0P4ICSxdpAUxQIH502eRH3/PnzUxnSxxrG2nWT7yYRD0vQal0qQatNQIv/Gb8zXJXoDn50wANIlAMd0RkAEysj7gkoaYPrUYcrAkq5LWACUFwpxNUiVjrGQekLeAYHBxMwOSb2qQNSIkPk6+f2ixYtSn5xyH3MdcF1KR62NpWg1YaKeNwV3RHuB5AQzeiQHNMz4W6QNnRU6uiw1OWVAnI6LVFLtZUX9VP0UXkc7eRSvkZO+nHeJb66lro8Zu5zvqnktFqbStBqQ9Bq9VQBran4gc+6BZTUOjQ+MVmCVglac0vvtAwI53SpHFgr4mEJWq1KJWi1kU6LHolymw4JoBDLiHP0UMopw1n+6JTomohrRERtiG1Eu7wMiEhpTG2y+wPiomAsW/Dn6xiDSArIiH6IzspYxtRf0o6l8UJj8Zeg1dpUglYbgBbdEIvdggULksIbKFGc33nnnSlXJx78008/nRZVU9QrA2IWkWuvHugBGJZHdZTylOoU6NpTxHNZeOKJJ8Ktt96axnI9yn+587vuuivlLJlAE7jp/9RTT4V58+YllwmAdiGJeDgSxcOx+IGX1Ho0UYJWe3BaOBi77HBt4GsFRABGBiVcESABHkArx8rHTSFAxacL58SamDm2HCeeJVAfLhHGFm6ZnxZyTRwcS6Nra8MSaSygqd9DDz2Uyp2zNF5ImgGtyMWV1Ho0ETn/ErTaALRY+3BCRC9glHNuBUBIPVcGQJLBCdDx0QIw3BYAEBcGVkfgglPKbbQHYMQ9QKhdFi9dCxC6FtIGiGXrpWuLsOGc1fFCtx5rJtASNuZYFJuno8gtH5+ytrB+21oShuZIfL/16lqZStAqFfEtl5oFtACWAH4iMgglI7wM4JqK/wySaT/WA6Zi+1wmFwRQlIdiW3luW+yXjzPp4zquV1vX6FSCVglaLZeaBbQAhphYl33uc+FLX/5yyn963XVp01Wc11HGD9zqiciBxYnqHGcFbKRFUZz/+je+EQTGO3n6dGpjzMkjR2ZI/wyCxWsr60zBBFeE4ydPnlXX6FSCVpuAFksdKyBdFNGMOFcvsRKyDBIJiXf1knJ6p2z1a7TULKA1feJkWLNuXfjYxz4WVq5eHTZ2d4dPfupT4YGHHgqHohj9i1/+MlxxxQ/DG4sXp/DJN99yS/jFTTeF73//+6ntc88/Hz7zmc8kQHr08cfDN775zfAft96awiz/+o470pZijn8Vy4RpnjxyNAEbQJS2RMD8m7/92/BanPwnT5+pe4+NSCVotQlo0TGx9rEC0j3RT7H4sf7RV9El0WlRzovWypKoHWU7shaRXoqynIXPbtXGbMQ0C1qV2FONSkBLwL7PfvazoXdHX7r3f7/lP8IPfvjDcP3Pfx6+8r/+Ovzrv/0ifCoC2UuvvBr+63/77xGAbovc2D+luscefyLmXwnPL3whfOpP/zQ8GX+zL37pS+HOu34TrrjyyjD/9l+Hp595Jnzhi1+MwDYRjhydDgdHRsMTTz4Vbp03L9y7YEEEum+F//KhD4WXXn4l3U+9+2w0KkGrTUDLj8zKh0PiAsENAUCx7AEuinWRG1j+WAKtRwRaLHvAzlpDYIYD08+5sS6F8+i5UgYt/jyNTMcTaG0In/2zy1L0Uenaa38c6SdJXPzKl78SfnnTzeHKK38UuaqF4c8uuyzs3bc/DO3eEz4Tge6OO+9MnNINN/5LEhOl+fNvD9/97vfCiy8uCt/61rfD30eu7Nd33Bm/8TNhKnJawwdHUpsrIjD+7GfXh+9897vhgx/8YLj7nnvDyTgRxOKqd6+NRCVotRGnRTQEVqx7LHRADHfFigiouDVYBO2c+Ej8w4HhyHBbxEaWPn5UODZWxrmuD3wvE9A63ASgdeLkqbRT9Ic//OHws+t/Hq6LHNTHP/7xsGFDZ7jhhhujGPgP4cVFL4Xf3H1PaveRj3wk3HrbvHDtj38SvvrVr8Z/Mr8Ll132ucRp/c9Pfzo8/fvfh89//gvh9ttvjxN7Klx++eXhf/zJn8TfuCccmz6erjkxMZXAUtq//0ACuLvj+NPTJ1Kf2ntsRCpBq01Aizc6FwUe63nBMsDJgfzykpx6S3O0qeWoAFpeHN1oqVlAi2J9YHBXuObaa8Pffe1r4QdXXBGWLlsWTsffBTf1s+uvTxzU408+mbbL/8QnPhGuuebayB19L21tbxeeeVWAAmBf+9rXw003/3sYOVxZUaAvjm36+ImklJ+5dvzdKOyXLl0WFtx/fwI0XFjx3hqZStBqE9Bqp5RAazyCVvy4G5kolSePnm3MYMlTN3XsaMDDZj62O07Sy//8z9PehxLQAXrqWQhPVjlef1kSAd3HI8ixMJ6KdW+59uREskSesJQq9q+tb2QqQasAWlnUydzHu024E5wIHU8t99FIFjZcVuaYcF7vJNrl59C+9n3ol5/ZmO/0voocGkdTbd/N+zX+XEItS0mn1QSg9W4JqPDJYmGUJ66pTjukrXp7IvL9Amz12l0cmvUde+/ordcoQasAWixqeYmJBHAsbTGB1VnOIjge/RAPbonOh4KaMps+yGRTB8Doi7xYAHGpE32WZTQ82CndKdpZA+m3PF9xITPPeeU81LV77rnnkte7Ou8hL/lRRxdm7aCQzOo8u3Hou3i7P/bYY+nayq1X9H69E+N7l8g7pNgHUq5Bd/boo4+mJT9zSc3CaZ0PASJc2DsBVpGAFdeGZuOi3g2VoFUALRPLGrgcJphljenfhLrjjjvSRMpWNCDlxZm0OAcTVShjCmpEeb1w4cIEFMWgd5cqZcU54MhgALzcP11XDn9MOW9h9N13351yz5TLWQ0BlnGAlPflXQFn7TLQsEB6R+r1dew9ADqGAGVCNAP5e+65J50bmyEAALovoOYac0mtCFoNSfGfUt3yi0l1rlGCVhW0iDycLk0q1jNWMhOITxJOwwQ2Wa3TE6UA56ENriwDgjLgZRxcjAmsXyOAlmfyI6PsrwUYPCOABsZ8sZR5RpEacEVFjsy7QdYPAiocpGfFqRkDl4STA07AkQXStYxjbATMAaDY885tgOF92s3b+8J54fB8lHNdg9hq4mFJZ1MJWgXQonMh3mU9lGPJ5ANQJqk2JmjRsdJkLfosybUFYkQffRohEd8sXnZ/QAyH6B4du18EfD2r9wGcgJI+2upH5PNeUH5n6gCz/kS8DHzK1SsDRMYxpvA1QA2XBpjye/Pe89jGuxCdVslptS6VoFUQD8t0cRIwe6ekfq6A9G5SBbSOxI97qilocurIDNWeF8uKOReFYn2RUnmsz8czZQVKCvtqXXNRvP+Yl6BVglZDpnOB39sloDXaRKC1K3K7h0fHkg/S1FQFbAS7s/7w0Ejk8qvngCoFwYvnwwcPhf0HhsPuPXuTch4A4UKyv9WevfvC6JhNICZnwGl8fDKNpy61r9Y1F3iVoNW2oEX57oeXiLfZxYHljhhHKc6KiCjGJfomx0Q8IrJzIqH+REyiJj2VvgwVRD/ipj50f6yvua2+dFt0gFn0dE/qiY9youhcUuK0JircxLsmE6Je+XtF1esBnM4oSm/Zui10bewO/QODoXf7juSP1R3f27b43nYN7U7RIISwEZlhR9/O5NJgwfOGjo60KHpILLLDh8Ow3ya+37Xr1oWd/QPJv6tvZ3/YGsfZtHlLyjd2b0pjGHPnwEDYE3/zwV1D6V7ecp+NRgmgS9BqG9ACEBTolONym7bSWVn8DGzo6eiaWPJy9FHRTllQARJdFTCibGdgoMx3rD2rK4AzjvGNmfdF1C4r9NUb0/hcIfRneVROD+Ya9F+Ajj5wLmlOoHWJKIWIic8NZDbFfwSOuyLod8T3AGB2xvcDXFasWhWWrViRgAwoIYDjHICtj+926tixsLW3NwJSX4rwwK8LWZStTV8cS1SJ5fGfBVA0/vp4nVWxjSgQ7qXePTYUlaDVfpwW7gZgABBWUaDC3UFZBg5gw8qnja3pgRALH2MDYEM4J1ZBbeUsfz4igKOdsM3ATL0xXQN4ZasqEMNZ4b6ylTLX03fh5Iwzl9RMoIW76Y3caG98D0MR9AELQLFER7491uGWABnw2hXb4KrU9cQ+zrVVxy9LCBuAJXSNsRwDvlXxnw3gSteKhIMzLi4NIOLSSk6rSVK7gBYuiMiFu5HjnICCnBhHLNQGILEesjQSGYl3xEE+UyyBRLZMGaCIkwAHuAFB4h8gUu8YN4ezA4TGA0jqcHU4K5wXDk47YCiyBC5rrq4iSafVJKCFzrKMxXMAIqKp49HIHTtWltvKLQES/E8sLeB1MP5GSbcVyfHhWJ6PR2JfQLU/iuS5jTH1B3I4NmXGbXhy/zEvQasNQAtQAYtGS7gtlMHvYqRm4rRQBhKTcea4DhHfUD5O5YU+eazcrrZ9Oq62yRFQ9cl5U5BnjXkJWm2oiG/llDmtNEGbgKaACiCJ4JEpl+VyOa4LsOtzOObFupynMWM+FjktXFaxPLfjZX4wcrLO39L3PAiI1Cu/mPSWa1TvswStNgAt3AyLXXbklFjtOHgSA7MzZ3YIzYloqJ7DJ0uhpB2HW+0QLomSX+46xriUqQJas35MjUqAArgQ39CB4YNhIIrnBw4MJ9cEwDQc3ymXCEAzMDAYhJPRjp5KvjuK2RXXiJGwjz6ruzsBknH127N3bxT99ydgErJGmTEp6ynxtVVWAbFzvTPAUa/8Qug8x6zeYwlabQBadEw2a6V7oi8CVtYR0idZduMDID7SO9Ep0XX5MB544IGUq6M0B04U9nkdofWZxlbP2mhNoTWXOSLqpUjNA1oVnyruDmhdfPfcFNauW5/iZ3F1qMTN6o6gcyzWDYbV8Z1uir/HxljG4sjyt62nN/5mq8P2HX3JrQHgASgK+nVxLO2PTh9Prg+rVq9JLhVd3ZsiaG1O7cXw4kpRAa0Gf28laLUPaPmBuSXwoQIylODKcFHcC6w9dM6Kx9rHmqhMCGbKczoxYGfxsw8GcFkvSNEu4dQskNbPdYAjwANsFkUbw9gWVePG3svULKCFBODbuq0nrIngAnRwQJ1dG5MvFbDiAsF3i2VQDtT4Zy1fviK1wy1RpK+MoKXOGBxOBRHUH/h1dHUmp9R9+w+kCKgbIhACyZ7e7akeSLJSVkSvBqcStNoHtFgDARaOiMXOjw5wgJCc1VC5Y1wWkNGHNVA/YKQMCFkjqExbFkPcmT55LSEfrgxerIE+LnXcGbhcZDHzvUoJtCbjx20SNjBl5TjLXn98/8ocsxTui+8RGCVLYORutZMjlkPl+2Mb/bK1ERERWQSBn7G4R3CL0H9kdCyJlayIxuFUOhz/EbmOOF3a1N7j2VTVKVUpKcUvmM4es5beco3qPZag1QagRc+U1/zRazl3TM8lL6a8fEaeF4vTbXFzyHXKpDyGMXMd7o3YScy8FKlZQCtTdmcAGiKSsuyh4j6H2skzFdvUlivL2205Rrl/Hr84Ri4r3lPDUrxveQlabQBa7ZSaDbQy4NQCUK7PIFM8L/abKaueI2PlfvXa5z7F86ag6v2WoHWRQAv38V7ra8p07tR0oBUJp2UpDWdRVkNcEoufepxYWgztPLYj2hEDecUrz23k3CKS42kcw5isjtqrZ5lUZit9YqG2icOL/fK9NDplkC1BqwpavMUppeluJOZ8SmvmfmISAkrAiQgkyS1Loa8hDtHXUEhbtsLDnFilLPepFcXer2SNn+fKS3XolrJHvOU2Weckl9wz/ZWPgyVQnyz+NXoCWmMRtEzGZiDgJEYUy6DlPBTtcoADWFgBe3p7U7vBCGx+i63btoXl8dtUbvlP0kf29CQrIL2VhdTaOPb7qWNtZAHWxrIfvze9pHHr3VcjUr7XErSqoGUCW2sHdFjLLCsxoZnuhVtmzqdkFu3T5FdvYgMky2BEOaXoBnQ5TDFA00aETsppwHcp/JjcA6W7Le0Bk3txnxTl9E+e14dAIW/JjrocnVR7dZcKcM83NRtoZfLtJGtgBBqAc2jkUNgbv6v1GzaENWvXJmDz2zB8AKXNsX1f/N30Ub8i/iMCcCyBABAoAUD/oLhT+K215ybB3cV3zaDi2s0CXCVoxZRAq8pA9PcPhJdfeTX+uNsjcO2Lk3lhePDB30bAsfD39fiitsSPpTO89vobyWFvz5698YPqCL29FrvuSeE+5MzKOdSIfMXKVal/V9fGyKlVtn16v1NH9b759DCdDw3tiT86i2Bfeo5Nm7Ykk7kdjMVp8pxr164LBw+NJIfGwcG5xWu/FKkCWsfix+0Dbw4yGf0uOCluCMCFbxZHU35WzrXjUJrrxcUSV4ulkL8VPyzfn9hcwIqfVwpBE+uEntHG9vvKtdOGe8RRuq2a+2lU8k5K0KqC1pn4Zyz+2JMTU2G0utnl2Oh4FBGnw+DArrA/TuapSXVjYfmyyKFs601tpK7OrrBrcChMx7bS9LGKSf/UyVNhQwQwdc8+81wYErNoYjKcxtpBrveRXNezbYzAObRrd7q3qckjYeTQ4bB1y7Z07P7zvUubujeFvviRd3ZEcWLT5njfcaCacS+Y3oPUjKA1S8eSH5JjExSJvVVs4zzXzbbBhRTPZ/sY72j8bfk4CTLoOLfJ12oWct8laMXJfKrnn0IYuDrKh/8Y6acVGvhxJd8Vy/bE+t3XVY6V7f95pUybwZ+EsO9n1fp4rEw75anu+nB65zXh+PYrZ8fQ5v2m9GyR9lbv1b3l590bn8V9uX/l2su19ZzxGdJx7ZgXSv0/CmHnP4dw8uLuVJ1Aayp+3ESJBicWPCDiWG43aFuFJVeFanmaqLV9qtbB4nFum0Cppk3upz6Pl8/zdZqB0rO0PWiNjYRT278ZwlScpBNx4r4XNBmBYSoCRb26tqarIihGmh6p/hoXJzULaJmALHscRVnEOIfmGFjKWPiyxSy1B2RVIFKnL+th7q+ueJ4dRrVXl4/tXl0ENGMlK6K66rUaldL9l6B1OJzq+4cQjkTuaeqGWZqMHID8yI2z55mKbZqF8j0XabJK9Z6xLhX71dTlMd92LPWx7qyyCOT7IqBPH67+GhcnNQtoWZrDDYFlD9hss2ohTkbxsSzfcQx8TFSAxpOddzuP9/6BgaSsF8FUcD96L5ZG7VkGARFFPTcKLg7FnKsEYKMX4zGvHVeLBAh17rORqAStmIqgdXr8+nBm4ufh5GgUiaoTb/rQP4ZTY1E0OvavlQkZ8xOHr5stQ0f/pWYyNh7lZ0POU159xrHdV6b6MP1vs88jd+5YW3mkYwcjR6qfeu8DqYtl3svkvqsrYxXfTTUvXrNC7w1oTUfQGo+gRbndyHS8ClrAhzsMxTirnwXMyoAJYJs+fjxFYVi5alWqY/FjJdQGeLEeZlcHoqUxbYmvnEVR6OYlS5cmkNLH8h91XCZYFUWGEBWCQr7efTYSpXssQasKWkdvCIcG/iHs3Ph/Ux6O/yLlfV3/J0zsvSocHPxBOHLg2jCy64qwt/fboXfD34SjEdBGYvnhWJZA7KwJ2UAUQWPf9u8kQDnY//1Encs+H6b2X5Oeaevavw4H47N6lv07vpueV76n51thfM+PUv+J2Hd459+nvp5XDsCA+lQcQ9uBTX8XNq36cqobHfphuqb+zvXtWPpXNe+pvUHrWBTROIECpxQeOYIKdwXET8sGH2khcxTduDtwYcBRATfABLDUy53z1zoRQQvA8cniLmFcbYCUcn5dXHX0AXyumX29+IU1OnCVoBXTDGgduzFNapNZvq/vewnAcAc4h9WvfS5N7t3bvhkOxDqg1b3yS2HZok+n49MmYqOCVuSYPAvQ8AwAZt3iv0ighXrWfzWRNkibHZ3/O5VpeyZySUNbv5GAJwO28sHNX0vvwnvo7/5/M6DlOJOx+qvjrnn98nD6LG6rvUELAS6xsMS0IvYAKOUAhNc7cAFYJmsl9lQFwPIxIHKey7QzjnNjqz8QxUrnxhW3y7iO+d8lz/lYJ9c/31ejUglaMc1yWv+cOAiTEod1Moo9JqSJiVMwgdWZvLgIHIRJqd75yUbmtCLoeBb3CXg8364tX09cFlHYuWfHGXmezJUhXBcRUH/cF25MX+cZwAASwFKW+xpTGXBzTgTVrih6l6BVIeBCVDQhK1SZnMTCXK7dbP0s6Vs8z2PmY/XGqT13LC/2z30bmdJ9lqBVo9OKk+nU2PUVXc3UjRGcrgrHR64LR4d/nOqORpHIxKvohyrn04d+Gk7R46TJ2IAU7ytzOO7ZMTHt5GgE2lh/erzyLID3yIEfz7SvPKN+N6Z3k+riO6C78tzqiIb6y7231C+2MZ4yeX5X3lt6tzPviTtFBK42B62S3j2VoBVTcnno/XoIE1eHMH7tLI1dE/NIk1wh4vlEnLDKc64un6t3rk+jUvGei1Rbl57PcYFym1xXfB+T1XzmvaBq+1yXx3nLe/phCLsjXWSXhwpoTcePHHA1E5mY73R+aWmqTtmF0vmOmXzQjlQ2Gm5f0JqYiqAV//sPxgk1GEWVkt4/6o/A1R85rovsXDoDWv4rNxOZmO90fomJH1e98guh8x0z+ZdFMG9v0DoaZtYelqk1Ej+tiQhaWVdTUusQHVwJWkfPhNMlaLVUwmk1JWhVdTZve15SCVrS6JEzYfpklFBOl9QqdGS65LRalUrQiungxJlIp8Po1OlwuKSWoOHxU2HiyHTaIchH3jRUnZRve96qdB7Pmd032hq0Dk+dCUenT4cT8V/0cXSiQlliPH7yTKU80onCcYVmz0+equjGpmPfeJrapjwW1rbXTnSa2fLC2PrHseJh6pv1bc5zfbFfSW+lyaOnI2gdbz7QKumcVIJWTEDrSAStnIAOcOnbORg6N24Ox46fSucnIpBkQMrnOVc2Oj4V9h04FAHnTDpWLj9yTKiRM2mc3H/v/oNh+ODh2CaCVXWcXJ/6jU2G4UNifk+HPfsOhA2dG8PI6ESqL+ncNFEFrfwfPIsVRREjH19IWT6uV1akuZQ5zlSv/kLK8nG9siLNpSwdT9cvy+czZY6VV4+LfTLVjpPOS53Wmfihnwkvv/J66N3RnzibY8dPhldfeyMsfOHFsL2vP6zb0Bl29u9KZQDk0MhY2D88EroiqHV0dYeOzu7w2uuLw4MPPZzGXLuuI6xZtyG88urrYe36jrBlW28CQWW9O3aGJ556OqxYuTrtHrytd0ccszusXrM+uV8cnT4Zenr7wpJlK0JX9+aweWtveHPJ8rBy9dpwIAId0Ks3UUuaJaA1WXJaLUklpxUT0JI+d/nl4S//8q/CwQhIxLJXIkD94cWXwjPPPR8eePC36XxpBJJHH38ydG/eFlasWhPmzb89PBbPn3v+D2HJ0hUxfyGN9ebS5eHFRa+EB3/7cLj73vvCU08/G15/Y0m46+57EqABsvsWPBAe+u0j4cWXXwlbe7aH1954M/T123hzPAzt2R92De0NPdv7IihuCk8982wCx8TJlaB1TkqgdTRyuPED95GX1DpkWRPwanvQIp49+ujjiZupRH08EQZ27Q6Du/aEF/6wKCyM1LmxOzzyu8fCopdeiWC2KKxZuyE88+zzYenyleHVyGWtjVzUqsgtnTx9JuzoG0gc0+atPeG5hX8IbyxekriuZyMA4tpeiGCIk3r2uYWpzfCh0fDSy68mLsy1cXxDe/ZFzmokASTA3LRlW+LuStA6NyXQIpYL61JSS5HQO20PWrU6LQDmw8+6KjV4MYQL2hHFPEmdRJwsUu5rHG300zSPo6w4rmNt9U394gEQmzp6fOYe0MFYlvVjxQla0lsJaE0dO5m2fgNcJbUOCb1D7K+A1hvh/wO1vdf5Nbvh2QAAAABJRU5ErkJggg==;imageBorder=default;strokeWidth=1;rotation=0;" vertex="1" parent="1">
          <mxGeometry x="1440" y="800" width="771.52" height="710" as="geometry" />
        </mxCell>
        <mxCell id="C6XlPYrIIHPJKQmVjB9T-11" value="" style="group" vertex="1" connectable="0" parent="1">
          <mxGeometry x="1970" y="108.5" width="103.75000000000011" height="141.5" as="geometry" />
        </mxCell>
        <mxCell id="C6XlPYrIIHPJKQmVjB9T-2" value="" style="sketch=0;points=[[0,0,0],[0.25,0,0],[0.5,0,0],[0.75,0,0],[1,0,0],[0,1,0],[0.25,1,0],[0.5,1,0],[0.75,1,0],[1,1,0],[0,0.25,0],[0,0.5,0],[0,0.75,0],[1,0.25,0],[1,0.5,0],[1,0.75,0]];outlineConnect=0;fontColor=#232F3E;fillColor=#8C4FFF;strokeColor=#ffffff;dashed=0;verticalLabelPosition=bottom;verticalAlign=top;align=center;html=1;fontSize=12;fontStyle=0;aspect=fixed;shape=mxgraph.aws4.resourceIcon;resIcon=mxgraph.aws4.cloudfront;" vertex="1" parent="C6XlPYrIIHPJKQmVjB9T-11">
          <mxGeometry width="101.5" height="101.5" as="geometry" />
        </mxCell>
        <mxCell id="C6XlPYrIIHPJKQmVjB9T-8" value="CloudFrond" style="text;whiteSpace=wrap;fontSize=16;fontFamily=Verdana;align=center;" vertex="1" parent="C6XlPYrIIHPJKQmVjB9T-11">
          <mxGeometry x="1.1368683772161603e-13" y="101.5" width="103.75" height="40" as="geometry" />
        </mxCell>
        <mxCell id="C6XlPYrIIHPJKQmVjB9T-14" value="" style="group" vertex="1" connectable="0" parent="1">
          <mxGeometry x="80" y="241" width="130" height="142" as="geometry" />
        </mxCell>
        <mxCell id="C6XlPYrIIHPJKQmVjB9T-3" value="" style="verticalLabelPosition=bottom;html=1;verticalAlign=top;align=center;strokeColor=none;fillColor=#00BEF2;shape=mxgraph.azure.git_repository;" vertex="1" parent="C6XlPYrIIHPJKQmVjB9T-14">
          <mxGeometry x="11.75" width="106.5" height="99" as="geometry" />
        </mxCell>
        <mxCell id="C6XlPYrIIHPJKQmVjB9T-12" value="Git Repository" style="text;whiteSpace=wrap;fontSize=16;fontFamily=Verdana;align=center;verticalAlign=middle;" vertex="1" parent="C6XlPYrIIHPJKQmVjB9T-14">
          <mxGeometry y="102" width="130" height="40" as="geometry" />
        </mxCell>
        <mxCell id="C6XlPYrIIHPJKQmVjB9T-17" value="" style="group" vertex="1" connectable="0" parent="1">
          <mxGeometry x="310" y="237" width="130" height="150" as="geometry" />
        </mxCell>
        <mxCell id="C6XlPYrIIHPJKQmVjB9T-5" value="" style="dashed=0;outlineConnect=0;html=1;align=center;labelPosition=center;verticalLabelPosition=bottom;verticalAlign=top;shape=mxgraph.weblogos.github" vertex="1" parent="C6XlPYrIIHPJKQmVjB9T-17">
          <mxGeometry x="12.5" width="105" height="110" as="geometry" />
        </mxCell>
        <mxCell id="C6XlPYrIIHPJKQmVjB9T-13" value="GitHub Actions" style="text;whiteSpace=wrap;fontSize=16;fontFamily=Verdana;align=center;verticalAlign=middle;" vertex="1" parent="C6XlPYrIIHPJKQmVjB9T-17">
          <mxGeometry y="110" width="130" height="40" as="geometry" />
        </mxCell>
        <mxCell id="C6XlPYrIIHPJKQmVjB9T-20" style="edgeStyle=none;curved=1;rounded=0;orthogonalLoop=1;jettySize=auto;html=1;fontSize=12;startSize=8;endSize=8;strokeWidth=3;" edge="1" parent="1">
          <mxGeometry relative="1" as="geometry">
            <mxPoint x="213" y="292" as="sourcePoint" />
            <mxPoint x="303" y="292" as="targetPoint" />
          </mxGeometry>
        </mxCell>
        <mxCell id="C6XlPYrIIHPJKQmVjB9T-22" style="edgeStyle=none;curved=1;rounded=0;orthogonalLoop=1;jettySize=auto;html=1;fontSize=12;startSize=8;endSize=8;strokeWidth=3;" edge="1" parent="1">
          <mxGeometry relative="1" as="geometry">
            <mxPoint x="450" y="294.33" as="sourcePoint" />
            <mxPoint x="620" y="294" as="targetPoint" />
          </mxGeometry>
        </mxCell>
        <mxCell id="C6XlPYrIIHPJKQmVjB9T-29" value="1" style="rounded=1;whiteSpace=wrap;html=1;fillColor=#007CBD;strokeColor=none;fontColor=#FFFFFF;fontStyle=1;fontSize=22;labelBackgroundColor=none;" vertex="1" parent="1">
          <mxGeometry x="167" y="420" width="40" height="38" as="geometry" />
        </mxCell>
        <mxCell id="C6XlPYrIIHPJKQmVjB9T-30" value="Deployment Guide" style="text;html=1;align=center;verticalAlign=middle;whiteSpace=wrap;rounded=1;fontSize=24;fillColor=#f5f5f5;fontColor=#333333;strokeColor=#666666;fontStyle=1;strokeWidth=2;" vertex="1" parent="1">
          <mxGeometry x="52.5" y="68.5" width="283" height="61.5" as="geometry" />
        </mxCell>
        <mxCell id="C6XlPYrIIHPJKQmVjB9T-31" value="Prerequisites" style="text;whiteSpace=wrap;align=left;fontSize=15;verticalAlign=middle;" vertex="1" parent="1">
          <mxGeometry x="217" y="420" width="140" height="40" as="geometry" />
        </mxCell>
        <mxCell id="C6XlPYrIIHPJKQmVjB9T-33" value="2" style="rounded=1;whiteSpace=wrap;html=1;fillColor=#007CBD;strokeColor=none;fontColor=#FFFFFF;fontStyle=1;fontSize=22;labelBackgroundColor=none;" vertex="1" parent="1">
          <mxGeometry x="167" y="480" width="40" height="38" as="geometry" />
        </mxCell>
        <UserObject label="Use Node.js" link="Use Node.js" id="C6XlPYrIIHPJKQmVjB9T-34">
          <mxCell style="text;whiteSpace=wrap;verticalAlign=middle;fontSize=15;" vertex="1" parent="1">
            <mxGeometry x="217" y="480" width="100" height="40" as="geometry" />
          </mxCell>
        </UserObject>
        <mxCell id="C6XlPYrIIHPJKQmVjB9T-35" value="3" style="rounded=1;whiteSpace=wrap;html=1;fillColor=#007CBD;strokeColor=none;fontColor=#FFFFFF;fontStyle=1;fontSize=22;labelBackgroundColor=none;" vertex="1" parent="1">
          <mxGeometry x="167" y="540" width="40" height="38" as="geometry" />
        </mxCell>
        <mxCell id="C6XlPYrIIHPJKQmVjB9T-36" value="Install pnpm" style="text;whiteSpace=wrap;verticalAlign=middle;fontSize=15;" vertex="1" parent="1">
          <mxGeometry x="217" y="538" width="100" height="40" as="geometry" />
        </mxCell>
        <mxCell id="C6XlPYrIIHPJKQmVjB9T-37" value="4" style="rounded=1;whiteSpace=wrap;html=1;fillColor=#007CBD;strokeColor=none;fontColor=#FFFFFF;fontStyle=1;fontSize=22;labelBackgroundColor=none;" vertex="1" parent="1">
          <mxGeometry x="167" y="600" width="40" height="38" as="geometry" />
        </mxCell>
        <mxCell id="C6XlPYrIIHPJKQmVjB9T-38" value="Install dependencies" style="text;whiteSpace=wrap;fontSize=15;verticalAlign=middle;" vertex="1" parent="1">
          <mxGeometry x="217" y="600" width="140" height="40" as="geometry" />
        </mxCell>
        <mxCell id="C6XlPYrIIHPJKQmVjB9T-39" value="node-version: &#39;20&#39;" style="text;whiteSpace=wrap;fontSize=15;verticalAlign=middle;fontColor=#828282;" vertex="1" parent="1">
          <mxGeometry x="311" y="481" width="130" height="40" as="geometry" />
        </mxCell>
        <mxCell id="C6XlPYrIIHPJKQmVjB9T-40" value="version: 9.5.0" style="text;whiteSpace=wrap;fontSize=15;verticalAlign=middle;fontColor=#828282;" vertex="1" parent="1">
          <mxGeometry x="311" y="540" width="110" height="40" as="geometry" />
        </mxCell>
        <mxCell id="C6XlPYrIIHPJKQmVjB9T-41" value="5" style="rounded=1;whiteSpace=wrap;html=1;fillColor=#007CBD;strokeColor=none;fontColor=#FFFFFF;fontStyle=1;fontSize=22;labelBackgroundColor=none;" vertex="1" parent="1">
          <mxGeometry x="167" y="660" width="40" height="38" as="geometry" />
        </mxCell>
        <UserObject label="Build Next.js" link="Build Next.js" id="C6XlPYrIIHPJKQmVjB9T-43">
          <mxCell style="text;whiteSpace=wrap;html=1;fontSize=15;verticalAlign=middle;" vertex="1" parent="1">
            <mxGeometry x="217" y="658" width="100" height="40" as="geometry" />
          </mxCell>
        </UserObject>
        <mxCell id="C6XlPYrIIHPJKQmVjB9T-10" value="" style="group" vertex="1" connectable="0" parent="1">
          <mxGeometry x="1530" y="108.5" width="104.5" height="144.5" as="geometry" />
        </mxCell>
        <mxCell id="C6XlPYrIIHPJKQmVjB9T-1" value="" style="sketch=0;points=[[0,0,0],[0.25,0,0],[0.5,0,0],[0.75,0,0],[1,0,0],[0,1,0],[0.25,1,0],[0.5,1,0],[0.75,1,0],[1,1,0],[0,0.25,0],[0,0.5,0],[0,0.75,0],[1,0.25,0],[1,0.5,0],[1,0.75,0]];outlineConnect=0;fontColor=#232F3E;fillColor=#7AA116;strokeColor=#ffffff;dashed=0;verticalLabelPosition=bottom;verticalAlign=top;align=center;html=1;fontSize=12;fontStyle=0;aspect=fixed;shape=mxgraph.aws4.resourceIcon;resIcon=mxgraph.aws4.s3;" vertex="1" parent="C6XlPYrIIHPJKQmVjB9T-10">
          <mxGeometry width="104.5" height="104.5" as="geometry" />
        </mxCell>
        <mxCell id="C6XlPYrIIHPJKQmVjB9T-7" value="Amazon S3" style="text;whiteSpace=wrap;fontSize=16;fontFamily=Verdana;align=center;" vertex="1" parent="C6XlPYrIIHPJKQmVjB9T-10">
          <mxGeometry y="104.5" width="103.75" height="40" as="geometry" />
        </mxCell>
        <mxCell id="C6XlPYrIIHPJKQmVjB9T-24" value="" style="endArrow=classic;startArrow=classic;html=1;rounded=0;fontSize=12;startSize=8;endSize=8;curved=1;strokeWidth=3;" edge="1" parent="1">
          <mxGeometry width="50" height="50" relative="1" as="geometry">
            <mxPoint x="1660.5" y="165.82999999999993" as="sourcePoint" />
            <mxPoint x="1950" y="166" as="targetPoint" />
          </mxGeometry>
        </mxCell>
        <UserObject label="Update Next.js Configuration" id="C6XlPYrIIHPJKQmVjB9T-94">
          <mxCell style="text;whiteSpace=wrap;html=1;fontSize=15;verticalAlign=middle;" vertex="1" parent="1">
            <mxGeometry x="678" y="276" width="230" height="40" as="geometry" />
          </mxCell>
        </UserObject>
        <mxCell id="C6XlPYrIIHPJKQmVjB9T-97" value="6" style="rounded=1;whiteSpace=wrap;html=1;fillColor=#007CBD;strokeColor=none;fontColor=#FFFFFF;fontStyle=1;fontSize=22;labelBackgroundColor=none;" vertex="1" parent="1">
          <mxGeometry x="632.5" y="276" width="40" height="38" as="geometry" />
        </mxCell>
        <mxCell id="C6XlPYrIIHPJKQmVjB9T-83" value="7" style="rounded=1;whiteSpace=wrap;html=1;fillColor=#007CBD;strokeColor=none;fontColor=#FFFFFF;fontStyle=1;fontSize=22;labelBackgroundColor=none;" vertex="1" parent="1">
          <mxGeometry x="1037" y="279" width="40" height="38" as="geometry" />
        </mxCell>
        <mxCell id="C6XlPYrIIHPJKQmVjB9T-84" value="Configure AWS credentials" style="text;whiteSpace=wrap;verticalAlign=middle;fontSize=15;" vertex="1" parent="1">
          <mxGeometry x="1087" y="278" width="200" height="40" as="geometry" />
        </mxCell>
        <mxCell id="C6XlPYrIIHPJKQmVjB9T-103" style="edgeStyle=none;curved=1;rounded=0;orthogonalLoop=1;jettySize=auto;html=1;fontSize=12;startSize=8;endSize=8;strokeWidth=3;entryX=0;entryY=0.5;entryDx=0;entryDy=0;exitX=0.922;exitY=0.55;exitDx=0;exitDy=0;exitPerimeter=0;" edge="1" parent="1" source="C6XlPYrIIHPJKQmVjB9T-94">
          <mxGeometry relative="1" as="geometry">
            <mxPoint x="460" y="304.33" as="sourcePoint" />
            <mxPoint x="980" y="298.0000000000002" as="targetPoint" />
          </mxGeometry>
        </mxCell>
        <mxCell id="C6XlPYrIIHPJKQmVjB9T-104" value="" style="group" vertex="1" connectable="0" parent="1">
          <mxGeometry x="940" y="360" width="430" height="150" as="geometry" />
        </mxCell>
        <mxCell id="C6XlPYrIIHPJKQmVjB9T-100" value="" style="shape=cylinder3;whiteSpace=wrap;html=1;boundedLbl=1;backgroundOutline=1;size=15;" vertex="1" parent="C6XlPYrIIHPJKQmVjB9T-104">
          <mxGeometry x="75" width="280" height="150" as="geometry" />
        </mxCell>
        <mxCell id="C6XlPYrIIHPJKQmVjB9T-101" value="AWS_ACCESS_KEY_ID&lt;div style=&quot;font-size: 15px;&quot;&gt;AWS_SECRET_ACCESS_KEY&lt;/div&gt;&lt;div style=&quot;font-size: 15px;&quot;&gt;AWS_REGION&lt;/div&gt;" style="text;whiteSpace=wrap;html=1;fontSize=15;verticalAlign=middle;align=center;" vertex="1" parent="C6XlPYrIIHPJKQmVjB9T-104">
          <mxGeometry y="64.5" width="430" height="40" as="geometry" />
        </mxCell>
        <mxCell id="C6XlPYrIIHPJKQmVjB9T-105" style="edgeStyle=none;curved=1;rounded=0;orthogonalLoop=1;jettySize=auto;html=1;fontSize=12;startSize=8;endSize=8;strokeWidth=3;exitX=0.922;exitY=0.55;exitDx=0;exitDy=0;exitPerimeter=0;" edge="1" parent="1">
          <mxGeometry relative="1" as="geometry">
            <mxPoint x="1160" y="521" as="sourcePoint" />
            <mxPoint x="1160" y="621" as="targetPoint" />
          </mxGeometry>
        </mxCell>
        <mxCell id="C6XlPYrIIHPJKQmVjB9T-106" value="" style="rounded=0;whiteSpace=wrap;html=1;fillColor=#EAEDED;fontSize=22;fontColor=#FFFFFF;strokeColor=none;labelBackgroundColor=none;" vertex="1" parent="1">
          <mxGeometry x="1017" y="630" width="268" height="60" as="geometry" />
        </mxCell>
        <mxCell id="C6XlPYrIIHPJKQmVjB9T-107" value="Deploy Failed" style="text;whiteSpace=wrap;verticalAlign=middle;fontSize=15;" vertex="1" parent="1">
          <mxGeometry x="1085" y="640" width="200" height="40" as="geometry" />
        </mxCell>
        <mxCell id="C6XlPYrIIHPJKQmVjB9T-108" value="&lt;font color=&quot;#ffffff&quot;&gt;X&lt;/font&gt;" style="rounded=1;whiteSpace=wrap;html=1;fillColor=#FF3333;strokeColor=none;fontStyle=1;fontSize=22;labelBackgroundColor=none;" vertex="1" parent="1">
          <mxGeometry x="1029" y="640" width="40" height="38" as="geometry" />
        </mxCell>
        <mxCell id="C6XlPYrIIHPJKQmVjB9T-109" style="edgeStyle=none;curved=1;rounded=0;orthogonalLoop=1;jettySize=auto;html=1;fontSize=12;startSize=8;endSize=8;strokeWidth=3;entryX=0;entryY=0.5;entryDx=0;entryDy=0;exitX=0.983;exitY=0.525;exitDx=0;exitDy=0;exitPerimeter=0;" edge="1" parent="1" source="C6XlPYrIIHPJKQmVjB9T-102" target="C6XlPYrIIHPJKQmVjB9T-114">
          <mxGeometry relative="1" as="geometry">
            <mxPoint x="1347.25" y="297.29" as="sourcePoint" />
            <mxPoint x="1437.25" y="297.29000000000025" as="targetPoint" />
          </mxGeometry>
        </mxCell>
        <mxCell id="C6XlPYrIIHPJKQmVjB9T-114" value="" style="rounded=0;whiteSpace=wrap;html=1;fillColor=#EAEDED;fontSize=22;fontColor=#FFFFFF;strokeColor=none;labelBackgroundColor=none;" vertex="1" parent="1">
          <mxGeometry x="1438.25" y="273" width="268" height="60" as="geometry" />
        </mxCell>
        <UserObject label="Sync to S3" id="C6XlPYrIIHPJKQmVjB9T-115">
          <mxCell style="text;whiteSpace=wrap;html=1;fontSize=15;verticalAlign=middle;" vertex="1" parent="1">
            <mxGeometry x="1496.25" y="283" width="230" height="40" as="geometry" />
          </mxCell>
        </UserObject>
        <mxCell id="C6XlPYrIIHPJKQmVjB9T-116" value="8" style="rounded=1;whiteSpace=wrap;html=1;fillColor=#007CBD;strokeColor=none;fontColor=#FFFFFF;fontStyle=1;fontSize=22;labelBackgroundColor=none;" vertex="1" parent="1">
          <mxGeometry x="1450.75" y="283" width="40" height="38" as="geometry" />
        </mxCell>
        <mxCell id="C6XlPYrIIHPJKQmVjB9T-117" value="" style="group" vertex="1" connectable="0" parent="1">
          <mxGeometry x="1360" y="354.75" width="430" height="150" as="geometry" />
        </mxCell>
        <mxCell id="C6XlPYrIIHPJKQmVjB9T-118" value="" style="shape=cylinder3;whiteSpace=wrap;html=1;boundedLbl=1;backgroundOutline=1;size=15;" vertex="1" parent="C6XlPYrIIHPJKQmVjB9T-117">
          <mxGeometry x="75" width="280" height="150" as="geometry" />
        </mxCell>
        <mxCell id="C6XlPYrIIHPJKQmVjB9T-119" value="S3_BUCKET_NAME&amp;nbsp;" style="text;whiteSpace=wrap;html=1;fontSize=15;verticalAlign=middle;align=center;" vertex="1" parent="C6XlPYrIIHPJKQmVjB9T-117">
          <mxGeometry y="64.5" width="430" height="40" as="geometry" />
        </mxCell>
        <mxCell id="C6XlPYrIIHPJKQmVjB9T-120" value="0" style="rounded=0;whiteSpace=wrap;html=1;fillColor=#EAEDED;fontSize=22;fontColor=#FFFFFF;strokeColor=none;labelBackgroundColor=none;" vertex="1" parent="1">
          <mxGeometry x="1895.37" y="268" width="268" height="60" as="geometry" />
        </mxCell>
        <mxCell id="C6XlPYrIIHPJKQmVjB9T-122" value="9" style="rounded=1;whiteSpace=wrap;html=1;fillColor=#007CBD;strokeColor=none;fontColor=#FFFFFF;fontStyle=1;fontSize=22;labelBackgroundColor=none;" vertex="1" parent="1">
          <mxGeometry x="1907.87" y="280" width="40" height="38" as="geometry" />
        </mxCell>
        <mxCell id="C6XlPYrIIHPJKQmVjB9T-124" value="Region: ap-northeast-2" style="sketch=0;outlineConnect=0;gradientColor=none;html=1;whiteSpace=wrap;fontSize=12;fontStyle=0;shape=mxgraph.aws4.group;grIcon=mxgraph.aws4.group_region;strokeColor=#879196;fillColor=none;verticalAlign=top;align=left;spacingLeft=30;fontColor=#879196;dashed=1;" vertex="1" parent="1">
          <mxGeometry x="1500" y="81" width="610" height="180" as="geometry" />
        </mxCell>
        <mxCell id="C6XlPYrIIHPJKQmVjB9T-125" value="Invalidate Cache" style="text;whiteSpace=wrap;html=1;fontSize=15;verticalAlign=middle;" vertex="1" parent="1">
          <mxGeometry x="1961.88" y="280" width="120" height="40" as="geometry" />
        </mxCell>
        <mxCell id="C6XlPYrIIHPJKQmVjB9T-126" value="" style="group" vertex="1" connectable="0" parent="1">
          <mxGeometry x="1810" y="350" width="430" height="150" as="geometry" />
        </mxCell>
        <mxCell id="C6XlPYrIIHPJKQmVjB9T-127" value="" style="shape=cylinder3;whiteSpace=wrap;html=1;boundedLbl=1;backgroundOutline=1;size=15;" vertex="1" parent="C6XlPYrIIHPJKQmVjB9T-126">
          <mxGeometry x="75" width="280" height="150" as="geometry" />
        </mxCell>
        <mxCell id="C6XlPYrIIHPJKQmVjB9T-128" value="CLOUDFRONT_DISTRIBUTION_ID" style="text;whiteSpace=wrap;html=1;fontSize=15;verticalAlign=middle;align=center;" vertex="1" parent="C6XlPYrIIHPJKQmVjB9T-126">
          <mxGeometry y="64.5" width="430" height="40" as="geometry" />
        </mxCell>
        <mxCell id="C6XlPYrIIHPJKQmVjB9T-129" style="edgeStyle=none;curved=1;rounded=0;orthogonalLoop=1;jettySize=auto;html=1;fontSize=12;startSize=8;endSize=8;strokeWidth=3;entryX=0;entryY=0.5;entryDx=0;entryDy=0;exitX=0.922;exitY=0.55;exitDx=0;exitDy=0;exitPerimeter=0;" edge="1" parent="1" target="C6XlPYrIIHPJKQmVjB9T-120">
          <mxGeometry relative="1" as="geometry">
            <mxPoint x="1706.25" y="298.29" as="sourcePoint" />
            <mxPoint x="1796.25" y="298.29000000000025" as="targetPoint" />
          </mxGeometry>
        </mxCell>
        <mxCell id="C6XlPYrIIHPJKQmVjB9T-133" value="" style="curved=1;endArrow=classic;html=1;rounded=0;fontSize=12;startSize=8;endSize=8;exitX=1;exitY=0.5;exitDx=0;exitDy=0;entryX=0.5;entryY=0;entryDx=0;entryDy=0;strokeWidth=2;" edge="1" parent="1" source="C6XlPYrIIHPJKQmVjB9T-120" target="C6XlPYrIIHPJKQmVjB9T-131">
          <mxGeometry width="50" height="50" relative="1" as="geometry">
            <mxPoint x="1510" y="610" as="sourcePoint" />
            <mxPoint x="1890" y="630" as="targetPoint" />
            <Array as="points">
              <mxPoint x="2300" y="360" />
              <mxPoint x="2250" y="630" />
            </Array>
          </mxGeometry>
        </mxCell>
      </root>
    </mxGraphModel>
  </diagram>
</mxfile>
